<svg version="1.1" id="Layer_1" xmlns="http://www.w3.org/2000/svg" xmlns:xlink="http://www.w3.org/1999/xlink" x="0px" y="0px"
	 width="100%" viewBox="0 0 3000 1723" enable-background="new 0 0 3000 1723" xml:space="preserve">
<path fill="#FEFFFF" opacity="1.000000" stroke="none" 
	d="
M3002.000000,1168.000000 
	C3002.000000,1353.941650 3002.000000,1539.883179 3002.000000,1726.000000 
	C2304.610596,1726.000000 1607.221191,1726.000000 908.881836,1725.497681 
	C907.954773,1724.660522 907.977783,1724.325562 908.814941,1723.699707 
	C913.908142,1722.975220 918.184387,1722.510986 922.466736,1722.112915 
	C972.621033,1717.451904 1021.495239,1706.635742 1069.291870,1690.978638 
	C1109.108887,1677.935059 1147.572876,1661.648193 1184.526367,1641.785889 
	C1221.484131,1621.921509 1256.966309,1599.762817 1289.744873,1573.571655 
	C1309.943359,1557.432007 1329.608887,1540.563110 1348.734375,1523.164917 
	C1360.682861,1512.295532 1371.180786,1499.831665 1380.955322,1489.531494 
	C1369.309814,1477.809692 1358.607056,1467.036743 1347.592773,1455.950195 
	C1347.431396,1456.046387 1346.275879,1456.687744 1345.167358,1457.402222 
	C1313.838013,1477.595703 1281.020264,1494.994263 1246.908447,1510.003052 
	C1200.506592,1530.419312 1152.352417,1545.336792 1102.634399,1554.890015 
	C1081.164062,1559.015503 1059.343384,1563.188843 1037.603271,1563.651123 
	C991.105469,1564.639282 944.468872,1566.043579 898.744873,1559.218506 
	C913.169678,1558.576294 926.982361,1558.733643 940.772827,1558.253296 
	C949.844604,1557.937378 958.884338,1556.701782 968.784546,1555.636353 
	C974.909180,1554.964355 980.223145,1554.789429 985.460083,1554.060913 
	C1011.385315,1550.454346 1037.450806,1547.566528 1063.163086,1542.790161 
	C1098.448486,1536.235718 1132.907959,1526.251831 1166.684814,1514.013794 
	C1220.898682,1494.371094 1272.072754,1468.648193 1320.435303,1437.293579 
	C1322.541992,1435.927734 1324.369019,1434.130737 1326.083130,1432.733032 
	C1315.011719,1421.752686 1304.447266,1411.275024 1293.630371,1400.547119 
	C1293.697876,1400.529053 1293.015259,1400.576416 1292.478882,1400.881104 
	C1290.456909,1402.029419 1288.456055,1403.219727 1286.494263,1404.468140 
	C1234.669312,1437.449585 1179.341431,1462.747070 1120.674805,1480.992310 
	C1054.556030,1501.555176 986.821716,1511.205566 917.747009,1511.963623 
	C902.835876,1512.127319 887.884766,1511.075317 872.993652,1510.005127 
	C855.807495,1508.769653 838.587585,1507.484985 821.522705,1505.181519 
	C776.701416,1499.131104 732.945007,1488.424194 690.613159,1473.214600 
	C692.041016,1472.532715 693.069153,1472.211182 694.882141,1471.954590 
	C700.189026,1473.079590 704.696228,1474.208496 709.235352,1475.189331 
	C756.747681,1485.456543 804.698975,1492.175293 853.404358,1492.006592 
	C869.669739,1491.950317 885.932373,1490.803223 902.194275,1490.107788 
	C936.773315,1488.629028 970.817810,1483.325439 1004.687195,1476.369995 
	C1085.203857,1459.834839 1160.480103,1429.976440 1231.078125,1388.099854 
	C1241.571899,1381.875366 1251.757446,1375.131104 1261.251099,1369.152832 
	C1249.958984,1357.840088 1239.258789,1347.120361 1228.458618,1336.300415 
	C1212.855347,1345.340088 1196.743164,1355.286255 1180.084717,1364.213257 
	C1125.074463,1393.691650 1067.136841,1415.534424 1006.233948,1429.315308 
	C964.059265,1438.858643 921.317566,1444.670288 878.116760,1445.908325 
	C845.552917,1446.841675 813.006287,1445.980591 780.500000,1442.291870 
	C740.757690,1437.781860 701.726318,1430.125610 663.416321,1418.900391 
	C589.745178,1397.314575 521.858826,1363.612427 458.983368,1319.732178 
	C451.140747,1314.259155 442.771790,1308.768555 436.805847,1301.511230 
	C410.563934,1269.588379 388.205933,1234.945923 368.732147,1198.523438 
	C343.587555,1151.494995 324.186249,1102.133423 310.362000,1050.610352 
	C298.557770,1006.615845 291.131470,961.815308 288.588928,916.403503 
	C286.731049,883.220947 286.105957,849.884583 289.722076,816.705566 
	C292.126282,794.646118 294.244537,772.516357 297.783264,750.627014 
	C308.941803,681.604553 331.113647,616.216187 363.506195,554.202576 
	C381.416840,519.913696 401.951996,487.363190 425.524872,456.754578 
	C434.202606,445.486847 441.819397,433.128021 453.727203,424.688751 
	C483.333405,403.706360 514.196838,384.730469 546.701294,368.610962 
	C595.990723,344.167450 647.398254,325.561890 701.114929,313.250702 
	C741.339233,304.031769 782.048645,298.321747 823.161682,296.387177 
	C847.329712,295.250000 871.645264,296.482269 895.866211,297.396790 
	C942.232056,299.147430 987.530151,307.842438 1032.028564,320.525818 
	C1121.949951,346.156097 1203.582642,388.273743 1277.545898,445.371246 
	C1287.454590,453.020508 1297.252808,460.812988 1306.331909,467.934937 
	C1317.383789,456.960571 1327.972900,446.445679 1338.793701,435.700775 
	C1338.782959,435.657959 1338.758301,434.936798 1338.434448,434.394348 
	C1337.414795,432.687103 1336.340576,431.005737 1335.185547,429.387115 
	C1300.061768,380.164246 1259.416504,335.994446 1213.506958,296.666504 
	C1160.148804,250.957825 1101.433472,213.518280 1037.416992,184.697525 
	C987.884888,162.397812 936.399780,145.749939 883.058960,134.980484 
	C837.056213,125.692551 790.626160,120.609512 743.715820,120.166153 
	C730.099854,120.037468 716.436401,120.376793 702.862854,121.403168 
	C683.366638,122.877396 663.817566,124.412567 644.502319,127.323372 
	C621.523926,130.786224 598.769287,135.733383 575.478210,139.750763 
	C574.665039,138.938812 574.291321,138.413528 574.569580,137.536819 
	C722.777771,88.108177 870.741211,87.080009 1018.141357,136.420868 
	C1165.610596,185.784866 1282.440552,276.793915 1370.616333,403.416504 
	C1381.725098,392.331512 1392.274292,381.804993 1403.208130,370.894562 
	C1402.621948,369.950470 1401.674194,368.231598 1400.548218,366.638580 
	C1379.038330,336.205505 1355.253418,307.627411 1329.493652,280.732880 
	C1308.329468,258.636322 1285.630493,238.184982 1261.855835,218.884476 
	C1187.701782,158.685471 1104.904785,114.770798 1013.703491,86.636337 
	C959.868958,70.029053 904.724976,59.924927 848.574829,56.376045 
	C822.074524,54.701138 795.380493,55.896206 768.777466,56.143738 
	C758.509338,56.239277 748.250366,57.312778 737.883423,57.461548 
	C737.779602,56.982376 738.015564,56.030621 738.795959,55.789200 
	C783.779114,47.932232 828.132141,42.231369 873.150574,45.308285 
	C894.321411,46.755264 915.543823,47.743843 936.639587,49.934418 
	C983.058411,54.754536 1028.309814,65.449524 1072.422241,80.374741 
	C1133.760498,101.128204 1191.239868,129.813538 1244.548584,166.806122 
	C1299.507812,204.944000 1348.187988,249.777954 1390.111572,301.873047 
	C1402.518921,317.290741 1414.092285,333.379547 1425.203857,348.046814 
	C1435.896240,337.385284 1446.640381,326.672089 1457.647949,315.696198 
	C1434.214722,280.929840 1406.411987,248.420990 1376.432861,217.796204 
	C1363.207520,204.286041 1349.074341,191.619354 1334.860962,179.130142 
	C1293.255005,142.571289 1247.810791,111.465775 1198.933594,85.467461 
	C1150.381958,59.642452 1099.711792,39.024529 1046.472046,24.935911 
	C1013.691467,16.261290 980.538574,9.605972 946.798096,5.920635 
	C939.147278,5.084966 931.596741,3.331182 924.000000,2.000004 
	C1616.474121,2.000000 2308.948242,2.000000 3002.000000,2.000000 
	C3002.000000,306.722504 3002.000000,611.445374 3001.063477,917.123901 
	C2985.561279,918.079590 2970.995605,918.079590 2955.630371,918.079590 
	C2955.630371,940.507935 2955.630371,961.970947 2955.630371,983.310974 
	C2954.182861,983.505310 2953.388184,983.881714 2952.938477,983.633240 
	C2939.673340,976.303772 2925.321289,974.940063 2910.484863,975.216980 
	C2879.227783,975.800476 2855.341064,989.559021 2840.111572,1016.414551 
	C2821.011475,1050.096069 2820.686279,1085.653442 2835.194336,1120.960449 
	C2850.497803,1158.203247 2887.770508,1177.595337 2927.487793,1171.018066 
	C2939.483154,1169.031616 2950.188477,1164.178589 2960.911621,1158.162720 
	C2961.560791,1161.588135 2962.074219,1164.297974 2962.775635,1168.000000 
	C2976.105225,1168.000000 2989.052490,1168.000000 3002.000000,1168.000000 
M1467.686401,1053.000000 
	C1467.686401,1008.166809 1467.686401,963.333618 1467.686401,918.791687 
	C1451.101318,918.791687 1435.952759,918.791687 1420.206055,918.791687 
	C1420.206055,952.705933 1420.206055,985.912659 1420.206055,1019.586853 
	C1383.460571,1019.586853 1347.343994,1019.586853 1310.235840,1019.586853 
	C1310.235840,985.664246 1310.235840,952.215332 1310.235840,918.745605 
	C1293.792725,918.745605 1278.348999,918.745605 1263.057373,918.745605 
	C1263.057373,1001.828552 1263.057373,1084.241577 1263.057373,1166.838867 
	C1279.001587,1166.838867 1294.200195,1166.838867 1310.393799,1166.838867 
	C1310.393799,1132.556641 1310.393799,1098.748779 1310.393799,1064.687988 
	C1347.514282,1064.687988 1383.631470,1064.687988 1420.738037,1064.687988 
	C1420.738037,1099.044312 1420.738037,1132.833130 1420.738037,1166.605713 
	C1436.883301,1166.605713 1452.024414,1166.605713 1467.686401,1166.605713 
	C1467.686401,1128.921631 1467.686401,1091.960815 1467.686401,1053.000000 
M1896.434692,751.171692 
	C1886.652710,776.692322 1867.897827,790.750854 1840.914185,792.940002 
	C1808.315308,795.584595 1781.592896,782.329834 1769.733765,749.100769 
	C1761.314697,725.510681 1761.649292,701.342468 1766.827026,677.334961 
	C1769.928589,662.954407 1776.503296,649.776367 1788.015137,639.836548 
	C1804.518921,625.586487 1823.883057,622.331482 1844.912109,624.992859 
	C1870.543335,628.236633 1887.296143,642.350586 1896.570435,666.051025 
	C1897.265381,667.827393 1898.328979,669.459412 1899.439453,671.574097 
	C1915.348999,667.116577 1930.839966,662.776306 1946.952148,658.262024 
	C1935.496704,624.851990 1915.375488,600.992493 1883.567261,588.108276 
	C1855.495361,576.737366 1826.454712,576.286804 1797.412964,583.631348 
	C1763.240356,592.273560 1739.432007,613.695862 1725.255981,645.683411 
	C1710.622559,678.703125 1710.217163,713.086304 1717.328247,747.810852 
	C1721.539185,768.373169 1730.817993,786.593445 1745.025757,802.231750 
	C1765.598145,824.875366 1791.645264,835.702332 1821.671509,837.738953 
	C1861.063965,840.410950 1896.297852,831.415894 1923.585205,800.640015 
	C1934.303589,788.551575 1942.039917,774.905945 1946.512207,758.826355 
	C1931.707886,754.571106 1917.405273,750.429077 1903.079590,746.367554 
	C1900.072632,745.515076 1897.843750,746.429077 1896.434692,751.171692 
M915.750671,662.509521 
	C920.681091,661.043335 925.611511,659.577209 930.540161,658.111572 
	C918.594604,621.485168 892.274902,594.750427 858.824585,584.756714 
	C834.723083,577.556091 810.149109,576.984863 785.809998,582.391357 
	C750.479736,590.239258 724.759094,611.039673 709.900452,644.130310 
	C693.768250,680.057068 693.148560,717.486511 703.157104,754.912109 
	C711.304993,785.380371 729.200012,809.280457 757.409241,824.481995 
	C777.208069,835.151184 798.669800,838.583923 820.961060,838.134583 
	C854.328552,837.461975 883.527405,827.243591 906.398865,801.852295 
	C917.627869,789.386230 926.098755,775.512024 930.442383,758.604126 
	C914.249084,754.167053 898.718750,749.911621 883.125000,745.638794 
	C882.138916,747.733337 881.513306,748.869385 881.052856,750.068726 
	C871.181152,775.783630 852.737305,790.564636 825.160461,792.899292 
	C792.358459,795.676514 765.551453,782.039734 753.802307,749.346558 
	C745.325256,725.758301 745.689453,701.601746 750.739929,677.584412 
	C753.842285,662.831421 760.844666,649.683289 772.598816,639.412415 
	C787.406250,626.473450 805.058044,622.980469 823.742065,624.258301 
	C848.848267,625.975403 867.772461,637.731995 878.464294,661.227356 
	C879.947937,664.487854 881.436829,667.746033 883.165283,671.535767 
	C893.817993,668.622742 904.015442,665.834167 915.750671,662.509521 
M1440.432861,783.343079 
	C1448.324219,765.860657 1449.175781,747.304382 1448.129639,728.638916 
	C1447.007568,708.618042 1440.730835,689.978577 1428.581787,674.043518 
	C1405.921387,644.320984 1374.987061,636.751770 1339.634399,643.296753 
	C1332.627197,644.594055 1325.935425,647.596008 1318.151123,650.118835 
	C1318.151123,627.833069 1318.151123,606.349182 1318.151123,584.697937 
	C1301.897949,584.697937 1286.450317,584.697937 1271.018311,584.697937 
	C1271.018311,667.739563 1271.018311,750.161865 1271.018311,832.953552 
	C1284.937012,832.953552 1298.154541,832.953552 1311.720825,832.953552 
	C1312.164795,829.967712 1312.564941,827.276123 1313.028442,824.158752 
	C1316.223511,825.844482 1318.512207,827.158936 1320.888306,828.289490 
	C1352.549316,843.352783 1383.140991,842.545166 1412.240234,821.837097 
	C1425.389526,812.479553 1433.659180,799.329834 1440.432861,783.343079 
M2488.305664,981.333618 
	C2485.939209,982.228516 2483.572754,983.123474 2480.169922,984.410278 
	C2480.169922,961.865601 2480.169922,940.386658 2480.169922,918.681152 
	C2463.601807,918.681152 2447.820312,918.681152 2432.211914,918.681152 
	C2432.211914,1001.704285 2432.211914,1084.133911 2432.211914,1166.900391 
	C2446.381348,1166.900391 2459.902344,1166.900391 2473.699219,1166.900391 
	C2474.152588,1163.873413 2474.552002,1161.205444 2475.083252,1157.657593 
	C2488.166504,1166.696289 2501.712402,1170.901489 2516.194824,1171.810791 
	C2544.746826,1173.603149 2569.304199,1165.179077 2587.719238,1142.386719 
	C2606.003418,1119.756470 2611.711426,1093.293091 2610.096191,1064.915161 
	C2608.718018,1040.708008 2600.931885,1018.827332 2584.435791,1000.658569 
	C2560.581543,974.385803 2521.922363,969.230896 2488.305664,981.333618 
M1818.311035,1161.694336 
	C1818.493286,1163.295288 1818.675659,1164.896118 1818.881836,1166.707520 
	C1832.748779,1166.707520 1846.238525,1166.707520 1859.805908,1166.707520 
	C1859.805908,1083.672119 1859.805908,1001.245178 1859.805908,918.728882 
	C1843.824829,918.728882 1828.390991,918.728882 1812.065552,918.728882 
	C1812.065552,940.772766 1812.065552,962.188721 1812.065552,984.787415 
	C1797.744995,977.186646 1783.648682,974.929138 1768.781372,975.160034 
	C1731.893799,975.732910 1706.260742,993.358398 1691.613159,1026.443848 
	C1677.933350,1057.342896 1678.381348,1089.280762 1691.289551,1120.167358 
	C1702.711304,1147.497070 1723.197632,1165.708374 1753.285522,1170.733398 
	C1774.505249,1174.277222 1794.962891,1171.724854 1813.686157,1160.078247 
	C1814.952393,1159.290649 1816.771973,1156.692627 1818.311035,1161.694336 
M1990.797852,1172.108154 
	C2028.055420,1169.910400 2055.614258,1153.202881 2072.281494,1117.541870 
	C2055.968506,1112.811035 2040.496460,1108.324097 2025.273926,1103.909424 
	C2007.889282,1126.114746 1990.861938,1132.173340 1968.983032,1124.342529 
	C1954.279907,1119.080200 1944.084839,1104.162109 1944.397461,1087.258545 
	C1987.172119,1087.258545 2029.983643,1087.258545 2073.134277,1087.258545 
	C2074.929932,1065.851440 2074.000000,1045.823364 2066.126465,1026.663574 
	C2055.598389,1001.045166 2037.611328,983.516174 2009.968628,977.810547 
	C2000.312622,975.817505 1990.182373,975.205933 1980.297974,975.406677 
	C1949.593140,976.030518 1925.211304,989.062012 1908.177856,1014.805542 
	C1891.698120,1039.712158 1888.977539,1067.343384 1893.306641,1096.121704 
	C1895.841553,1112.973999 1903.008911,1127.724609 1914.278931,1140.486328 
	C1934.102783,1162.934204 1959.619141,1171.964844 1990.797852,1172.108154 
M2704.203857,1020.369690 
	C2706.825439,1019.927246 2709.492432,1019.662476 2712.060547,1019.009949 
	C2720.543457,1016.854675 2728.624268,1018.881042 2736.336182,1021.903015 
	C2746.213135,1025.773315 2749.924072,1032.347656 2749.255371,1043.041138 
	C2738.515869,1044.708008 2727.675781,1046.246704 2716.889404,1048.097412 
	C2699.557373,1051.071289 2682.169434,1053.788940 2665.781982,1060.721313 
	C2642.739014,1070.469116 2628.590088,1092.147827 2630.434326,1116.682861 
	C2633.039062,1151.331665 2654.961182,1168.173706 2681.379395,1171.202393 
	C2708.624268,1174.326050 2733.808838,1169.877197 2753.224365,1148.067383 
	C2753.746826,1147.480469 2754.750732,1147.322021 2756.704102,1146.423706 
	C2756.704102,1153.736816 2756.704102,1160.196289 2756.704102,1166.854004 
	C2770.915771,1166.854004 2784.112549,1166.854004 2797.598389,1166.854004 
	C2797.889404,1165.205200 2798.308594,1163.952637 2798.303223,1162.701904 
	C2798.118896,1119.406738 2798.694092,1076.087158 2797.364746,1032.826172 
	C2796.610107,1008.270752 2781.429199,989.617737 2759.395996,981.558777 
	C2738.430176,973.890320 2716.863525,973.690918 2695.389648,976.550659 
	C2678.986084,978.735291 2664.338379,986.218445 2653.154785,999.061707 
	C2645.988037,1007.292236 2639.835693,1016.148132 2637.698730,1027.821411 
	C2645.207764,1030.138306 2652.154541,1032.259521 2659.086670,1034.426758 
	C2666.222168,1036.657593 2673.343750,1038.933228 2680.120361,1041.078125 
	C2688.440430,1026.996704 2689.478027,1026.102661 2704.203857,1020.369690 
M2351.991455,1148.764648 
	C2351.991455,1154.646729 2351.991455,1160.528809 2351.991455,1166.636963 
	C2366.888672,1166.636963 2380.332275,1166.636963 2394.343994,1166.636963 
	C2394.343994,1162.654419 2394.343994,1159.347900 2394.343994,1156.041504 
	C2394.343994,1120.720703 2394.376465,1085.400024 2394.314209,1050.079224 
	C2394.303223,1043.765381 2394.392822,1037.389038 2393.590820,1031.150146 
	C2390.778809,1009.275940 2380.660156,992.056152 2359.617920,983.419250 
	C2332.119385,972.132446 2303.778076,971.543640 2275.827637,981.179199 
	C2254.004639,988.702332 2240.816650,1005.226440 2233.479980,1027.629150 
	C2248.175781,1032.254639 2262.296387,1036.699097 2276.234375,1041.086060 
	C2288.902588,1021.218750 2305.019043,1014.725525 2327.511963,1019.965088 
	C2339.735352,1022.812561 2345.184326,1029.376465 2345.969238,1042.803101 
	C2339.567139,1043.876099 2333.095703,1045.065186 2326.591064,1046.031616 
	C2306.879150,1048.959961 2287.097168,1051.693970 2268.231934,1058.415771 
	C2251.012207,1064.551270 2236.392090,1074.206665 2230.881592,1092.825195 
	C2228.658203,1100.337280 2227.886230,1108.500488 2227.797607,1116.382446 
	C2227.496094,1143.155396 2243.394043,1163.881836 2269.597168,1169.608154 
	C2299.950195,1176.241455 2327.754883,1171.189819 2351.991455,1148.764648 
M1968.042725,754.335022 
	C1968.754150,758.584167 1969.258911,762.880310 1970.211182,767.074829 
	C1975.858765,791.947815 1989.396362,811.326050 2011.053833,824.870422 
	C2028.611694,835.851013 2048.066406,839.408203 2068.366211,838.014587 
	C2107.013184,835.361450 2134.637695,816.699707 2149.458740,780.375122 
	C2155.728516,765.008301 2156.958984,748.850525 2156.354736,732.447327 
	C2155.666016,713.754150 2150.660156,696.345215 2140.141357,680.851746 
	C2121.189941,652.937805 2094.190186,641.401550 2060.916016,641.113770 
	C2016.463501,640.729370 1978.011108,669.754150 1969.853516,715.809570 
	C1967.731445,727.790344 1968.335938,740.253967 1968.042725,754.335022 
M2463.689941,648.473328 
	C2456.769531,653.115112 2449.849121,657.756958 2442.098145,662.955750 
	C2442.098145,656.813049 2442.098145,651.875671 2442.098145,646.590332 
	C2428.177002,646.590332 2414.692627,646.590332 2400.905273,646.590332 
	C2400.905273,708.869446 2400.905273,770.635864 2400.905273,832.625244 
	C2416.932373,832.625244 2432.363770,832.625244 2447.600830,832.625244 
	C2447.953857,831.280334 2448.267822,830.638977 2448.269043,829.997009 
	C2448.313232,808.336853 2448.167480,786.674805 2448.403809,765.016968 
	C2448.555664,751.083618 2448.747070,737.114197 2449.880615,723.239319 
	C2450.814697,711.801758 2454.584961,701.118713 2464.245361,693.722046 
	C2485.787354,677.228088 2515.190674,685.893677 2522.878662,711.766052 
	C2526.034668,722.386169 2527.175293,733.884644 2527.445801,745.026917 
	C2528.084717,771.337219 2527.633545,797.673523 2527.676025,823.999268 
	C2527.680664,826.872742 2528.029053,829.745667 2528.264893,833.329834 
	C2536.520752,833.329834 2544.130371,833.369629 2551.739746,833.318848 
	C2559.587891,833.266479 2567.435303,833.125977 2575.685059,833.018799 
	C2575.685059,828.424988 2575.685303,825.107849 2575.685303,821.790710 
	C2575.685791,788.800171 2575.708740,755.809570 2575.675293,722.819031 
	C2575.662354,710.141602 2573.759766,697.687439 2569.621582,685.739624 
	C2561.645752,662.710999 2546.435547,646.554260 2521.912842,642.474060 
	C2502.838867,639.300415 2483.402344,639.546753 2463.689941,648.473328 
M1159.739258,789.611023 
	C1130.763428,800.405029 1109.468994,788.310364 1104.373779,757.853516 
	C1103.120850,750.363647 1102.500977,742.689941 1102.435791,735.093506 
	C1102.206909,708.445374 1102.363770,681.794067 1102.322388,655.144043 
	C1102.317993,652.285522 1101.974976,649.427551 1101.757568,646.086487 
	C1085.602417,646.148621 1070.161865,645.914246 1054.314453,646.249329 
	C1054.314453,650.890686 1054.314331,654.192810 1054.314331,657.494934 
	C1054.315063,690.474426 1053.828857,723.464905 1054.571411,756.427673 
	C1054.844360,768.544495 1056.732666,780.975708 1060.155029,792.594666 
	C1066.435547,813.917358 1080.201294,829.469604 1102.192505,835.413818 
	C1111.316528,837.880127 1121.250488,837.697388 1130.839600,838.022583 
	C1149.507568,838.655640 1166.171143,833.024597 1180.520996,820.855408 
	C1182.402832,819.259460 1184.625000,818.064636 1188.032715,815.785828 
	C1188.032715,822.462036 1188.032715,827.577698 1188.032715,833.354431 
	C1202.407837,833.189209 1215.854980,833.615295 1229.232300,833.058899 
	C1229.232300,770.147949 1229.232300,708.622314 1229.232300,646.589783 
	C1213.335205,646.589783 1197.885254,646.589783 1181.653198,646.589783 
	C1181.653198,650.638245 1181.695557,654.226624 1181.646240,657.813660 
	C1181.211670,689.406677 1181.135986,721.011230 1180.149292,752.587158 
	C1179.688843,767.327148 1174.791992,780.596619 1159.739258,789.611023 
M2317.664795,828.949280 
	C2317.439941,832.568481 2319.525146,833.397278 2322.662842,833.348022 
	C2328.989990,833.248718 2335.320068,833.324829 2341.648926,833.326477 
	C2347.510742,833.328064 2353.372559,833.326904 2358.958984,833.326904 
	C2358.958984,770.046570 2358.958984,708.266602 2358.958984,646.510254 
	C2343.010742,646.510254 2327.790771,646.510254 2311.653076,646.510254 
	C2311.653076,650.153687 2311.653076,653.389771 2311.653076,656.625916 
	C2311.653076,683.273621 2312.007568,709.928406 2311.472656,736.565369 
	C2311.268555,746.733337 2309.923340,757.082947 2307.475098,766.946960 
	C2304.747070,777.938477 2298.275879,787.288086 2286.817139,790.725220 
	C2265.249268,797.194824 2244.690918,793.639282 2236.580566,766.382629 
	C2233.693604,756.681030 2232.732910,746.144775 2232.529541,735.956787 
	C2231.991211,708.986755 2232.364502,681.998840 2232.321045,655.018127 
	C2232.316406,652.173767 2231.952148,649.329895 2231.726562,646.080627 
	C2223.336182,646.080627 2215.711914,646.038147 2208.088379,646.092407 
	C2200.269287,646.148010 2192.450928,646.298157 2184.318604,646.411255 
	C2184.318604,686.299866 2183.882812,724.928467 2184.607910,763.535278 
	C2184.802979,773.938416 2187.592529,784.576843 2190.831055,794.576416 
	C2196.604492,812.404114 2207.981934,825.842407 2225.674072,833.341675 
	C2237.351074,838.291077 2249.610596,838.165405 2261.941650,838.154236 
	C2279.898682,838.138062 2295.916748,832.918640 2309.837646,821.438904 
	C2311.985107,819.667786 2314.435303,818.263062 2317.654541,816.069275 
	C2317.654541,820.681152 2317.654541,823.950378 2317.664795,828.949280 
M1537.477051,838.078369 
	C1549.721802,837.261780 1562.175293,837.580505 1574.165283,835.377563 
	C1595.053467,831.539612 1612.710571,821.537842 1621.008301,800.800110 
	C1631.366455,774.912903 1628.028931,743.193787 1592.685425,729.795227 
	C1583.091797,726.158386 1573.272583,723.097534 1563.489990,719.982849 
	C1551.170044,716.060364 1538.741333,712.477600 1526.441406,708.495544 
	C1521.285767,706.826538 1517.863281,703.008850 1517.834229,697.451965 
	C1517.803467,691.557556 1521.365234,687.686096 1526.579956,685.173950 
	C1540.595825,678.421753 1570.364380,681.610779 1575.079224,703.700806 
	C1575.179932,704.172546 1576.099487,704.469482 1577.423218,705.401489 
	C1592.320068,702.729797 1607.874878,699.940063 1623.410767,697.153748 
	C1623.410767,695.056458 1623.648804,693.694031 1623.375610,692.443359 
	C1618.104248,668.321960 1602.331299,653.570984 1579.776855,646.225403 
	C1557.108643,638.842590 1533.804688,638.751831 1511.021362,646.021973 
	C1489.593628,652.859680 1474.474243,666.685730 1470.987061,689.791504 
	C1467.887207,710.331482 1471.598267,729.339050 1493.463745,740.364319 
	C1504.336182,745.846497 1515.986206,749.918457 1527.540771,753.880798 
	C1540.400391,758.290649 1553.597778,761.706177 1566.554932,765.846130 
	C1572.292603,767.679443 1576.129639,771.254333 1576.420654,778.072754 
	C1576.731567,785.360046 1573.545410,790.715881 1567.522705,793.522949 
	C1550.205811,801.593811 1523.465820,796.287476 1514.773071,775.612244 
	C1513.916748,773.575623 1513.111938,771.517334 1512.082764,768.973999 
	C1495.765747,771.541199 1479.937866,774.031433 1463.956665,776.545776 
	C1467.586548,799.012207 1478.028564,815.585022 1496.655884,826.652161 
	C1508.638916,833.771790 1522.045166,836.153076 1537.477051,838.078369 
M1545.971558,1000.871399 
	C1543.394165,994.101135 1540.816895,987.330872 1538.233398,980.544678 
	C1521.613525,980.544678 1505.507690,980.544678 1488.347168,980.544678 
	C1513.586792,1042.692993 1538.516724,1104.078491 1563.262451,1165.010498 
	C1558.058716,1179.330933 1552.918335,1193.008667 1548.122559,1206.806152 
	C1543.290649,1220.708496 1537.251709,1234.236694 1533.474609,1248.717285 
	C1548.891968,1248.717285 1563.085205,1248.717285 1577.531738,1248.717285 
	C1612.542603,1159.181885 1647.381958,1070.085083 1682.491089,980.298096 
	C1665.699829,980.298096 1650.406250,980.298096 1634.515137,980.298096 
	C1618.311646,1020.880615 1603.438354,1062.028320 1586.267700,1104.673462 
	C1572.396240,1068.952271 1559.460449,1035.640625 1545.971558,1000.871399 
M2619.952637,804.943481 
	C2623.330566,808.582947 2626.423340,812.546570 2630.132080,815.809998 
	C2656.780273,839.258179 2687.820312,842.567261 2720.802490,834.342163 
	C2751.227783,826.754761 2769.195557,806.461426 2777.572266,775.678528 
	C2760.843750,772.200256 2744.763428,768.856689 2728.926270,765.563721 
	C2727.270752,769.454102 2726.324219,772.326660 2724.891113,774.931702 
	C2719.295410,785.103882 2711.284180,791.980652 2699.229492,793.088379 
	C2680.590820,794.801025 2664.624756,789.482971 2656.366943,769.839294 
	C2648.142334,750.274353 2648.168457,730.514465 2655.705078,710.783752 
	C2661.287109,696.169739 2671.797607,687.519592 2687.585449,686.150513 
	C2704.986084,684.641602 2717.887939,691.723999 2726.006836,707.272339 
	C2727.504150,710.139465 2728.861084,713.079895 2730.513428,716.458801 
	C2746.539795,712.133240 2762.095459,707.934692 2777.866455,703.678040 
	C2768.856934,668.867371 2747.099854,649.049255 2713.094971,642.913208 
	C2704.025146,641.276550 2694.525391,640.904053 2685.305664,641.421265 
	C2654.296143,643.160706 2630.311035,657.305908 2613.952393,683.890259 
	C2606.709961,695.660156 2602.694092,708.638855 2600.971436,722.240601 
	C2597.260986,751.539124 2601.654053,779.125854 2619.952637,804.943481 
M977.643433,935.066162 
	C977.643433,944.266785 977.643433,953.467407 977.643433,963.468628 
	C1004.434021,963.468628 1029.938354,963.468628 1056.555176,963.468628 
	C1056.555176,1031.731934 1056.555176,1099.157837 1056.555176,1166.629883 
	C1072.838257,1166.629883 1087.982422,1166.629883 1103.848389,1166.629883 
	C1103.848389,1098.712891 1103.848389,1031.501831 1103.848389,963.363586 
	C1113.129517,963.363586 1121.698730,963.363586 1130.268066,963.363586 
	C1138.934326,963.363586 1147.606323,963.562500 1156.265015,963.307007 
	C1164.758545,963.056458 1173.380615,964.479980 1181.934570,962.338928 
	C1181.934570,947.452209 1181.934570,933.236938 1181.934570,918.654236 
	C1113.760132,918.654236 1045.984009,918.654236 977.643433,918.654236 
	C977.643433,923.853943 977.643433,928.476440 977.643433,935.066162 
M821.309021,918.068726 
	C817.799744,918.068726 814.290466,918.068726 810.927551,918.068726 
	C808.883789,944.513000 809.794006,1159.310425 812.037231,1167.345947 
	C819.480286,1167.345947 827.108887,1167.390503 834.736755,1167.333130 
	C842.254639,1167.276611 849.771667,1167.116577 857.156616,1167.003906 
	C859.120667,1139.762939 858.212036,925.858826 856.096558,918.068726 
	C845.210266,918.068726 834.223450,918.068726 821.309021,918.068726 
M714.299866,980.999939 
	C714.299866,1042.828003 714.299866,1104.656128 714.299866,1166.695557 
	C730.702881,1166.695557 745.840637,1166.695557 761.089539,1166.695557 
	C761.089539,1083.609131 761.089539,1001.174500 761.089539,918.655823 
	C745.331482,918.655823 730.188538,918.655823 714.299866,918.655823 
	C714.299866,939.156006 714.299866,959.077942 714.299866,980.999939 
M953.697510,1009.000061 
	C953.697510,978.832153 953.697510,948.664246 953.697510,918.767822 
	C937.120300,918.767822 921.972839,918.767822 907.047424,918.767822 
	C907.047424,1001.869995 907.047424,1084.270996 907.047424,1166.598877 
	C922.944641,1166.598877 938.085083,1166.598877 953.697510,1166.598877 
	C953.697510,1114.235596 953.697510,1062.617920 953.697510,1009.000061 
M2164.039062,1039.165771 
	C2177.466309,1022.730652 2195.931641,1022.213684 2215.222412,1023.914490 
	C2215.222412,1008.925598 2215.222412,994.765442 2215.222412,979.850891 
	C2188.714111,977.638000 2165.585205,982.732544 2147.332275,1004.582214 
	C2147.332275,996.518494 2147.332275,988.454712 2147.332275,980.548584 
	C2132.932373,980.548584 2119.704834,980.548584 2106.184570,980.548584 
	C2106.184570,1042.816650 2106.184570,1104.615845 2106.184570,1166.618408 
	C2122.186279,1166.618408 2137.645264,1166.618408 2153.682373,1166.618408 
	C2153.682373,1162.619507 2153.682129,1159.321655 2153.682373,1156.023804 
	C2153.682861,1127.693359 2153.771240,1099.362549 2153.641113,1071.032715 
	C2153.589111,1059.721313 2155.910889,1049.273193 2164.039062,1039.165771 
M987.005737,579.297668 
	C980.133850,579.297668 973.261902,579.297668 966.211609,579.297668 
	C966.211609,664.398743 966.211609,748.410156 966.211609,832.862976 
	C981.584778,832.862976 996.412842,832.862976 1011.634094,832.862976 
	C1011.634094,748.151550 1011.634094,663.882690 1011.634094,579.297607 
	C1003.624084,579.297607 996.312134,579.297607 987.005737,579.297668 
M2899.666504,696.999939 
	C2899.666504,742.146729 2899.666504,787.293579 2899.666504,832.858276 
	C2915.602051,832.858276 2930.429932,832.858276 2945.628662,832.858276 
	C2945.628662,748.139465 2945.628662,663.869690 2945.628662,579.849426 
	C2930.080566,579.849426 2915.242188,579.849426 2899.666504,579.849426 
	C2899.666504,618.597412 2899.666504,656.798645 2899.666504,696.999939 
M2803.649658,800.995544 
	C2803.649658,811.513123 2803.649658,822.030701 2803.649658,832.592224 
	C2820.314453,832.592224 2835.739502,832.592224 2851.010254,832.592224 
	C2851.010254,770.128601 2851.010254,708.401611 2851.010254,646.722534 
	C2834.951416,646.722534 2819.497559,646.722534 2803.649658,646.722534 
	C2803.649658,697.908630 2803.649658,748.452698 2803.649658,800.995544 
M2851.617920,593.301331 
	C2851.617920,588.999573 2851.617920,584.697815 2851.617920,579.818237 
	C2835.598877,579.818237 2820.091797,579.818237 2804.150879,579.818237 
	C2804.150879,593.477173 2804.150879,606.938171 2804.150879,620.687561 
	C2820.104004,620.687561 2835.537598,620.687561 2851.617920,620.687561 
	C2851.617920,611.770508 2851.617920,603.495911 2851.617920,593.301331 
z"/>
<path fill="#1E2028" opacity="1.000000" stroke="none" 
	d="
M898.123291,1559.747437 
	C944.468872,1566.043579 991.105469,1564.639282 1037.603271,1563.651123 
	C1059.343384,1563.188843 1081.164062,1559.015503 1102.634399,1554.890015 
	C1152.352417,1545.336792 1200.506592,1530.419312 1246.908447,1510.003052 
	C1281.020264,1494.994263 1313.838013,1477.595703 1345.167358,1457.402222 
	C1346.275879,1456.687744 1347.431396,1456.046387 1347.592773,1455.950195 
	C1358.607056,1467.036743 1369.309814,1477.809692 1380.955322,1489.531494 
	C1371.180786,1499.831665 1360.682861,1512.295532 1348.734375,1523.164917 
	C1329.608887,1540.563110 1309.943359,1557.432007 1289.744873,1573.571655 
	C1256.966309,1599.762817 1221.484131,1621.921509 1184.526367,1641.785889 
	C1147.572876,1661.648193 1109.108887,1677.935059 1069.291870,1690.978638 
	C1021.495239,1706.635742 972.621033,1717.451904 922.466736,1722.112915 
	C918.184387,1722.510986 913.908142,1722.975220 907.981445,1723.653809 
	C902.222534,1724.599243 898.111267,1725.299561 894.000000,1726.000000 
	C869.291565,1726.000000 844.583069,1726.000000 818.567627,1725.255371 
	C812.173279,1724.337891 807.085999,1724.164795 801.169434,1723.702393 
	C786.477722,1722.065796 772.563477,1721.112793 758.762939,1719.295654 
	C721.509827,1714.390503 684.845215,1706.560303 648.772278,1696.024658 
	C591.780334,1679.379028 537.505615,1656.273560 486.271912,1626.311035 
	C424.786407,1590.352905 369.247498,1546.822510 320.422333,1494.769165 
	C296.739685,1469.520630 274.632690,1443.065796 254.596008,1414.852295 
	C251.908737,1411.068481 248.988007,1407.388062 245.763794,1404.058105 
	C229.117172,1386.866211 211.433197,1370.588745 195.768188,1352.552856 
	C144.038223,1292.994019 101.304626,1227.484741 68.632622,1155.549683 
	C37.272022,1086.501953 15.829134,1014.669434 7.581777,939.099609 
	C6.731094,931.304932 5.389667,923.563721 4.365603,914.977661 
	C3.568838,910.788147 6.637035,906.462830 2.000000,904.000000 
	C2.000000,878.624878 2.000000,853.249756 2.785104,826.628540 
	C3.810352,820.344116 4.050497,815.305725 4.881727,809.655273 
	C6.830242,778.144653 11.673950,747.709717 17.766624,717.450928 
	C32.626606,643.649841 58.422729,573.875854 94.868156,508.005768 
	C118.745094,464.851471 146.617218,424.449524 178.611633,386.957336 
	C196.520020,365.971649 215.163574,345.633667 235.799423,327.194183 
	C244.930313,319.035126 253.943802,310.609589 262.016632,301.430847 
	C276.913788,284.492950 290.266144,266.145508 305.711853,249.751221 
	C340.458679,212.870453 378.955353,180.229294 420.631042,151.286560 
	C482.732941,108.158272 549.570496,74.547791 620.993347,49.900944 
	C696.507996,23.842089 774.383850,9.725899 854.681335,3.782660 
	C859.000549,3.277255 862.500244,2.638627 866.000000,2.000000 
	C884.708435,2.000000 903.416931,2.000000 923.062683,2.000004 
	C931.596741,3.331182 939.147278,5.084966 946.798096,5.920635 
	C980.538574,9.605972 1013.691467,16.261290 1046.472046,24.935911 
	C1099.711792,39.024529 1150.381958,59.642452 1198.933594,85.467461 
	C1247.810791,111.465775 1293.255005,142.571289 1334.860962,179.130142 
	C1349.074341,191.619354 1363.207520,204.286041 1376.432861,217.796204 
	C1406.411987,248.420990 1434.214722,280.929840 1457.647949,315.696198 
	C1446.640381,326.672089 1435.896240,337.385284 1425.203857,348.046814 
	C1414.092285,333.379547 1402.518921,317.290741 1390.111572,301.873047 
	C1348.187988,249.777954 1299.507812,204.944000 1244.548584,166.806122 
	C1191.239868,129.813538 1133.760498,101.128204 1072.422241,80.374741 
	C1028.309814,65.449524 983.058411,54.754536 936.639587,49.934418 
	C915.543823,47.743843 894.321411,46.755264 873.150574,45.308285 
	C828.132141,42.231369 783.779114,47.932232 737.957520,55.676369 
	C727.858887,57.573013 719.378967,59.341072 710.899109,61.109131 
	C710.965027,61.505493 711.030945,61.901855 711.096863,62.298222 
	C720.060303,60.845718 729.023743,59.393219 737.987183,57.940720 
	C748.250366,57.312778 758.509338,56.239277 768.777466,56.143738 
	C795.380493,55.896206 822.074524,54.701138 848.574829,56.376045 
	C904.724976,59.924927 959.868958,70.029053 1013.703491,86.636337 
	C1104.904785,114.770798 1187.701782,158.685471 1261.855835,218.884476 
	C1285.630493,238.184982 1308.329468,258.636322 1329.493652,280.732880 
	C1355.253418,307.627411 1379.038330,336.205505 1400.548218,366.638580 
	C1401.674194,368.231598 1402.621948,369.950470 1403.208130,370.894562 
	C1392.274292,381.804993 1381.725098,392.331512 1370.616333,403.416504 
	C1282.440552,276.793915 1165.610596,185.784866 1018.141357,136.420868 
	C870.741211,87.080009 722.777771,88.108177 573.820984,137.460556 
	C567.851257,139.352417 563.282166,140.969147 558.713013,142.585876 
	C558.985352,143.368820 559.257629,144.151764 559.529968,144.934723 
	C564.992554,143.302277 570.455078,141.669846 575.917664,140.037415 
	C598.769287,135.733383 621.523926,130.786224 644.502319,127.323372 
	C663.817566,124.412567 683.366638,122.877396 702.862854,121.403168 
	C716.436401,120.376793 730.099854,120.037468 743.715820,120.166153 
	C790.626160,120.609512 837.056213,125.692551 883.058960,134.980484 
	C936.399780,145.749939 987.884888,162.397812 1037.416992,184.697525 
	C1101.433472,213.518280 1160.148804,250.957825 1213.506958,296.666504 
	C1259.416504,335.994446 1300.061768,380.164246 1335.185547,429.387115 
	C1336.340576,431.005737 1337.414795,432.687103 1338.434448,434.394348 
	C1338.758301,434.936798 1338.782959,435.657959 1338.793701,435.700775 
	C1327.972900,446.445679 1317.383789,456.960571 1306.331909,467.934937 
	C1297.252808,460.812988 1287.454590,453.020508 1277.545898,445.371246 
	C1203.582642,388.273743 1121.949951,346.156097 1032.028564,320.525818 
	C987.530151,307.842438 942.232056,299.147430 895.866211,297.396790 
	C871.645264,296.482269 847.329712,295.250000 823.161682,296.387177 
	C782.048645,298.321747 741.339233,304.031769 701.114929,313.250702 
	C647.398254,325.561890 595.990723,344.167450 546.701294,368.610962 
	C514.196838,384.730469 483.333405,403.706360 453.727203,424.688751 
	C441.819397,433.128021 434.202606,445.486847 425.524872,456.754578 
	C401.951996,487.363190 381.416840,519.913696 363.506195,554.202576 
	C331.113647,616.216187 308.941803,681.604553 297.783264,750.627014 
	C294.244537,772.516357 292.126282,794.646118 289.722076,816.705566 
	C286.105957,849.884583 286.731049,883.220947 288.588928,916.403503 
	C291.131470,961.815308 298.557770,1006.615845 310.362000,1050.610352 
	C324.186249,1102.133423 343.587555,1151.494995 368.732147,1198.523438 
	C388.205933,1234.945923 410.563934,1269.588379 436.805847,1301.511230 
	C442.771790,1308.768555 451.140747,1314.259155 458.983368,1319.732178 
	C521.858826,1363.612427 589.745178,1397.314575 663.416321,1418.900391 
	C701.726318,1430.125610 740.757690,1437.781860 780.500000,1442.291870 
	C813.006287,1445.980591 845.552917,1446.841675 878.116760,1445.908325 
	C921.317566,1444.670288 964.059265,1438.858643 1006.233948,1429.315308 
	C1067.136841,1415.534424 1125.074463,1393.691650 1180.084717,1364.213257 
	C1196.743164,1355.286255 1212.855347,1345.340088 1228.458618,1336.300415 
	C1239.258789,1347.120361 1249.958984,1357.840088 1261.251099,1369.152832 
	C1251.757446,1375.131104 1241.571899,1381.875366 1231.078125,1388.099854 
	C1160.480103,1429.976440 1085.203857,1459.834839 1004.687195,1476.369995 
	C970.817810,1483.325439 936.773315,1488.629028 902.194275,1490.107788 
	C885.932373,1490.803223 869.669739,1491.950317 853.404358,1492.006592 
	C804.698975,1492.175293 756.747681,1485.456543 709.235352,1475.189331 
	C704.696228,1474.208496 700.189026,1473.079590 694.318970,1471.466797 
	C686.059753,1469.358643 679.148682,1467.803223 672.237610,1466.247803 
	C672.141541,1466.650757 672.045532,1467.053711 671.949524,1467.456665 
	C678.037476,1469.496094 684.125427,1471.535522 690.213379,1473.574951 
	C732.945007,1488.424194 776.701416,1499.131104 821.522705,1505.181519 
	C838.587585,1507.484985 855.807495,1508.769653 872.993652,1510.005127 
	C887.884766,1511.075317 902.835876,1512.127319 917.747009,1511.963623 
	C986.821716,1511.205566 1054.556030,1501.555176 1120.674805,1480.992310 
	C1179.341431,1462.747070 1234.669312,1437.449585 1286.494263,1404.468140 
	C1288.456055,1403.219727 1290.456909,1402.029419 1292.478882,1400.881104 
	C1293.015259,1400.576416 1293.697876,1400.529053 1293.630371,1400.547119 
	C1304.447266,1411.275024 1315.011719,1421.752686 1326.083130,1432.733032 
	C1324.369019,1434.130737 1322.541992,1435.927734 1320.435303,1437.293579 
	C1272.072754,1468.648193 1220.898682,1494.371094 1166.684814,1514.013794 
	C1132.907959,1526.251831 1098.448486,1536.235718 1063.163086,1542.790161 
	C1037.450806,1547.566528 1011.385315,1550.454346 985.460083,1554.060913 
	C980.223145,1554.789429 974.909180,1554.964355 967.854553,1555.546875 
	C932.115356,1555.699219 898.152283,1555.699219 864.189270,1555.699219 
	C867.096130,1555.325317 870.039368,1555.472290 872.942383,1555.895386 
	C881.344666,1557.119873 889.730835,1558.455444 898.123291,1559.747437 
M60.545937,976.768433 
	C59.721138,967.583130 58.966766,958.390442 58.013096,949.218567 
	C57.818409,947.346130 56.875244,945.551636 56.341686,941.882568 
	C56.789127,921.279419 56.634338,900.640686 57.849800,880.082947 
	C59.118843,858.618896 61.191414,837.169189 63.827827,815.826233 
	C69.085335,773.264648 79.290840,731.730103 92.697586,691.075378 
	C114.991478,623.471191 146.464523,560.343079 187.062469,501.788971 
	C226.133759,445.436829 272.187653,395.559753 325.012177,351.873749 
	C379.677582,306.665253 439.726471,270.295044 504.896240,242.394913 
	C554.787170,221.035889 606.434387,205.291397 659.917603,195.999390 
	C682.768311,192.029358 705.774475,188.571487 728.853027,186.405579 
	C750.647644,184.360123 772.623291,183.906342 794.532349,183.544617 
	C807.444458,183.331421 820.386841,184.573517 833.306641,185.317612 
	C846.878601,186.099289 860.439758,187.067795 875.308777,188.763794 
	C879.978638,189.226532 884.648438,189.689285 889.318298,190.152039 
	C889.349609,189.549622 889.380920,188.947220 889.412231,188.344803 
	C884.252441,187.612793 879.092651,186.880768 872.359924,185.761292 
	C826.037170,176.755737 779.357544,171.712341 732.098633,173.284958 
	C715.174866,173.848160 698.152527,173.653687 681.361511,175.499802 
	C654.685730,178.432755 627.927612,181.582825 601.630737,186.793320 
	C547.076355,197.602783 494.646851,215.313721 444.383118,239.268219 
	C354.561401,282.075104 277.473145,341.476227 213.008041,417.200073 
	C164.375366,474.326477 126.131226,537.814392 98.217720,607.453552 
	C79.020508,655.347168 65.601128,704.793030 57.398426,755.810303 
	C52.281517,787.635254 50.255997,819.634277 48.490479,851.685425 
	C47.836277,863.561829 48.919933,875.568420 49.714100,887.482178 
	C51.012432,906.959290 52.722736,926.408997 53.971924,947.535828 
	C55.304050,957.730835 56.636177,967.925842 58.001602,979.697632 
	C59.043102,984.192627 60.084606,988.687622 61.126110,993.182617 
	C61.777348,993.090271 62.428589,992.997864 63.079830,992.905518 
	C62.410229,988.115601 61.740631,983.325623 60.545937,976.768433 
M178.398666,880.550659 
	C179.729691,869.292175 181.060699,858.033630 182.391724,846.775146 
	C181.649826,846.670044 180.907928,846.564880 180.166031,846.459778 
	C178.112701,858.309326 176.059357,870.158875 173.679428,883.602905 
	C170.557373,910.215942 166.154572,936.756042 164.634094,963.460266 
	C162.688156,997.636536 164.416138,1031.914673 168.421478,1065.955322 
	C172.451874,1100.208740 178.789749,1134.052490 187.756104,1167.405518 
	C205.481720,1233.341431 232.306992,1295.295776 268.477997,1353.186035 
	C304.290649,1410.502686 347.377167,1461.642578 398.107269,1506.401611 
	C452.371704,1554.278931 512.492004,1592.846680 578.755310,1621.895508 
	C626.090515,1642.646606 675.103821,1657.978882 725.877502,1667.644409 
	C768.056519,1675.673950 810.628418,1679.734497 853.558716,1680.114502 
	C883.839966,1680.382568 913.913513,1677.734009 945.547546,1673.917969 
	C948.771240,1673.394531 952.009094,1672.944702 955.214539,1672.326660 
	C958.273254,1671.737061 961.298218,1670.972412 964.338074,1670.284668 
	C964.185059,1669.658569 964.032043,1669.032471 963.879028,1668.406372 
	C955.220459,1669.568359 946.561890,1670.730347 936.044495,1672.019165 
	C900.795532,1672.471924 865.577637,1672.219604 830.498535,1668.038330 
	C795.529968,1663.870239 760.943237,1657.732910 726.861328,1648.772705 
	C671.108459,1634.114868 617.762329,1613.468140 566.826355,1586.345581 
	C506.882538,1554.426880 452.490845,1514.937012 403.277100,1468.288086 
	C379.619385,1445.863403 357.728577,1421.744507 337.319763,1396.296997 
	C298.459351,1347.842651 266.017334,1295.405884 240.405945,1238.843750 
	C219.693436,1193.100464 203.696091,1145.679077 192.887817,1096.618896 
	C182.311646,1048.612183 175.588593,1000.070374 175.786469,950.805115 
	C175.878433,927.908264 177.012756,905.015625 178.398666,880.550659 
M117.921883,1059.588745 
	C120.656487,1070.463867 123.391090,1081.338867 126.125694,1092.213989 
	C126.607964,1092.101196 127.090225,1091.988403 127.572495,1091.875610 
	C125.555054,1080.522949 123.537605,1069.170410 121.655403,1056.584473 
	C121.501427,1055.782715 121.347458,1054.981079 121.365273,1053.225586 
	C121.225441,1052.552124 120.862953,1052.034546 120.331955,1050.297607 
	C120.273262,1048.924683 120.214561,1047.551636 120.621445,1045.730713 
	C120.787239,1044.986206 120.538216,1044.470459 119.698181,1042.437866 
	C119.245590,1026.533325 118.088364,1010.610657 118.498047,994.728455 
	C119.191338,967.851746 120.074089,940.933289 122.326218,914.154236 
	C125.888741,871.794006 134.123169,830.199951 145.564896,789.231995 
	C165.908005,716.392029 196.728989,648.319336 238.031586,584.991394 
	C276.971802,525.285706 323.745270,472.473846 377.958252,426.209473 
	C458.209686,357.724335 548.995422,308.826447 650.217102,279.105591 
	C697.863953,265.115417 746.486145,256.363312 795.867004,252.357727 
	C821.346802,250.290909 847.044495,249.989197 872.622803,250.354080 
	C892.481201,250.637360 912.359619,252.704742 932.135437,254.844910 
	C963.196716,258.206451 993.713684,264.768585 1025.284180,272.789398 
	C1030.400269,274.081451 1035.516235,275.373505 1040.632324,276.665558 
	C1040.840576,275.888245 1041.048828,275.110931 1041.257080,274.333618 
	C1036.199585,272.850800 1031.141968,271.367981 1024.806152,269.218567 
	C1011.872070,264.956482 999.042419,260.339844 985.985413,256.495117 
	C935.765503,241.707520 884.392273,233.225693 832.192078,230.235291 
	C803.318665,228.581223 774.340637,228.170792 745.494751,231.332397 
	C720.108459,234.114853 694.528564,235.995300 669.450500,240.560730 
	C599.384644,253.316147 532.819275,276.480713 469.765991,309.898834 
	C392.426300,350.888763 325.576477,404.934296 268.485168,470.959839 
	C221.440262,525.366760 183.981659,586.019043 156.040619,652.333496 
	C120.275780,737.216675 102.617149,825.911865 101.669579,917.968567 
	C101.409447,943.240723 103.025215,968.454773 106.520981,993.437134 
	C109.547005,1015.062378 114.182739,1036.462402 117.921883,1059.588745 
M257.450012,713.376404 
	C246.995300,743.505310 239.384308,774.347351 233.074097,805.607483 
	C224.774338,846.723511 221.575058,888.325867 220.603485,930.068298 
	C220.103363,951.555298 222.449448,973.115906 223.674347,994.633850 
	C225.375351,1024.516357 230.363342,1053.975464 236.768677,1083.121338 
	C249.218613,1139.771729 268.604614,1193.976318 294.761017,1245.866089 
	C337.103790,1329.866699 394.209473,1402.137695 465.835236,1462.867676 
	C550.175171,1534.377319 646.351807,1582.849487 753.963684,1608.359375 
	C787.581177,1616.328613 821.623596,1621.644775 856.158203,1624.331543 
	C888.012268,1626.809937 919.813599,1628.607666 951.620911,1625.281250 
	C976.999634,1622.627075 1002.330505,1619.288574 1027.543091,1615.358521 
	C1042.784546,1612.982910 1057.759766,1608.898560 1072.854614,1605.582031 
	C1072.730713,1604.836914 1072.606689,1604.091675 1072.482788,1603.346436 
	C1068.290161,1603.722778 1064.098389,1604.108276 1059.904785,1604.473999 
	C1038.430176,1606.347290 1016.987854,1609.048218 995.472778,1609.891479 
	C962.565857,1611.181396 929.693359,1609.286621 896.950989,1605.612793 
	C853.938599,1600.786621 811.676636,1592.267334 770.143250,1580.048828 
	C709.262329,1562.138916 651.698425,1536.710938 597.478210,1503.797607 
	C532.779236,1464.523438 475.489532,1416.381714 425.366760,1359.625854 
	C384.000977,1312.785767 349.231934,1261.501831 320.903656,1205.874146 
	C297.011047,1158.956665 278.640381,1109.916138 265.270569,1058.954468 
	C251.237549,1005.464783 243.653351,951.071350 241.766983,895.889160 
	C240.596237,861.641113 241.646805,827.367432 246.550110,793.434998 
	C250.191940,768.232300 255.592651,743.283752 260.950562,716.910583 
	C264.222137,704.395081 267.493744,691.879578 270.765350,679.364075 
	C265.155853,689.690063 260.617798,700.468140 257.450012,713.376404 
M984.474976,1667.171997 
	C979.535583,1667.533203 974.596130,1667.894287 969.656738,1668.255371 
	C969.710999,1668.723145 969.765259,1669.190918 969.819519,1669.658569 
	C974.259460,1668.941040 978.699402,1668.223511 984.474976,1667.171997 
M1088.645874,1601.094238 
	C1085.428589,1601.321533 1082.211182,1601.548828 1078.993896,1601.776123 
	C1079.058716,1602.289307 1079.123413,1602.802368 1079.188110,1603.315552 
	C1081.945801,1602.726685 1084.703613,1602.137939 1088.645874,1601.094238 
z"/>
<path fill="#FFFEFE" opacity="1.000000" stroke="none" 
	d="
M853.861877,3.649438 
	C774.383850,9.725899 696.507996,23.842089 620.993347,49.900944 
	C549.570496,74.547791 482.732941,108.158272 420.631042,151.286560 
	C378.955353,180.229294 340.458679,212.870453 305.711853,249.751221 
	C290.266144,266.145508 276.913788,284.492950 262.016632,301.430847 
	C253.943802,310.609589 244.930313,319.035126 235.799423,327.194183 
	C215.163574,345.633667 196.520020,365.971649 178.611633,386.957336 
	C146.617218,424.449524 118.745094,464.851471 94.868156,508.005768 
	C58.422729,573.875854 32.626606,643.649841 17.766624,717.450928 
	C11.673950,747.709717 6.830242,778.144653 4.315340,809.535767 
	C2.771912,810.018982 2.385956,810.009460 2.000000,810.000000 
	C2.000000,540.808655 2.000000,271.617279 2.000000,2.000000 
	C285.374969,2.000000 568.750183,2.000000 852.999878,2.409992 
	C853.874390,2.819984 853.861877,3.649438 853.861877,3.649438 
z"/>
<path fill="#FEFFFF" opacity="1.000000" stroke="none" 
	d="
M4.275949,915.797729 
	C5.389667,923.563721 6.731094,931.304932 7.581777,939.099609 
	C15.829134,1014.669434 37.272022,1086.501953 68.632622,1155.549683 
	C101.304626,1227.484741 144.038223,1292.994019 195.768188,1352.552856 
	C211.433197,1370.588745 229.117172,1386.866211 245.763794,1404.058105 
	C248.988007,1407.388062 251.908737,1411.068481 254.596008,1414.852295 
	C274.632690,1443.065796 296.739685,1469.520630 320.422333,1494.769165 
	C369.247498,1546.822510 424.786407,1590.352905 486.271912,1626.311035 
	C537.505615,1656.273560 591.780334,1679.379028 648.772278,1696.024658 
	C684.845215,1706.560303 721.509827,1714.390503 758.762939,1719.295654 
	C772.563477,1721.112793 786.477722,1722.065796 801.204102,1724.204346 
	C802.045349,1725.330566 802.022644,1725.665283 802.000000,1726.000000 
	C535.478271,1726.000000 268.956543,1726.000000 2.000000,1726.000000 
	C2.000000,1456.625000 2.000000,1187.249878 2.574257,916.946045 
	C3.524325,915.944214 3.900135,915.870972 4.275949,915.797729 
z"/>
<path fill="#1E2028" opacity="1.000000" stroke="none" 
	d="
M3002.000000,1167.062744 
	C2989.052490,1168.000000 2976.105225,1168.000000 2962.775635,1168.000000 
	C2962.074219,1164.297974 2961.560791,1161.588135 2960.911621,1158.162720 
	C2950.188477,1164.178589 2939.483154,1169.031616 2927.487793,1171.018066 
	C2887.770508,1177.595337 2850.497803,1158.203247 2835.194336,1120.960449 
	C2820.686279,1085.653442 2821.011475,1050.096069 2840.111572,1016.414551 
	C2855.341064,989.559021 2879.227783,975.800476 2910.484863,975.216980 
	C2925.321289,974.940063 2939.673340,976.303772 2952.938477,983.633240 
	C2953.388184,983.881714 2954.182861,983.505310 2955.630371,983.310974 
	C2955.630371,961.970947 2955.630371,940.507935 2955.630371,918.079590 
	C2970.995605,918.079590 2985.561279,918.079590 3001.063477,918.039795 
	C3002.000000,1000.708435 3002.000000,1083.416870 3002.000000,1167.062744 
M2877.665039,1059.012695 
	C2874.456787,1076.489258 2876.071045,1093.425659 2884.554443,1109.170044 
	C2892.691650,1124.271729 2905.366211,1130.904297 2925.648438,1129.143066 
	C2942.043701,1127.719604 2953.471924,1117.470825 2957.976807,1101.037964 
	C2962.888672,1083.120117 2963.263184,1065.076904 2958.272461,1047.071655 
	C2953.264160,1029.002930 2942.579590,1019.596130 2925.034180,1017.665894 
	C2907.390137,1015.724792 2891.783936,1023.794678 2883.957764,1039.602539 
	C2881.203857,1045.164795 2879.781250,1051.385864 2877.665039,1059.012695 
z"/>
<path fill="#B2B9BB" opacity="1.000000" stroke="none" 
	d="
M802.888306,1726.000000 
	C802.022644,1725.665283 802.045349,1725.330566 802.033325,1724.493896 
	C807.085999,1724.164795 812.173279,1724.337891 817.630310,1725.255371 
	C813.258850,1726.000000 808.517761,1726.000000 802.888306,1726.000000 
z"/>
<path fill="#B2B9BB" opacity="1.000000" stroke="none" 
	d="
M2.000000,810.888306 
	C2.385956,810.009460 2.771912,810.018982 3.724255,810.147949 
	C4.050497,815.305725 3.810352,820.344116 2.785104,825.691223 
	C2.000000,821.258850 2.000000,816.517761 2.000000,810.888306 
z"/>
<path fill="#B2B9BB" opacity="1.000000" stroke="none" 
	d="
M894.875000,1726.000000 
	C898.111267,1725.299561 902.222534,1724.599243 907.167358,1723.944702 
	C907.977783,1724.325562 907.954773,1724.660522 907.965942,1725.497681 
	C903.916687,1726.000000 899.833313,1726.000000 894.875000,1726.000000 
z"/>
<path fill="#B2B9BB" opacity="1.000000" stroke="none" 
	d="
M854.681335,3.782660 
	C853.861877,3.649438 853.874390,2.819984 853.937195,2.409992 
	C857.428711,2.000000 860.857422,2.000000 865.143066,2.000000 
	C862.500244,2.638627 859.000549,3.277255 854.681335,3.782660 
z"/>
<path fill="#B2B9BB" opacity="1.000000" stroke="none" 
	d="
M4.365601,914.977661 
	C3.900135,915.870972 3.524325,915.944214 2.574257,916.008728 
	C2.000000,912.571289 2.000000,909.142578 2.000000,904.856934 
	C6.637035,906.462830 3.568838,910.788147 4.365601,914.977661 
z"/>
<path fill="#202129" opacity="1.000000" stroke="none" 
	d="
M1467.686401,1054.000000 
	C1467.686401,1091.960815 1467.686401,1128.921631 1467.686401,1166.605713 
	C1452.024414,1166.605713 1436.883301,1166.605713 1420.738037,1166.605713 
	C1420.738037,1132.833130 1420.738037,1099.044312 1420.738037,1064.687988 
	C1383.631470,1064.687988 1347.514282,1064.687988 1310.393799,1064.687988 
	C1310.393799,1098.748779 1310.393799,1132.556641 1310.393799,1166.838867 
	C1294.200195,1166.838867 1279.001587,1166.838867 1263.057373,1166.838867 
	C1263.057373,1084.241577 1263.057373,1001.828552 1263.057373,918.745605 
	C1278.348999,918.745605 1293.792725,918.745605 1310.235840,918.745605 
	C1310.235840,952.215332 1310.235840,985.664246 1310.235840,1019.586853 
	C1347.343994,1019.586853 1383.460571,1019.586853 1420.206055,1019.586853 
	C1420.206055,985.912659 1420.206055,952.705933 1420.206055,918.791687 
	C1435.952759,918.791687 1451.101318,918.791687 1467.686401,918.791687 
	C1467.686401,963.333618 1467.686401,1008.166809 1467.686401,1054.000000 
z"/>
<path fill="#1F2028" opacity="1.000000" stroke="none" 
	d="
M1896.807373,750.490112 
	C1897.843750,746.429077 1900.072632,745.515076 1903.079590,746.367554 
	C1917.405273,750.429077 1931.707886,754.571106 1946.512207,758.826355 
	C1942.039917,774.905945 1934.303589,788.551575 1923.585205,800.640015 
	C1896.297852,831.415894 1861.063965,840.410950 1821.671509,837.738953 
	C1791.645264,835.702332 1765.598145,824.875366 1745.025757,802.231750 
	C1730.817993,786.593445 1721.539185,768.373169 1717.328247,747.810852 
	C1710.217163,713.086304 1710.622559,678.703125 1725.255981,645.683411 
	C1739.432007,613.695862 1763.240356,592.273560 1797.412964,583.631348 
	C1826.454712,576.286804 1855.495361,576.737366 1883.567261,588.108276 
	C1915.375488,600.992493 1935.496704,624.851990 1946.952148,658.262024 
	C1930.839966,662.776306 1915.348999,667.116577 1899.439453,671.574097 
	C1898.328979,669.459412 1897.265381,667.827393 1896.570435,666.051025 
	C1887.296143,642.350586 1870.543335,628.236633 1844.912109,624.992859 
	C1823.883057,622.331482 1804.518921,625.586487 1788.015137,639.836548 
	C1776.503296,649.776367 1769.928589,662.954407 1766.827026,677.334961 
	C1761.649292,701.342468 1761.314697,725.510681 1769.733765,749.100769 
	C1781.592896,782.329834 1808.315308,795.584595 1840.914185,792.940002 
	C1867.897827,790.750854 1886.652710,776.692322 1896.807373,750.490112 
z"/>
<path fill="#1F2028" opacity="1.000000" stroke="none" 
	d="
M914.981812,662.777588 
	C904.015442,665.834167 893.817993,668.622742 883.165283,671.535767 
	C881.436829,667.746033 879.947937,664.487854 878.464294,661.227356 
	C867.772461,637.731995 848.848267,625.975403 823.742065,624.258301 
	C805.058044,622.980469 787.406250,626.473450 772.598816,639.412415 
	C760.844666,649.683289 753.842285,662.831421 750.739929,677.584412 
	C745.689453,701.601746 745.325256,725.758301 753.802307,749.346558 
	C765.551453,782.039734 792.358459,795.676514 825.160461,792.899292 
	C852.737305,790.564636 871.181152,775.783630 881.052856,750.068726 
	C881.513306,748.869385 882.138916,747.733337 883.125000,745.638794 
	C898.718750,749.911621 914.249084,754.167053 930.442383,758.604126 
	C926.098755,775.512024 917.627869,789.386230 906.398865,801.852295 
	C883.527405,827.243591 854.328552,837.461975 820.961060,838.134583 
	C798.669800,838.583923 777.208069,835.151184 757.409241,824.481995 
	C729.200012,809.280457 711.304993,785.380371 703.157104,754.912109 
	C693.148560,717.486511 693.768250,680.057068 709.900452,644.130310 
	C724.759094,611.039673 750.479736,590.239258 785.809998,582.391357 
	C810.149109,576.984863 834.723083,577.556091 858.824585,584.756714 
	C892.274902,594.750427 918.594604,621.485168 930.540161,658.111572 
	C925.611511,659.577209 920.681091,661.043335 914.981812,662.777588 
z"/>
<path fill="#1F2129" opacity="1.000000" stroke="none" 
	d="
M1440.256470,784.094971 
	C1433.659180,799.329834 1425.389526,812.479553 1412.240234,821.837097 
	C1383.140991,842.545166 1352.549316,843.352783 1320.888306,828.289490 
	C1318.512207,827.158936 1316.223511,825.844482 1313.028442,824.158752 
	C1312.564941,827.276123 1312.164795,829.967712 1311.720825,832.953552 
	C1298.154541,832.953552 1284.937012,832.953552 1271.018311,832.953552 
	C1271.018311,750.161865 1271.018311,667.739563 1271.018311,584.697937 
	C1286.450317,584.697937 1301.897949,584.697937 1318.151123,584.697937 
	C1318.151123,606.349182 1318.151123,627.833069 1318.151123,650.118835 
	C1325.935425,647.596008 1332.627197,644.594055 1339.634399,643.296753 
	C1374.987061,636.751770 1405.921387,644.320984 1428.581787,674.043518 
	C1440.730835,689.978577 1447.007568,708.618042 1448.129639,728.638916 
	C1449.175781,747.304382 1448.324219,765.860657 1440.256470,784.094971 
M1333.069458,790.313782 
	C1354.799805,800.781677 1378.983276,795.587402 1388.983276,776.589661 
	C1401.484375,752.840576 1401.727295,727.985901 1389.224731,704.009521 
	C1380.936401,688.114868 1364.568848,681.160950 1345.077148,684.243103 
	C1328.655518,686.839722 1320.111938,698.187317 1315.803833,713.247375 
	C1311.151001,729.512085 1311.279785,746.016235 1314.845947,762.414856 
	C1317.222290,773.341675 1321.981201,783.123718 1333.069458,790.313782 
z"/>
<path fill="#1E2028" opacity="1.000000" stroke="none" 
	d="
M2488.999023,980.908325 
	C2521.922363,969.230896 2560.581543,974.385803 2584.435791,1000.658569 
	C2600.931885,1018.827332 2608.718018,1040.708008 2610.096191,1064.915161 
	C2611.711426,1093.293091 2606.003418,1119.756470 2587.719238,1142.386719 
	C2569.304199,1165.179077 2544.746826,1173.603149 2516.194824,1171.810791 
	C2501.712402,1170.901489 2488.166504,1166.696289 2475.083252,1157.657593 
	C2474.552002,1161.205444 2474.152588,1163.873413 2473.699219,1166.900391 
	C2459.902344,1166.900391 2446.381348,1166.900391 2432.211914,1166.900391 
	C2432.211914,1084.133911 2432.211914,1001.704285 2432.211914,918.681152 
	C2447.820312,918.681152 2463.601807,918.681152 2480.169922,918.681152 
	C2480.169922,940.386658 2480.169922,961.865601 2480.169922,984.410278 
	C2483.572754,983.123474 2485.939209,982.228516 2488.999023,980.908325 
M2556.379150,1097.048950 
	C2561.445312,1079.295288 2561.239990,1061.748413 2554.236084,1044.495117 
	C2546.256104,1024.836426 2530.520508,1015.771057 2509.310303,1017.882080 
	C2496.162842,1019.190552 2486.826172,1025.633789 2481.560303,1037.422729 
	C2470.982910,1061.103760 2471.888184,1085.183716 2481.155762,1108.924805 
	C2483.086182,1113.869995 2487.390625,1118.469971 2491.703125,1121.802979 
	C2510.460449,1136.300171 2539.774658,1130.100952 2551.303223,1109.531128 
	C2553.235107,1106.083862 2554.520996,1102.274780 2556.379150,1097.048950 
z"/>
<path fill="#1F2028" opacity="1.000000" stroke="none" 
	d="
M1818.267456,1160.906982 
	C1816.771973,1156.692627 1814.952393,1159.290649 1813.686157,1160.078247 
	C1794.962891,1171.724854 1774.505249,1174.277222 1753.285522,1170.733398 
	C1723.197632,1165.708374 1702.711304,1147.497070 1691.289551,1120.167358 
	C1678.381348,1089.280762 1677.933350,1057.342896 1691.613159,1026.443848 
	C1706.260742,993.358398 1731.893799,975.732910 1768.781372,975.160034 
	C1783.648682,974.929138 1797.744995,977.186646 1812.065552,984.787415 
	C1812.065552,962.188721 1812.065552,940.772766 1812.065552,918.728882 
	C1828.390991,918.728882 1843.824829,918.728882 1859.805908,918.728882 
	C1859.805908,1001.245178 1859.805908,1083.672119 1859.805908,1166.707520 
	C1846.238525,1166.707520 1832.748779,1166.707520 1818.881836,1166.707520 
	C1818.675659,1164.896118 1818.493286,1163.295288 1818.267456,1160.906982 
M1760.873291,1126.736206 
	C1762.462280,1127.206909 1764.027588,1127.788696 1765.643677,1128.131836 
	C1786.957642,1132.657715 1809.320801,1125.273438 1815.700806,1096.852783 
	C1819.321777,1080.723755 1819.264893,1064.543335 1815.354126,1048.596191 
	C1811.658325,1033.525513 1803.520508,1021.857544 1787.171265,1018.273621 
	C1765.942017,1013.619873 1745.859619,1024.033325 1738.068970,1044.357422 
	C1730.693848,1063.596802 1730.635742,1083.167603 1737.921997,1102.521729 
	C1741.924316,1113.153198 1748.668579,1121.537231 1760.873291,1126.736206 
z"/>
<path fill="#1F2129" opacity="1.000000" stroke="none" 
	d="
M1989.848145,1172.108276 
	C1959.619141,1171.964844 1934.102783,1162.934204 1914.278931,1140.486328 
	C1903.008911,1127.724609 1895.841553,1112.973999 1893.306641,1096.121704 
	C1888.977539,1067.343384 1891.698120,1039.712158 1908.177856,1014.805542 
	C1925.211304,989.062012 1949.593140,976.030518 1980.297974,975.406677 
	C1990.182373,975.205933 2000.312622,975.817505 2009.968628,977.810547 
	C2037.611328,983.516174 2055.598389,1001.045166 2066.126465,1026.663574 
	C2074.000000,1045.823364 2074.929932,1065.851440 2073.134277,1087.258545 
	C2029.983643,1087.258545 1987.172119,1087.258545 1944.397461,1087.258545 
	C1944.084839,1104.162109 1954.279907,1119.080200 1968.983032,1124.342529 
	C1990.861938,1132.173340 2007.889282,1126.114746 2025.273926,1103.909424 
	C2040.496460,1108.324097 2055.968506,1112.811035 2072.281494,1117.541870 
	C2055.614258,1153.202881 2028.055420,1169.910400 1989.848145,1172.108276 
M2021.733154,1037.894043 
	C2016.112915,1020.708984 1997.922485,1012.632385 1974.623657,1017.872986 
	C1958.665405,1021.462402 1946.609985,1034.901733 1945.714966,1050.627197 
	C1971.729858,1050.627197 1997.744141,1050.627197 2024.847778,1050.627197 
	C2023.766235,1046.302246 2022.910278,1042.879028 2021.733154,1037.894043 
z"/>
<path fill="#1F2028" opacity="1.000000" stroke="none" 
	d="
M2703.458008,1020.678101 
	C2689.478027,1026.102661 2688.440430,1026.996704 2680.120361,1041.078125 
	C2673.343750,1038.933228 2666.222168,1036.657593 2659.086670,1034.426758 
	C2652.154541,1032.259521 2645.207764,1030.138306 2637.698730,1027.821411 
	C2639.835693,1016.148132 2645.988037,1007.292236 2653.154785,999.061707 
	C2664.338379,986.218445 2678.986084,978.735291 2695.389648,976.550659 
	C2716.863525,973.690918 2738.430176,973.890320 2759.395996,981.558777 
	C2781.429199,989.617737 2796.610107,1008.270752 2797.364746,1032.826172 
	C2798.694092,1076.087158 2798.118896,1119.406738 2798.303223,1162.701904 
	C2798.308594,1163.952637 2797.889404,1165.205200 2797.598389,1166.854004 
	C2784.112549,1166.854004 2770.915771,1166.854004 2756.704102,1166.854004 
	C2756.704102,1160.196289 2756.704102,1153.736816 2756.704102,1146.423706 
	C2754.750732,1147.322021 2753.746826,1147.480469 2753.224365,1148.067383 
	C2733.808838,1169.877197 2708.624268,1174.326050 2681.379395,1171.202393 
	C2654.961182,1168.173706 2633.039062,1151.331665 2630.434326,1116.682861 
	C2628.590088,1092.147827 2642.739014,1070.469116 2665.781982,1060.721313 
	C2682.169434,1053.788940 2699.557373,1051.071289 2716.889404,1048.097412 
	C2727.675781,1046.246704 2738.515869,1044.708008 2749.255371,1043.041138 
	C2749.924072,1032.347656 2746.213135,1025.773315 2736.336182,1021.903015 
	C2728.624268,1018.881042 2720.543457,1016.854675 2712.060547,1019.009949 
	C2709.492432,1019.662476 2706.825439,1019.927246 2703.458008,1020.678101 
M2695.496826,1094.126221 
	C2692.545654,1095.647827 2689.311035,1096.794678 2686.700684,1098.767334 
	C2680.872803,1103.171387 2676.693848,1108.876465 2677.798828,1116.606323 
	C2678.928223,1124.506714 2683.536865,1130.214233 2691.433105,1132.098999 
	C2696.852051,1133.392578 2702.603271,1134.262573 2708.131348,1133.959839 
	C2729.334961,1132.798096 2754.923828,1113.442505 2749.064697,1081.193481 
	C2731.653809,1085.333130 2714.301025,1089.458740 2695.496826,1094.126221 
z"/>
<path fill="#1F2028" opacity="1.000000" stroke="none" 
	d="
M2351.239746,1148.440430 
	C2327.754883,1171.189819 2299.950195,1176.241455 2269.597168,1169.608154 
	C2243.394043,1163.881836 2227.496094,1143.155396 2227.797607,1116.382446 
	C2227.886230,1108.500488 2228.658203,1100.337280 2230.881592,1092.825195 
	C2236.392090,1074.206665 2251.012207,1064.551270 2268.231934,1058.415771 
	C2287.097168,1051.693970 2306.879150,1048.959961 2326.591064,1046.031616 
	C2333.095703,1045.065186 2339.567139,1043.876099 2345.969238,1042.803101 
	C2345.184326,1029.376465 2339.735352,1022.812561 2327.511963,1019.965088 
	C2305.019043,1014.725525 2288.902588,1021.218750 2276.234375,1041.086060 
	C2262.296387,1036.699097 2248.175781,1032.254639 2233.479980,1027.629150 
	C2240.816650,1005.226440 2254.004639,988.702332 2275.827637,981.179199 
	C2303.778076,971.543640 2332.119385,972.132446 2359.617920,983.419250 
	C2380.660156,992.056152 2390.778809,1009.275940 2393.590820,1031.150146 
	C2394.392822,1037.389038 2394.303223,1043.765381 2394.314209,1050.079224 
	C2394.376465,1085.400024 2394.343994,1120.720703 2394.343994,1156.041504 
	C2394.343994,1159.347900 2394.343994,1162.654419 2394.343994,1166.636963 
	C2380.332275,1166.636963 2366.888672,1166.636963 2351.991455,1166.636963 
	C2351.991455,1160.528809 2351.991455,1154.646729 2351.239746,1148.440430 
M2341.888428,1082.720459 
	C2329.211670,1085.213867 2316.388184,1087.146729 2303.912842,1090.409668 
	C2296.340088,1092.390015 2289.035156,1095.927856 2282.104492,1099.679810 
	C2275.217285,1103.408447 2273.361084,1110.210815 2274.396973,1117.693237 
	C2275.409668,1125.010620 2279.979248,1129.683960 2286.689453,1131.970703 
	C2313.860840,1141.230591 2350.157471,1121.202881 2346.111084,1084.491699 
	C2346.020752,1083.672363 2344.454590,1083.015747 2341.888428,1082.720459 
z"/>
<path fill="#1E2028" opacity="1.000000" stroke="none" 
	d="
M1967.865479,753.415405 
	C1968.335938,740.253967 1967.731445,727.790344 1969.853516,715.809570 
	C1978.011108,669.754150 2016.463501,640.729370 2060.916016,641.113770 
	C2094.190186,641.401550 2121.189941,652.937805 2140.141357,680.851746 
	C2150.660156,696.345215 2155.666016,713.754150 2156.354736,732.447327 
	C2156.958984,748.850525 2155.728516,765.008301 2149.458740,780.375122 
	C2134.637695,816.699707 2107.013184,835.361450 2068.366211,838.014587 
	C2048.066406,839.408203 2028.611694,835.851013 2011.053833,824.870422 
	C1989.396362,811.326050 1975.858765,791.947815 1970.211182,767.074829 
	C1969.258911,762.880310 1968.754150,758.584167 1967.865479,753.415405 
M2066.419922,686.091553 
	C2064.420410,686.091492 2062.413818,686.200195 2060.422119,686.074402 
	C2041.801392,684.897949 2026.271606,698.405762 2021.649048,714.340332 
	C2016.702881,731.390808 2016.252441,748.301270 2021.866089,765.119995 
	C2026.866943,780.102539 2036.771118,790.217468 2052.908447,792.659729 
	C2071.646729,795.495728 2090.642578,791.404785 2100.268066,768.790283 
	C2108.727295,748.915771 2108.303955,728.580322 2099.701660,708.844788 
	C2093.828613,695.370544 2083.041504,687.644897 2066.419922,686.091553 
z"/>
<path fill="#1F2129" opacity="1.000000" stroke="none" 
	d="
M2464.394531,648.192871 
	C2483.402344,639.546753 2502.838867,639.300415 2521.912842,642.474060 
	C2546.435547,646.554260 2561.645752,662.710999 2569.621582,685.739624 
	C2573.759766,697.687439 2575.662354,710.141602 2575.675293,722.819031 
	C2575.708740,755.809570 2575.685791,788.800171 2575.685303,821.790710 
	C2575.685303,825.107849 2575.685059,828.424988 2575.685059,833.018799 
	C2567.435303,833.125977 2559.587891,833.266479 2551.739746,833.318848 
	C2544.130371,833.369629 2536.520752,833.329834 2528.264893,833.329834 
	C2528.029053,829.745667 2527.680664,826.872742 2527.676025,823.999268 
	C2527.633545,797.673523 2528.084717,771.337219 2527.445801,745.026917 
	C2527.175293,733.884644 2526.034668,722.386169 2522.878662,711.766052 
	C2515.190674,685.893677 2485.787354,677.228088 2464.245361,693.722046 
	C2454.584961,701.118713 2450.814697,711.801758 2449.880615,723.239319 
	C2448.747070,737.114197 2448.555664,751.083618 2448.403809,765.016968 
	C2448.167480,786.674805 2448.313232,808.336853 2448.269043,829.997009 
	C2448.267822,830.638977 2447.953857,831.280334 2447.600830,832.625244 
	C2432.363770,832.625244 2416.932373,832.625244 2400.905273,832.625244 
	C2400.905273,770.635864 2400.905273,708.869446 2400.905273,646.590332 
	C2414.692627,646.590332 2428.177002,646.590332 2442.098145,646.590332 
	C2442.098145,651.875671 2442.098145,656.813049 2442.098145,662.955750 
	C2449.849121,657.756958 2456.769531,653.115112 2464.394531,648.192871 
z"/>
<path fill="#1F2129" opacity="1.000000" stroke="none" 
	d="
M1160.413452,789.198242 
	C1174.791992,780.596619 1179.688843,767.327148 1180.149292,752.587158 
	C1181.135986,721.011230 1181.211670,689.406677 1181.646240,657.813660 
	C1181.695557,654.226624 1181.653198,650.638245 1181.653198,646.589783 
	C1197.885254,646.589783 1213.335205,646.589783 1229.232300,646.589783 
	C1229.232300,708.622314 1229.232300,770.147949 1229.232300,833.058899 
	C1215.854980,833.615295 1202.407837,833.189209 1188.032715,833.354431 
	C1188.032715,827.577698 1188.032715,822.462036 1188.032715,815.785828 
	C1184.625000,818.064636 1182.402832,819.259460 1180.520996,820.855408 
	C1166.171143,833.024597 1149.507568,838.655640 1130.839600,838.022583 
	C1121.250488,837.697388 1111.316528,837.880127 1102.192505,835.413818 
	C1080.201294,829.469604 1066.435547,813.917358 1060.155029,792.594666 
	C1056.732666,780.975708 1054.844360,768.544495 1054.571411,756.427673 
	C1053.828857,723.464905 1054.315063,690.474426 1054.314331,657.494934 
	C1054.314331,654.192810 1054.314453,650.890686 1054.314453,646.249329 
	C1070.161865,645.914246 1085.602417,646.148621 1101.757568,646.086487 
	C1101.974976,649.427551 1102.317993,652.285522 1102.322388,655.144043 
	C1102.363770,681.794067 1102.206909,708.445374 1102.435791,735.093506 
	C1102.500977,742.689941 1103.120850,750.363647 1104.373779,757.853516 
	C1109.468994,788.310364 1130.763428,800.405029 1160.413452,789.198242 
z"/>
<path fill="#1F2129" opacity="1.000000" stroke="none" 
	d="
M2317.659668,828.084473 
	C2317.654541,823.950378 2317.654541,820.681152 2317.654541,816.069275 
	C2314.435303,818.263062 2311.985107,819.667786 2309.837646,821.438904 
	C2295.916748,832.918640 2279.898682,838.138062 2261.941650,838.154236 
	C2249.610596,838.165405 2237.351074,838.291077 2225.674072,833.341675 
	C2207.981934,825.842407 2196.604492,812.404114 2190.831055,794.576416 
	C2187.592529,784.576843 2184.802979,773.938416 2184.607910,763.535278 
	C2183.882812,724.928467 2184.318604,686.299866 2184.318604,646.411255 
	C2192.450928,646.298157 2200.269287,646.148010 2208.088379,646.092407 
	C2215.711914,646.038147 2223.336182,646.080627 2231.726562,646.080627 
	C2231.952148,649.329895 2232.316406,652.173767 2232.321045,655.018127 
	C2232.364502,681.998840 2231.991211,708.986755 2232.529541,735.956787 
	C2232.732910,746.144775 2233.693604,756.681030 2236.580566,766.382629 
	C2244.690918,793.639282 2265.249268,797.194824 2286.817139,790.725220 
	C2298.275879,787.288086 2304.747070,777.938477 2307.475098,766.946960 
	C2309.923340,757.082947 2311.268555,746.733337 2311.472656,736.565369 
	C2312.007568,709.928406 2311.653076,683.273621 2311.653076,656.625916 
	C2311.653076,653.389771 2311.653076,650.153687 2311.653076,646.510254 
	C2327.790771,646.510254 2343.010742,646.510254 2358.958984,646.510254 
	C2358.958984,708.266602 2358.958984,770.046570 2358.958984,833.326904 
	C2353.372559,833.326904 2347.510742,833.328064 2341.648926,833.326477 
	C2335.320068,833.324829 2328.989990,833.248718 2322.662842,833.348022 
	C2319.525146,833.397278 2317.439941,832.568481 2317.659668,828.084473 
z"/>
<path fill="#1F2129" opacity="1.000000" stroke="none" 
	d="
M1536.554810,837.930481 
	C1522.045166,836.153076 1508.638916,833.771790 1496.655884,826.652161 
	C1478.028564,815.585022 1467.586548,799.012207 1463.956665,776.545776 
	C1479.937866,774.031433 1495.765747,771.541199 1512.082764,768.973999 
	C1513.111938,771.517334 1513.916748,773.575623 1514.773071,775.612244 
	C1523.465820,796.287476 1550.205811,801.593811 1567.522705,793.522949 
	C1573.545410,790.715881 1576.731567,785.360046 1576.420654,778.072754 
	C1576.129639,771.254333 1572.292603,767.679443 1566.554932,765.846130 
	C1553.597778,761.706177 1540.400391,758.290649 1527.540771,753.880798 
	C1515.986206,749.918457 1504.336182,745.846497 1493.463745,740.364319 
	C1471.598267,729.339050 1467.887207,710.331482 1470.987061,689.791504 
	C1474.474243,666.685730 1489.593628,652.859680 1511.021362,646.021973 
	C1533.804688,638.751831 1557.108643,638.842590 1579.776855,646.225403 
	C1602.331299,653.570984 1618.104248,668.321960 1623.375610,692.443359 
	C1623.648804,693.694031 1623.410767,695.056458 1623.410767,697.153748 
	C1607.874878,699.940063 1592.320068,702.729797 1577.423218,705.401489 
	C1576.099487,704.469482 1575.179932,704.172546 1575.079224,703.700806 
	C1570.364380,681.610779 1540.595825,678.421753 1526.579956,685.173950 
	C1521.365234,687.686096 1517.803467,691.557556 1517.834229,697.451965 
	C1517.863281,703.008850 1521.285767,706.826538 1526.441406,708.495544 
	C1538.741333,712.477600 1551.170044,716.060364 1563.489990,719.982849 
	C1573.272583,723.097534 1583.091797,726.158386 1592.685425,729.795227 
	C1628.028931,743.193787 1631.366455,774.912903 1621.008301,800.800110 
	C1612.710571,821.537842 1595.053467,831.539612 1574.165283,835.377563 
	C1562.175293,837.580505 1549.721802,837.261780 1536.554810,837.930481 
z"/>
<path fill="#1F2129" opacity="1.000000" stroke="none" 
	d="
M1546.248047,1001.600220 
	C1559.460449,1035.640625 1572.396240,1068.952271 1586.267700,1104.673462 
	C1603.438354,1062.028320 1618.311646,1020.880615 1634.515137,980.298096 
	C1650.406250,980.298096 1665.699829,980.298096 1682.491089,980.298096 
	C1647.381958,1070.085083 1612.542603,1159.181885 1577.531738,1248.717285 
	C1563.085205,1248.717285 1548.891968,1248.717285 1533.474609,1248.717285 
	C1537.251709,1234.236694 1543.290649,1220.708496 1548.122559,1206.806152 
	C1552.918335,1193.008667 1558.058716,1179.330933 1563.262451,1165.010498 
	C1538.516724,1104.078491 1513.586792,1042.692993 1488.347168,980.544678 
	C1505.507690,980.544678 1521.613525,980.544678 1538.233398,980.544678 
	C1540.816895,987.330872 1543.394165,994.101135 1546.248047,1001.600220 
z"/>
<path fill="#1F2028" opacity="1.000000" stroke="none" 
	d="
M2619.595703,804.321777 
	C2601.654053,779.125854 2597.260986,751.539124 2600.971436,722.240601 
	C2602.694092,708.638855 2606.709961,695.660156 2613.952393,683.890259 
	C2630.311035,657.305908 2654.296143,643.160706 2685.305664,641.421265 
	C2694.525391,640.904053 2704.025146,641.276550 2713.094971,642.913208 
	C2747.099854,649.049255 2768.856934,668.867371 2777.866455,703.678040 
	C2762.095459,707.934692 2746.539795,712.133240 2730.513428,716.458801 
	C2728.861084,713.079895 2727.504150,710.139465 2726.006836,707.272339 
	C2717.887939,691.723999 2704.986084,684.641602 2687.585449,686.150513 
	C2671.797607,687.519592 2661.287109,696.169739 2655.705078,710.783752 
	C2648.168457,730.514465 2648.142334,750.274353 2656.366943,769.839294 
	C2664.624756,789.482971 2680.590820,794.801025 2699.229492,793.088379 
	C2711.284180,791.980652 2719.295410,785.103882 2724.891113,774.931702 
	C2726.324219,772.326660 2727.270752,769.454102 2728.926270,765.563721 
	C2744.763428,768.856689 2760.843750,772.200256 2777.572266,775.678528 
	C2769.195557,806.461426 2751.227783,826.754761 2720.802490,834.342163 
	C2687.820312,842.567261 2656.780273,839.258179 2630.132080,815.809998 
	C2626.423340,812.546570 2623.330566,808.582947 2619.595703,804.321777 
z"/>
<path fill="#21232A" opacity="1.000000" stroke="none" 
	d="
M977.643433,934.082520 
	C977.643433,928.476440 977.643433,923.853943 977.643433,918.654236 
	C1045.984009,918.654236 1113.760132,918.654236 1181.934570,918.654236 
	C1181.934570,933.236938 1181.934570,947.452209 1181.934570,962.338928 
	C1173.380615,964.479980 1164.758545,963.056458 1156.265015,963.307007 
	C1147.606323,963.562500 1138.934326,963.363586 1130.268066,963.363586 
	C1121.698730,963.363586 1113.129517,963.363586 1103.848389,963.363586 
	C1103.848389,1031.501831 1103.848389,1098.712891 1103.848389,1166.629883 
	C1087.982422,1166.629883 1072.838257,1166.629883 1056.555176,1166.629883 
	C1056.555176,1099.157837 1056.555176,1031.731934 1056.555176,963.468628 
	C1029.938354,963.468628 1004.434021,963.468628 977.643433,963.468628 
	C977.643433,953.467407 977.643433,944.266785 977.643433,934.082520 
z"/>
<path fill="#22232B" opacity="1.000000" stroke="none" 
	d="
M822.272827,918.068726 
	C834.223450,918.068726 845.210266,918.068726 856.096558,918.068726 
	C858.212036,925.858826 859.120667,1139.762939 857.156616,1167.003906 
	C849.771667,1167.116577 842.254639,1167.276611 834.736755,1167.333130 
	C827.108887,1167.390503 819.480286,1167.345947 812.037231,1167.345947 
	C809.794006,1159.310425 808.883789,944.513000 810.927551,918.068726 
	C814.290466,918.068726 817.799744,918.068726 822.272827,918.068726 
z"/>
<path fill="#22232B" opacity="1.000000" stroke="none" 
	d="
M714.299866,979.999878 
	C714.299866,959.077942 714.299866,939.156006 714.299866,918.655823 
	C730.188538,918.655823 745.331482,918.655823 761.089539,918.655823 
	C761.089539,1001.174500 761.089539,1083.609131 761.089539,1166.695557 
	C745.840637,1166.695557 730.702881,1166.695557 714.299866,1166.695557 
	C714.299866,1104.656128 714.299866,1042.828003 714.299866,979.999878 
z"/>
<path fill="#22232B" opacity="1.000000" stroke="none" 
	d="
M953.697510,1010.000122 
	C953.697510,1062.617920 953.697510,1114.235596 953.697510,1166.598877 
	C938.085083,1166.598877 922.944641,1166.598877 907.047424,1166.598877 
	C907.047424,1084.270996 907.047424,1001.869995 907.047424,918.767822 
	C921.972839,918.767822 937.120300,918.767822 953.697510,918.767822 
	C953.697510,948.664246 953.697510,978.832153 953.697510,1010.000122 
z"/>
<path fill="#1F2129" opacity="1.000000" stroke="none" 
	d="
M2163.509766,1039.677246 
	C2155.910889,1049.273193 2153.589111,1059.721313 2153.641113,1071.032715 
	C2153.771240,1099.362549 2153.682861,1127.693359 2153.682373,1156.023804 
	C2153.682129,1159.321655 2153.682373,1162.619507 2153.682373,1166.618408 
	C2137.645264,1166.618408 2122.186279,1166.618408 2106.184570,1166.618408 
	C2106.184570,1104.615845 2106.184570,1042.816650 2106.184570,980.548584 
	C2119.704834,980.548584 2132.932373,980.548584 2147.332275,980.548584 
	C2147.332275,988.454712 2147.332275,996.518494 2147.332275,1004.582214 
	C2165.585205,982.732544 2188.714111,977.638000 2215.222412,979.850891 
	C2215.222412,994.765442 2215.222412,1008.925598 2215.222412,1023.914490 
	C2195.931641,1022.213684 2177.466309,1022.730652 2163.509766,1039.677246 
z"/>
<path fill="#1C1F27" opacity="1.000000" stroke="none" 
	d="
M988.002991,579.297607 
	C996.312134,579.297607 1003.624084,579.297607 1011.634094,579.297607 
	C1011.634094,663.882690 1011.634094,748.151550 1011.634094,832.862976 
	C996.412842,832.862976 981.584778,832.862976 966.211609,832.862976 
	C966.211609,748.410156 966.211609,664.398743 966.211609,579.297668 
	C973.261902,579.297668 980.133850,579.297668 988.002991,579.297607 
z"/>
<path fill="#1C1F27" opacity="1.000000" stroke="none" 
	d="
M2899.666504,695.999878 
	C2899.666504,656.798645 2899.666504,618.597412 2899.666504,579.849426 
	C2915.242188,579.849426 2930.080566,579.849426 2945.628662,579.849426 
	C2945.628662,663.869690 2945.628662,748.139465 2945.628662,832.858276 
	C2930.429932,832.858276 2915.602051,832.858276 2899.666504,832.858276 
	C2899.666504,787.293579 2899.666504,742.146729 2899.666504,695.999878 
z"/>
<path fill="#202129" opacity="1.000000" stroke="none" 
	d="
M2803.649658,799.996216 
	C2803.649658,748.452698 2803.649658,697.908630 2803.649658,646.722534 
	C2819.497559,646.722534 2834.951416,646.722534 2851.010254,646.722534 
	C2851.010254,708.401611 2851.010254,770.128601 2851.010254,832.592224 
	C2835.739502,832.592224 2820.314453,832.592224 2803.649658,832.592224 
	C2803.649658,822.030701 2803.649658,811.513123 2803.649658,799.996216 
z"/>
<path fill="#22232B" opacity="1.000000" stroke="none" 
	d="
M2851.617920,594.261353 
	C2851.617920,603.495911 2851.617920,611.770508 2851.617920,620.687561 
	C2835.537598,620.687561 2820.104004,620.687561 2804.150879,620.687561 
	C2804.150879,606.938171 2804.150879,593.477173 2804.150879,579.818237 
	C2820.091797,579.818237 2835.598877,579.818237 2851.617920,579.818237 
	C2851.617920,584.697815 2851.617920,588.999573 2851.617920,594.261353 
z"/>
<path fill="#B2B9BB" opacity="1.000000" stroke="none" 
	d="
M898.744873,1559.218506 
	C889.730835,1558.455444 881.344666,1557.119873 872.942383,1555.895386 
	C870.039368,1555.472290 867.096130,1555.325317 864.189270,1555.699219 
	C898.152283,1555.699219 932.115356,1555.699219 967.008423,1555.788574 
	C958.884338,1556.701782 949.844604,1557.937378 940.772827,1558.253296 
	C926.982361,1558.733643 913.169678,1558.576294 898.744873,1559.218506 
z"/>
<path fill="#B2B9BB" opacity="1.000000" stroke="none" 
	d="
M737.883423,57.461548 
	C729.023743,59.393219 720.060303,60.845718 711.096863,62.298222 
	C711.030945,61.901855 710.965027,61.505493 710.899109,61.109131 
	C719.378967,59.341072 727.858887,57.573013 737.177124,55.917786 
	C738.015564,56.030621 737.779602,56.982376 737.883423,57.461548 
z"/>
<path fill="#B2B9BB" opacity="1.000000" stroke="none" 
	d="
M690.613159,1473.214600 
	C684.125427,1471.535522 678.037476,1469.496094 671.949524,1467.456665 
	C672.045532,1467.053711 672.141541,1466.650757 672.237610,1466.247803 
	C679.148682,1467.803223 686.059753,1469.358643 693.534058,1471.401855 
	C693.069153,1472.211182 692.041016,1472.532715 690.613159,1473.214600 
z"/>
<path fill="#B2B9BB" opacity="1.000000" stroke="none" 
	d="
M575.478210,139.750763 
	C570.455078,141.669846 564.992554,143.302277 559.529968,144.934723 
	C559.257629,144.151764 558.985352,143.368820 558.713013,142.585876 
	C563.282166,140.969147 567.851257,139.352417 573.169006,137.811966 
	C574.291321,138.413528 574.665039,138.938812 575.478210,139.750763 
z"/>
<path fill="#FBFBFB" opacity="1.000000" stroke="none" 
	d="
M260.209930,718.222046 
	C255.592651,743.283752 250.191940,768.232300 246.550110,793.434998 
	C241.646805,827.367432 240.596237,861.641113 241.766983,895.889160 
	C243.653351,951.071350 251.237549,1005.464783 265.270569,1058.954468 
	C278.640381,1109.916138 297.011047,1158.956665 320.903656,1205.874146 
	C349.231934,1261.501831 384.000977,1312.785767 425.366760,1359.625854 
	C475.489532,1416.381714 532.779236,1464.523438 597.478210,1503.797607 
	C651.698425,1536.710938 709.262329,1562.138916 770.143250,1580.048828 
	C811.676636,1592.267334 853.938599,1600.786621 896.950989,1605.612793 
	C929.693359,1609.286621 962.565857,1611.181396 995.472778,1609.891479 
	C1016.987854,1609.048218 1038.430176,1606.347290 1059.904785,1604.473999 
	C1064.098389,1604.108276 1068.290161,1603.722778 1072.482788,1603.346436 
	C1072.606689,1604.091675 1072.730713,1604.836914 1072.854614,1605.582031 
	C1057.759766,1608.898560 1042.784546,1612.982910 1027.543091,1615.358521 
	C1002.330505,1619.288574 976.999634,1622.627075 951.620911,1625.281250 
	C919.813599,1628.607666 888.012268,1626.809937 856.158203,1624.331543 
	C821.623596,1621.644775 787.581177,1616.328613 753.963684,1608.359375 
	C646.351807,1582.849487 550.175171,1534.377319 465.835236,1462.867676 
	C394.209473,1402.137695 337.103790,1329.866699 294.761017,1245.866089 
	C268.604614,1193.976318 249.218613,1139.771729 236.768677,1083.121338 
	C230.363342,1053.975464 225.375351,1024.516357 223.674347,994.633850 
	C222.449448,973.115906 220.103363,951.555298 220.603485,930.068298 
	C221.575058,888.325867 224.774338,846.723511 233.074097,805.607483 
	C239.384308,774.347351 246.995300,743.505310 258.373199,713.014771 
	C259.600891,714.509399 259.905426,716.365723 260.209930,718.222046 
z"/>
<path fill="#FBFBFB" opacity="1.000000" stroke="none" 
	d="
M1024.071411,272.044922 
	C993.713684,264.768585 963.196716,258.206451 932.135437,254.844910 
	C912.359619,252.704742 892.481201,250.637360 872.622803,250.354080 
	C847.044495,249.989197 821.346802,250.290909 795.867004,252.357727 
	C746.486145,256.363312 697.863953,265.115417 650.217102,279.105591 
	C548.995422,308.826447 458.209686,357.724335 377.958252,426.209473 
	C323.745270,472.473846 276.971802,525.285706 238.031586,584.991394 
	C196.728989,648.319336 165.908005,716.392029 145.564896,789.231995 
	C134.123169,830.199951 125.888741,871.794006 122.326218,914.154236 
	C120.074089,940.933289 119.191338,967.851746 118.498047,994.728455 
	C118.088364,1010.610657 119.245590,1026.533325 119.704834,1043.830933 
	C119.859619,1045.542114 120.007736,1045.860352 120.155861,1046.178711 
	C120.214561,1047.551636 120.273262,1048.924683 120.145988,1051.480347 
	C120.371170,1053.168457 120.782318,1053.673950 121.193481,1054.179321 
	C121.347458,1054.981079 121.501427,1055.782715 121.016861,1057.225464 
	C119.621193,1057.898315 118.864067,1057.930176 118.106949,1057.962036 
	C114.182739,1036.462402 109.547005,1015.062378 106.520981,993.437134 
	C103.025215,968.454773 101.409447,943.240723 101.669579,917.968567 
	C102.617149,825.911865 120.275780,737.216675 156.040619,652.333496 
	C183.981659,586.019043 221.440262,525.366760 268.485168,470.959839 
	C325.576477,404.934296 392.426300,350.888763 469.765991,309.898834 
	C532.819275,276.480713 599.384644,253.316147 669.450500,240.560730 
	C694.528564,235.995300 720.108459,234.114853 745.494751,231.332397 
	C774.340637,228.170792 803.318665,228.581223 832.192078,230.235291 
	C884.392273,233.225693 935.765503,241.707520 985.985413,256.495117 
	C999.042419,260.339844 1011.872070,264.956482 1025.332886,270.068054 
	C1025.263550,271.293365 1024.667480,271.669159 1024.071411,272.044922 
z"/>
<path fill="#F9FAFA" opacity="1.000000" stroke="none" 
	d="
M943.894897,1673.757812 
	C913.913513,1677.734009 883.839966,1680.382568 853.558716,1680.114502 
	C810.628418,1679.734497 768.056519,1675.673950 725.877502,1667.644409 
	C675.103821,1657.978882 626.090515,1642.646606 578.755310,1621.895508 
	C512.492004,1592.846680 452.371704,1554.278931 398.107269,1506.401611 
	C347.377167,1461.642578 304.290649,1410.502686 268.477997,1353.186035 
	C232.306992,1295.295776 205.481720,1233.341431 187.756104,1167.405518 
	C178.789749,1134.052490 172.451874,1100.208740 168.421478,1065.955322 
	C164.416138,1031.914673 162.688156,997.636536 164.634094,963.460266 
	C166.154572,936.756042 170.557373,910.215942 174.452362,882.707764 
	C176.041718,881.915405 176.858139,882.018188 177.674576,882.121033 
	C177.012756,905.015625 175.878433,927.908264 175.786469,950.805115 
	C175.588593,1000.070374 182.311646,1048.612183 192.887817,1096.618896 
	C203.696091,1145.679077 219.693436,1193.100464 240.405945,1238.843750 
	C266.017334,1295.405884 298.459351,1347.842651 337.319763,1396.296997 
	C357.728577,1421.744507 379.619385,1445.863403 403.277100,1468.288086 
	C452.490845,1514.937012 506.882538,1554.426880 566.826355,1586.345581 
	C617.762329,1613.468140 671.108459,1634.114868 726.861328,1648.772705 
	C760.943237,1657.732910 795.529968,1663.870239 830.498535,1668.038330 
	C865.577637,1672.219604 900.795532,1672.471924 937.613403,1672.113037 
	C940.753174,1672.723877 942.324036,1673.240845 943.894897,1673.757812 
z"/>
<path fill="#F9FAFA" opacity="1.000000" stroke="none" 
	d="
M874.005676,187.954651 
	C860.439758,187.067795 846.878601,186.099289 833.306641,185.317612 
	C820.386841,184.573517 807.444458,183.331421 794.532349,183.544617 
	C772.623291,183.906342 750.647644,184.360123 728.853027,186.405579 
	C705.774475,188.571487 682.768311,192.029358 659.917603,195.999390 
	C606.434387,205.291397 554.787170,221.035889 504.896240,242.394913 
	C439.726471,270.295044 379.677582,306.665253 325.012177,351.873749 
	C272.187653,395.559753 226.133759,445.436829 187.062469,501.788971 
	C146.464523,560.343079 114.991478,623.471191 92.697586,691.075378 
	C79.290840,731.730103 69.085335,773.264648 63.827827,815.826233 
	C61.191414,837.169189 59.118843,858.618896 57.849800,880.082947 
	C56.634338,900.640686 56.789127,921.279419 55.987572,943.184937 
	C55.376980,945.148621 54.918907,945.609619 54.259247,945.870239 
	C52.722736,926.408997 51.012432,906.959290 49.714100,887.482178 
	C48.919933,875.568420 47.836277,863.561829 48.490479,851.685425 
	C50.255997,819.634277 52.281517,787.635254 57.398426,755.810303 
	C65.601128,704.793030 79.020508,655.347168 98.217720,607.453552 
	C126.131226,537.814392 164.375366,474.326477 213.008041,417.200073 
	C277.473145,341.476227 354.561401,282.075104 444.383118,239.268219 
	C494.646851,215.313721 547.076355,197.602783 601.630737,186.793320 
	C627.927612,181.582825 654.685730,178.432755 681.361511,175.499802 
	C698.152527,173.653687 715.174866,173.848160 732.098633,173.284958 
	C779.357544,171.712341 826.037170,176.755737 873.254211,186.402878 
	C874.148499,187.044464 874.005676,187.954651 874.005676,187.954651 
z"/>
<path fill="#B2B9BB" opacity="1.000000" stroke="none" 
	d="
M260.580261,717.566284 
	C259.905426,716.365723 259.600891,714.509399 258.655670,712.334412 
	C260.617798,700.468140 265.155853,689.690063 270.765350,679.364075 
	C267.493744,691.879578 264.222137,704.395081 260.580261,717.566284 
z"/>
<path fill="#B2B9BB" opacity="1.000000" stroke="none" 
	d="
M118.014412,1058.775391 
	C118.864067,1057.930176 119.621193,1057.898315 120.949234,1057.842163 
	C123.537605,1069.170410 125.555054,1080.522949 127.572495,1091.875610 
	C127.090225,1091.988403 126.607964,1092.101196 126.125694,1092.213989 
	C123.391090,1081.338867 120.656487,1070.463867 118.014412,1058.775391 
z"/>
<path fill="#B2B9BB" opacity="1.000000" stroke="none" 
	d="
M178.036621,881.335815 
	C176.858139,882.018188 176.041718,881.915405 174.615662,881.910522 
	C176.059357,870.158875 178.112701,858.309326 180.166031,846.459778 
	C180.907928,846.564880 181.649826,846.670044 182.391724,846.775146 
	C181.060699,858.033630 179.729691,869.292175 178.036621,881.335815 
z"/>
<path fill="#B2B9BB" opacity="1.000000" stroke="none" 
	d="
M54.115585,946.703003 
	C54.918907,945.609619 55.376980,945.148621 55.955280,944.104248 
	C56.875244,945.551636 57.818409,947.346130 58.013096,949.218567 
	C58.966766,958.390442 59.721138,967.583130 60.024525,977.605164 
	C58.991512,978.334900 58.479908,978.227844 57.968307,978.120850 
	C56.636177,967.925842 55.304050,957.730835 54.115585,946.703003 
z"/>
<path fill="#B2B9BB" opacity="1.000000" stroke="none" 
	d="
M944.721191,1673.837891 
	C942.324036,1673.240845 940.753174,1672.723877 938.542847,1672.049561 
	C946.561890,1670.730347 955.220459,1669.568359 963.879028,1668.406372 
	C964.032043,1669.032471 964.185059,1669.658569 964.338074,1670.284668 
	C961.298218,1670.972412 958.273254,1671.737061 955.214539,1672.326660 
	C952.009094,1672.944702 948.771240,1673.394531 944.721191,1673.837891 
z"/>
<path fill="#B2B9BB" opacity="1.000000" stroke="none" 
	d="
M1024.677734,272.417175 
	C1024.667480,271.669159 1025.263550,271.293365 1025.972046,270.401367 
	C1031.141968,271.367981 1036.199585,272.850800 1041.257080,274.333618 
	C1041.048828,275.110931 1040.840576,275.888245 1040.632324,276.665558 
	C1035.516235,275.373505 1030.400269,274.081451 1024.677734,272.417175 
z"/>
<path fill="#B2B9BB" opacity="1.000000" stroke="none" 
	d="
M874.657227,188.359222 
	C874.005676,187.954651 874.148499,187.044464 874.040649,186.596619 
	C879.092651,186.880768 884.252441,187.612793 889.412231,188.344803 
	C889.380920,188.947220 889.349609,189.549622 889.318298,190.152039 
	C884.648438,189.689285 879.978638,189.226532 874.657227,188.359222 
z"/>
<path fill="#22232B" opacity="1.000000" stroke="none" 
	d="
M57.984955,978.909241 
	C58.479908,978.227844 58.991512,978.334900 60.287071,978.488770 
	C61.740631,983.325623 62.410229,988.115601 63.079830,992.905518 
	C62.428589,992.997864 61.777348,993.090271 61.126110,993.182617 
	C60.084606,988.687622 59.043102,984.192627 57.984955,978.909241 
z"/>
<path fill="#B2B9BB" opacity="1.000000" stroke="none" 
	d="
M983.807190,1667.338867 
	C978.699402,1668.223511 974.259460,1668.941040 969.819519,1669.658569 
	C969.765259,1669.190918 969.710999,1668.723145 969.656738,1668.255371 
	C974.596130,1667.894287 979.535583,1667.533203 983.807190,1667.338867 
z"/>
<path fill="#B2B9BB" opacity="1.000000" stroke="none" 
	d="
M1088.053589,1601.321777 
	C1084.703613,1602.137939 1081.945801,1602.726685 1079.188110,1603.315552 
	C1079.123413,1602.802368 1079.058716,1602.289307 1078.993896,1601.776123 
	C1082.211182,1601.548828 1085.428589,1601.321533 1088.053589,1601.321777 
z"/>
<path fill="#B2B9BB" opacity="1.000000" stroke="none" 
	d="
M121.279373,1053.702393 
	C120.782318,1053.673950 120.371170,1053.168457 120.118919,1052.167969 
	C120.862953,1052.034546 121.225441,1052.552124 121.279373,1053.702393 
z"/>
<path fill="#B2B9BB" opacity="1.000000" stroke="none" 
	d="
M120.388657,1045.954712 
	C120.007736,1045.860352 119.859619,1045.542114 119.792931,1044.703735 
	C120.538216,1044.470459 120.787239,1044.986206 120.388657,1045.954712 
z"/>
<path fill="#FCFCFC" opacity="1.000000" stroke="none" 
	d="
M2877.707764,1058.159424 
	C2879.781250,1051.385864 2881.203857,1045.164795 2883.957764,1039.602539 
	C2891.783936,1023.794678 2907.390137,1015.724792 2925.034180,1017.665894 
	C2942.579590,1019.596130 2953.264160,1029.002930 2958.272461,1047.071655 
	C2963.263184,1065.076904 2962.888672,1083.120117 2957.976807,1101.037964 
	C2953.471924,1117.470825 2942.043701,1127.719604 2925.648438,1129.143066 
	C2905.366211,1130.904297 2892.691650,1124.271729 2884.554443,1109.170044 
	C2876.071045,1093.425659 2874.456787,1076.489258 2877.707764,1058.159424 
z"/>
<path fill="#FCFCFC" opacity="1.000000" stroke="none" 
	d="
M1332.398193,789.978455 
	C1321.981201,783.123718 1317.222290,773.341675 1314.845947,762.414856 
	C1311.279785,746.016235 1311.151001,729.512085 1315.803833,713.247375 
	C1320.111938,698.187317 1328.655518,686.839722 1345.077148,684.243103 
	C1364.568848,681.160950 1380.936401,688.114868 1389.224731,704.009521 
	C1401.727295,727.985901 1401.484375,752.840576 1388.983276,776.589661 
	C1378.983276,795.587402 1354.799805,800.781677 1332.398193,789.978455 
z"/>
<path fill="#FCFCFC" opacity="1.000000" stroke="none" 
	d="
M2556.242432,1097.840942 
	C2554.520996,1102.274780 2553.235107,1106.083862 2551.303223,1109.531128 
	C2539.774658,1130.100952 2510.460449,1136.300171 2491.703125,1121.802979 
	C2487.390625,1118.469971 2483.086182,1113.869995 2481.155762,1108.924805 
	C2471.888184,1085.183716 2470.982910,1061.103760 2481.560303,1037.422729 
	C2486.826172,1025.633789 2496.162842,1019.190552 2509.310303,1017.882080 
	C2530.520508,1015.771057 2546.256104,1024.836426 2554.236084,1044.495117 
	C2561.239990,1061.748413 2561.445312,1079.295288 2556.242432,1097.840942 
z"/>
<path fill="#FCFCFC" opacity="1.000000" stroke="none" 
	d="
M1760.168945,1126.410889 
	C1748.668579,1121.537231 1741.924316,1113.153198 1737.921997,1102.521729 
	C1730.635742,1083.167603 1730.693848,1063.596802 1738.068970,1044.357422 
	C1745.859619,1024.033325 1765.942017,1013.619873 1787.171265,1018.273621 
	C1803.520508,1021.857544 1811.658325,1033.525513 1815.354126,1048.596191 
	C1819.264893,1064.543335 1819.321777,1080.723755 1815.700806,1096.852783 
	C1809.320801,1125.273438 1786.957642,1132.657715 1765.643677,1128.131836 
	C1764.027588,1127.788696 1762.462280,1127.206909 1760.168945,1126.410889 
z"/>
<path fill="#F9FAFA" opacity="1.000000" stroke="none" 
	d="
M2021.893799,1038.674927 
	C2022.910278,1042.879028 2023.766235,1046.302246 2024.847778,1050.627197 
	C1997.744141,1050.627197 1971.729858,1050.627197 1945.714966,1050.627197 
	C1946.609985,1034.901733 1958.665405,1021.462402 1974.623657,1017.872986 
	C1997.922485,1012.632385 2016.112915,1020.708984 2021.893799,1038.674927 
z"/>
<path fill="#F9FAFA" opacity="1.000000" stroke="none" 
	d="
M2696.222656,1093.855347 
	C2714.301025,1089.458740 2731.653809,1085.333130 2749.064697,1081.193481 
	C2754.923828,1113.442505 2729.334961,1132.798096 2708.131348,1133.959839 
	C2702.603271,1134.262573 2696.852051,1133.392578 2691.433105,1132.098999 
	C2683.536865,1130.214233 2678.928223,1124.506714 2677.798828,1116.606323 
	C2676.693848,1108.876465 2680.872803,1103.171387 2686.700684,1098.767334 
	C2689.311035,1096.794678 2692.545654,1095.647827 2696.222656,1093.855347 
z"/>
<path fill="#FBFBFB" opacity="1.000000" stroke="none" 
	d="
M2342.732666,1082.501953 
	C2344.454590,1083.015747 2346.020752,1083.672363 2346.111084,1084.491699 
	C2350.157471,1121.202881 2313.860840,1141.230591 2286.689453,1131.970703 
	C2279.979248,1129.683960 2275.409668,1125.010620 2274.396973,1117.693237 
	C2273.361084,1110.210815 2275.217285,1103.408447 2282.104492,1099.679810 
	C2289.035156,1095.927856 2296.340088,1092.390015 2303.912842,1090.409668 
	C2316.388184,1087.146729 2329.211670,1085.213867 2342.732666,1082.501953 
z"/>
<path fill="#FCFCFC" opacity="1.000000" stroke="none" 
	d="
M2067.299561,686.092407 
	C2083.041504,687.644897 2093.828613,695.370544 2099.701660,708.844788 
	C2108.303955,728.580322 2108.727295,748.915771 2100.268066,768.790283 
	C2090.642578,791.404785 2071.646729,795.495728 2052.908447,792.659729 
	C2036.771118,790.217468 2026.866943,780.102539 2021.866089,765.119995 
	C2016.252441,748.301270 2016.702881,731.390808 2021.649048,714.340332 
	C2026.271606,698.405762 2041.801392,684.897949 2060.422119,686.074402 
	C2062.413818,686.200195 2064.420410,686.091492 2067.299561,686.092407 
z"/>
</svg>