<svg version="1.1" id="Layer_1" xmlns="http://www.w3.org/2000/svg" xmlns:xlink="http://www.w3.org/1999/xlink" x="0px" y="0px"
	 width="100%" viewBox="-5 -5 1475 1735" enable-background="new 0 0 3000 1723" xml:space="preserve">
<path fill="#813FB3" opacity="1.000000" stroke="none" 
	d="
M898.110657,1559.728638 
	C946.099365,1565.946289 994.353882,1563.537231 1044.079468,1564.646729 
	C1055.262207,1564.854980 1064.881348,1564.638916 1074.497314,1564.325195 
	C1095.099731,1563.653198 1115.701050,1562.950439 1136.301636,1562.224243 
	C1169.912476,1561.039185 1203.159790,1556.728882 1236.034546,1549.806641 
	C1278.284546,1540.910522 1318.549927,1526.632690 1355.659790,1504.160034 
	C1362.457275,1500.043823 1369.364258,1496.108643 1376.220703,1492.089844 
	C1373.044189,1500.366089 1366.191162,1505.814575 1360.280396,1511.763550 
	C1323.619873,1548.661987 1283.262451,1581.060547 1239.634521,1609.374878 
	C1186.399170,1643.924316 1129.682129,1671.271729 1069.358887,1690.996460 
	C1021.541931,1706.631592 972.663696,1717.446411 922.499023,1722.098389 
	C918.212952,1722.495605 913.939880,1723.032715 907.994080,1723.717285 
	C902.218262,1724.619751 898.109131,1725.309814 894.000000,1726.000000 
	C869.291565,1726.000000 844.583069,1726.000000 818.487976,1725.320312 
	C812.071716,1724.410889 807.042175,1724.181396 801.163818,1723.726807 
	C789.426453,1722.380005 778.533203,1721.300659 767.649902,1720.129272 
	C720.557068,1715.061279 674.673523,1704.448242 629.608093,1690.051880 
	C576.814941,1673.186890 526.655884,1650.481812 479.117615,1622.031250 
	C437.614838,1597.192749 398.927032,1568.577271 362.897064,1536.227905 
	C329.890442,1506.592773 299.888611,1474.293823 272.820709,1439.211670 
	C263.900146,1427.649902 255.075089,1416.014282 246.204880,1403.694092 
	C244.748901,1401.331177 243.294434,1399.686890 241.911194,1398.084473 
	C241.982437,1398.126465 241.905640,1398.272827 242.000000,1397.546875 
	C241.326553,1395.361328 240.665131,1393.833252 239.775406,1392.452271 
	C211.401917,1348.411377 187.133926,1302.276367 168.392899,1253.286133 
	C154.948059,1218.140625 143.461029,1182.499268 137.541229,1145.168213 
	C134.531525,1126.188599 130.117386,1107.431885 126.359131,1087.658569 
	C125.599358,1080.364380 124.818581,1073.985840 123.995346,1066.845215 
	C123.341820,1062.667847 122.730751,1059.252686 122.038437,1055.491943 
	C121.957191,1055.146484 121.976181,1054.436890 122.033958,1053.462646 
	C121.921082,1038.991821 121.750420,1025.495117 121.743233,1011.098633 
	C122.501297,1002.242554 123.274277,994.295044 123.659752,986.328796 
	C125.380974,950.757996 129.784088,915.507690 135.775101,880.421753 
	C146.398026,818.209534 163.256119,757.846130 188.717041,699.995789 
	C222.568008,623.082336 269.033875,555.269531 332.845306,499.930756 
	C362.946564,473.826233 395.674164,451.754303 431.939697,435.110535 
	C435.146362,433.638885 438.800598,433.142487 442.246948,432.193115 
	C441.520172,434.176819 441.259888,436.541199 439.997681,438.088013 
	C415.344604,468.299957 393.515198,500.422638 374.223206,534.300720 
	C350.610229,575.766785 332.063416,619.401855 317.822479,664.911560 
	C307.393585,698.239258 299.976410,732.270691 294.769501,766.748169 
	C292.297150,783.118896 290.698761,799.686157 289.855255,816.223083 
	C288.602905,840.774048 287.857025,865.376404 287.823425,889.958191 
	C287.768372,930.230042 292.984650,970.023865 300.837189,1009.457214 
	C314.107635,1076.097656 337.153503,1139.286743 369.183075,1199.157959 
	C389.448212,1237.038452 413.065186,1272.758911 440.269501,1306.061157 
	C441.094238,1307.070557 441.727631,1308.236328 443.245117,1310.270996 
	C444.727051,1311.470825 445.414093,1311.728882 446.101135,1311.986938 
	C446.101135,1311.986938 445.993805,1312.004150 445.934845,1312.659180 
	C446.540466,1314.454712 447.059906,1315.715210 447.890625,1316.717896 
	C482.908234,1358.992798 522.639221,1396.364624 566.757080,1428.915283 
	C645.483521,1487.000366 732.482971,1527.298950 828.193176,1548.276367 
	C842.116943,1551.328003 856.268250,1553.341797 871.093811,1555.925415 
	C880.619141,1557.252808 889.364929,1558.490723 898.110657,1559.728638 
M176.760727,893.542908 
	C177.074966,893.042480 177.143951,892.510193 177.551453,890.396057 
	C177.584396,887.632751 177.617340,884.869446 178.244705,880.491882 
	C179.592346,869.554077 180.939987,858.616272 182.287613,847.678528 
	C181.504944,847.579102 180.722275,847.479736 179.939606,847.380310 
	C177.959595,858.914429 175.979584,870.448608 173.697113,883.581970 
	C172.801590,889.147461 171.654068,894.685974 171.054947,900.283203 
	C168.692703,922.351807 165.397095,944.394165 164.501053,966.529297 
	C163.061951,1002.080139 165.158524,1037.556152 169.478500,1072.956665 
	C174.970337,1117.960083 184.829926,1161.915649 198.917770,1204.914062 
	C215.765335,1256.335693 238.499023,1305.113159 267.066986,1351.082031 
	C294.011383,1394.438232 325.166412,1434.553955 360.841309,1471.125366 
	C389.014832,1500.006714 419.621429,1526.048584 452.247040,1549.737671 
	C492.511993,1578.973877 535.603394,1603.307617 581.248047,1623.034180 
	C626.846436,1642.740845 673.991089,1657.539917 722.826843,1667.007935 
	C763.710022,1674.934082 804.930237,1679.203735 846.525635,1680.062012 
	C879.162170,1680.735596 911.605530,1678.203735 945.588440,1673.864136 
	C956.925293,1671.933350 968.262085,1670.002441 979.598938,1668.071655 
	C974.190918,1667.194214 969.024048,1667.682495 963.874451,1668.311523 
	C955.105103,1669.382935 946.346558,1670.542969 935.770813,1671.871338 
	C904.152588,1672.515625 872.574585,1672.122437 841.064697,1668.959106 
	C802.975342,1665.135132 765.297913,1658.876831 728.280884,1649.167480 
	C683.838501,1637.510254 640.703125,1622.176758 599.091980,1602.488525 
	C555.641418,1581.929932 514.539368,1557.547485 475.898254,1529.023926 
	C438.350586,1501.307617 403.148651,1470.892456 372.100311,1435.948608 
	C356.663422,1418.574951 341.339935,1401.039307 327.004089,1382.761963 
	C300.264557,1348.670654 277.360565,1312.030762 257.393127,1273.565796 
	C239.589493,1239.269043 224.424774,1203.812012 212.392105,1167.127686 
	C199.243546,1127.041504 189.212982,1086.158203 183.321640,1044.279175 
	C179.295364,1015.658142 176.049896,986.999634 175.789490,958.091797 
	C175.597580,936.785950 176.048126,915.474304 176.760727,893.542908 
M263.621887,695.439270 
	C250.368683,731.363220 240.464645,768.165405 233.026672,805.751404 
	C224.809555,847.274719 222.022247,889.249207 220.405228,931.367920 
	C220.063263,940.275330 221.208755,949.241028 221.691513,958.178650 
	C222.336060,970.111633 223.030396,982.041992 223.654343,993.976074 
	C225.219864,1023.919189 230.310562,1053.394897 236.628632,1082.593018 
	C252.436386,1155.646240 279.770111,1224.304810 318.023499,1288.483398 
	C360.160645,1359.177979 413.307861,1420.457764 477.240479,1472.365112 
	C529.501953,1514.796509 586.774353,1548.698242 648.972595,1574.433350 
	C686.566162,1589.987793 725.216919,1601.814209 764.906189,1610.799072 
	C810.821350,1621.193359 857.351624,1625.799316 904.200928,1627.103271 
	C924.714294,1627.674194 945.335205,1625.513062 965.867188,1624.035278 
	C1001.781677,1621.450562 1036.941528,1614.301636 1073.331543,1605.619141 
	C1078.332031,1604.131348 1083.332642,1602.643677 1088.333130,1601.155884 
	C1088.228394,1600.671997 1088.123657,1600.188110 1088.018799,1599.704224 
	C1080.662720,1601.134155 1073.306519,1602.563965 1064.268921,1604.050537 
	C1047.767334,1605.805176 1031.304321,1608.219116 1014.756775,1609.184692 
	C973.493164,1611.592407 932.270935,1610.022827 891.260742,1605.049194 
	C850.286255,1600.079834 809.946106,1591.789551 770.306030,1580.094849 
	C729.376038,1568.019653 689.784607,1552.537354 651.589600,1533.614258 
	C620.555908,1518.239014 590.819214,1500.571655 562.208069,1480.980469 
	C517.804321,1450.575562 477.318726,1415.582153 440.532623,1376.435059 
	C409.982208,1343.923828 382.544495,1308.856079 358.473755,1271.187744 
	C333.692963,1232.408081 312.456390,1191.836304 295.159637,1149.193359 
	C278.621796,1108.421387 265.928772,1066.462646 256.837677,1023.441345 
	C249.209549,987.343262 244.345367,950.784119 242.532822,913.972412 
	C241.061676,884.094543 240.835632,854.154968 243.512375,824.212830 
	C245.672012,800.054810 248.563797,776.052917 253.334534,752.301880 
	C257.252014,732.798767 261.756256,713.413452 266.853851,693.028748 
	C267.493347,690.576904 268.132843,688.125061 268.772308,685.673218 
	C268.165009,685.526978 267.557678,685.380737 266.950378,685.234436 
	C266.020172,688.182129 265.089966,691.129761 263.621887,695.439270 
z"/>
<path fill="#21C3BE" opacity="1.000000" stroke="none" 
	d="
M442.196991,432.128662 
	C438.800598,433.142487 435.146362,433.638885 431.939697,435.110535 
	C395.674164,451.754303 362.946564,473.826233 332.845306,499.930756 
	C269.033875,555.269531 222.568008,623.082336 188.717041,699.995789 
	C163.256119,757.846130 146.398026,818.209534 135.775101,880.421753 
	C129.784088,915.507690 125.380974,950.757996 123.659752,986.328796 
	C123.274277,994.295044 122.501297,1002.242554 121.232422,1011.098511 
	C119.874535,1011.995850 119.190933,1011.993469 118.215271,1011.092957 
	C118.515747,992.261658 118.823997,974.313354 119.780098,956.399597 
	C120.752754,938.175781 122.097412,919.961731 123.755470,901.786804 
	C126.446266,872.291443 132.056717,843.255371 139.022034,814.511780 
	C153.899597,753.117126 176.273193,694.584351 206.207626,638.892029 
	C236.318619,582.871216 273.037933,531.600891 316.373535,485.168854 
	C346.153229,453.261322 378.465881,424.032104 413.459015,397.812622 
	C454.100250,367.361115 497.326233,341.193939 543.257507,319.628723 
	C600.109863,292.935883 659.476685,273.766357 721.293823,262.483734 
	C762.857239,254.897751 804.781555,250.483612 847.064026,250.336578 
	C862.675781,250.282272 878.323853,250.705322 893.895813,251.776642 
	C911.433472,252.983200 929.025269,254.393280 946.373840,257.115204 
	C969.648926,260.766937 992.713318,265.761597 1016.470581,270.617432 
	C1025.388550,272.688995 1033.704102,274.322815 1042.245361,276.460266 
	C1043.504395,277.053711 1044.537720,277.143494 1045.571167,277.233276 
	C1045.582275,276.983398 1045.593384,276.733551 1045.604492,276.483704 
	C1044.380493,276.340973 1043.156616,276.198273 1041.462646,275.537231 
	C1034.679199,272.806335 1028.365723,270.593750 1021.347168,268.086426 
	C1011.793030,264.903748 1002.984253,261.885101 994.088562,259.149261 
	C941.452087,242.961380 887.507935,233.627792 832.635132,230.470261 
	C795.446533,228.330322 758.220581,229.436295 721.069702,233.479813 
	C687.970764,237.082291 655.242554,242.591675 623.060181,250.851959 
	C569.708252,264.545837 518.589417,284.190033 469.885498,310.112305 
	C397.774353,348.492828 334.506622,398.064362 279.791809,458.678009 
	C229.413605,514.487549 189.287354,576.827271 159.201187,645.742920 
	C121.443466,732.231140 103.017181,822.745300 101.703018,916.920837 
	C101.345329,942.553406 102.962189,968.121399 106.499680,993.457703 
	C109.524971,1015.125732 114.192970,1036.564331 118.065239,1058.889160 
	C120.776756,1069.307373 123.557457,1078.940796 126.338135,1088.574341 
	C130.117386,1107.431885 134.531525,1126.188599 137.541229,1145.168213 
	C143.461029,1182.499268 154.948059,1218.140625 168.392899,1253.286133 
	C187.133926,1302.276367 211.401917,1348.411377 239.775406,1392.452271 
	C240.665131,1393.833252 241.326553,1395.361328 241.336304,1397.934570 
	C238.091339,1396.864624 235.503479,1394.784912 233.133286,1392.481323 
	C210.225555,1370.217041 189.357040,1346.156860 169.595093,1321.069580 
	C126.380043,1266.209595 90.483734,1206.930664 62.774330,1142.869019 
	C34.562630,1077.646240 14.999655,1009.948181 7.533138,939.026123 
	C6.712312,931.229370 5.215633,923.503723 4.112646,914.952515 
	C3.461914,910.773315 2.730959,907.386658 2.000002,904.000000 
	C2.000000,878.624878 2.000000,853.249756 2.700970,826.517700 
	C3.712570,820.219299 4.023201,815.277771 4.854944,809.671692 
	C8.373429,783.990845 10.164617,758.758850 14.593239,733.998596 
	C28.143145,658.241394 52.969437,586.269897 89.424484,518.349243 
	C127.968651,446.536316 176.569046,382.520508 236.307846,327.013031 
	C244.572815,319.333466 252.751709,311.561340 261.597534,303.787292 
	C274.111938,295.222717 285.720947,286.279388 297.933746,278.255035 
	C356.680634,239.655701 421.094391,214.076218 488.703705,195.961823 
	C550.598267,179.378571 613.692505,169.794205 677.561462,166.654617 
	C721.745300,164.482681 766.054321,164.245544 810.242065,169.506119 
	C846.307007,173.799652 881.866333,180.149673 916.910095,189.676682 
	C1032.839600,221.193298 1133.324341,279.671204 1219.444214,363.074585 
	C1247.002808,389.763733 1271.729004,419.020782 1294.429810,449.952454 
	C1296.695801,453.039917 1298.050659,456.796021 1299.828247,460.241821 
	C1297.326172,459.184631 1294.416016,458.633331 1292.383545,456.993927 
	C1264.366943,434.395813 1234.884033,413.909302 1203.989868,395.469025 
	C1133.401611,353.335907 1058.049927,323.452850 977.230042,307.765808 
	C950.485474,302.574707 923.591125,298.389801 896.295105,297.677734 
	C872.383179,297.053894 848.394348,295.348785 824.561096,296.544922 
	C767.360840,299.415558 711.128784,308.681213 656.187256,325.419250 
	C618.860779,336.790863 582.693115,351.009705 547.813171,368.358582 
	C512.605896,385.870178 479.065552,406.260284 446.197388,429.930420 
	C443.971649,430.815735 443.001953,431.497894 442.032257,432.180054 
	C442.032257,432.180023 442.147034,432.064240 442.196991,432.128662 
M60.308567,976.582031 
	C60.178036,974.967773 60.114563,973.344727 59.905907,971.740662 
	C58.703300,962.495239 57.466362,953.254395 56.301781,942.136719 
	C56.771019,921.533997 56.589035,900.890442 57.880081,880.339355 
	C59.376518,856.518799 61.041264,832.608582 64.618370,809.038696 
	C73.474182,750.686890 89.337387,694.183350 112.007133,639.600952 
	C146.579544,556.360291 194.739319,481.883423 256.417938,416.283264 
	C298.282104,371.757446 344.986572,332.908234 396.613220,299.990906 
	C466.512970,255.422592 541.595276,223.176483 622.250732,204.030563 
	C655.221436,196.203979 688.569092,190.680634 722.357117,187.487015 
	C749.184937,184.951279 776.000305,183.598877 802.913879,184.300354 
	C820.513733,184.759064 838.103027,185.624573 856.963257,187.377960 
	C867.174805,188.368317 877.386292,189.358658 887.597839,190.348999 
	C887.689575,189.641754 887.781311,188.934509 887.873108,188.227280 
	C879.278748,186.905151 870.684387,185.583008 860.490356,183.838821 
	C835.169739,180.638718 809.918396,176.587860 784.505737,174.517395 
	C765.416931,172.962189 746.151794,172.314926 726.914917,173.580444 
	C712.338623,174.539368 697.641724,174.186523 683.149658,175.786652 
	C658.439270,178.515030 633.680298,181.397980 609.237122,185.841171 
	C532.928162,199.712357 461.483215,227.103455 394.404694,265.845734 
	C324.892609,305.993530 264.287018,356.922058 212.406601,418.159821 
	C170.653351,467.443848 136.468262,521.548645 109.886993,580.448669 
	C84.451370,636.810242 66.653366,695.422241 57.456352,756.618408 
	C50.886013,800.336853 46.350033,844.164246 49.697483,888.454590 
	C51.147133,907.635010 52.743649,926.804321 54.067776,947.656677 
	C55.370869,957.814575 56.673962,967.972412 58.022026,979.700562 
	C59.079018,984.194214 60.136005,988.687866 61.192993,993.181519 
	C61.866531,993.048096 62.540073,992.914673 63.213612,992.781250 
	C62.389793,987.993042 61.565975,983.204773 60.308567,976.582031 
z"/>
<path fill="#813FB3" opacity="1.000000" stroke="none" 
	d="
M261.597534,303.787292 
	C272.072571,289.796631 282.504364,275.162170 294.407166,261.842194 
	C325.484711,227.064392 359.993683,195.878891 397.321045,167.934036 
	C461.870392,119.609642 532.183472,81.863525 608.000183,54.375370 
	C661.593689,34.944489 716.627808,21.063900 772.976807,12.751652 
	C799.220581,8.880341 825.731750,6.822055 853.825317,3.909476 
	C859.019287,3.251333 862.509644,2.625672 866.000000,2.000005 
	C884.708435,2.000000 903.416931,2.000000 923.062683,2.000002 
	C931.085327,3.205561 938.132141,4.749238 945.262207,5.562480 
	C996.325806,11.386675 1046.096924,22.786119 1094.625610,39.688541 
	C1138.414551,54.940083 1180.298462,74.321136 1220.486694,97.420723 
	C1262.706055,121.687866 1302.099365,149.938324 1338.645630,182.070938 
	C1383.516724,221.522858 1423.173828,265.706329 1457.206421,314.870972 
	C1457.573242,315.400940 1457.720093,316.083038 1457.570679,315.717194 
	C1446.544800,326.702942 1435.812744,337.395966 1425.001587,348.167786 
	C1418.709839,339.648254 1411.717041,330.051788 1404.592896,320.553833 
	C1359.528442,260.473206 1305.899414,209.383102 1244.172119,166.585800 
	C1191.043823,129.750397 1133.791260,101.199196 1072.711304,80.469940 
	C1028.249634,65.380600 982.609070,54.716373 935.833801,49.789574 
	C915.053833,47.600842 894.127930,46.798363 873.268799,45.359421 
	C828.895264,42.298359 785.162476,47.789257 741.574707,55.219093 
	C740.918457,55.330952 740.264648,55.457195 737.975891,55.706268 
	C728.429260,57.392845 720.516418,58.949883 712.603638,60.506920 
	C712.700989,61.121193 712.798340,61.735466 712.895691,62.349739 
	C721.248108,60.888229 729.600525,59.426720 737.952942,57.965210 
	C748.229126,57.311184 758.506836,56.680504 768.781189,55.998810 
	C801.044006,53.858223 833.211914,54.902279 865.420227,57.724823 
	C923.377686,62.803875 979.803345,74.837044 1034.861328,93.452126 
	C1088.002686,111.419281 1138.418091,135.204773 1186.071533,164.815582 
	C1238.596191,197.453262 1286.374023,235.995667 1329.322144,280.476074 
	C1354.997925,307.068024 1378.341675,335.631592 1400.004639,365.571472 
	C1401.347778,367.427887 1402.380737,369.508759 1403.105103,370.724823 
	C1392.177368,381.590790 1381.628784,392.079590 1370.608765,403.037231 
	C1267.485596,256.837006 1129.325806,159.339493 953.383972,118.168015 
	C825.775146,88.306763 699.515198,95.573334 573.827393,137.474213 
	C567.835632,139.354385 563.253784,140.926712 558.671875,142.499039 
	C558.958313,143.331940 559.244751,144.164841 559.531189,144.997742 
	C564.964111,143.337021 570.396973,141.676300 575.829895,140.015594 
	C597.717285,135.825287 619.483337,130.771866 641.524292,127.674637 
	C666.166138,124.211922 691.008728,121.325729 715.850220,120.321854 
	C761.818726,118.464203 807.612244,121.914314 853.040344,129.302231 
	C912.414124,138.958084 969.762512,155.653824 1025.059204,179.392578 
	C1094.679688,209.280457 1158.057251,249.054230 1215.513184,298.457581 
	C1260.635376,337.255798 1300.458618,380.801117 1335.066406,429.163910 
	C1336.590210,431.293488 1337.891479,433.582306 1339.858154,436.682556 
	C1329.010498,447.136536 1318.291260,457.466919 1306.699951,467.107788 
	C1304.543091,465.588348 1303.258179,464.758362 1301.973389,463.928375 
	C1301.973389,463.928375 1302.048706,463.944489 1302.225586,463.325684 
	C1301.548096,461.816315 1300.693604,460.925781 1299.839233,460.035248 
	C1299.839233,460.035248 1299.932129,460.143951 1299.880127,460.192871 
	C1298.050659,456.796021 1296.695801,453.039917 1294.429810,449.952454 
	C1271.729004,419.020782 1247.002808,389.763733 1219.444214,363.074585 
	C1133.324341,279.671204 1032.839600,221.193298 916.910095,189.676682 
	C881.866333,180.149673 846.307007,173.799652 810.242065,169.506119 
	C766.054321,164.245544 721.745300,164.482681 677.561462,166.654617 
	C613.692505,169.794205 550.598267,179.378571 488.703705,195.961823 
	C421.094391,214.076218 356.680634,239.655701 297.933746,278.255035 
	C285.720947,286.279388 274.111938,295.222717 261.597534,303.787292 
z"/>
<path fill="#C7C9E8" opacity="1.000000" stroke="none" 
	d="
M802.888306,1726.000000 
	C802.015564,1725.658813 802.031189,1725.317505 802.029663,1724.464111 
	C807.042175,1724.181396 812.071716,1724.410889 817.550659,1725.320312 
	C813.258850,1726.000000 808.517761,1726.000000 802.888306,1726.000000 
z"/>
<!-- <path fill="#C7C9E8" opacity="1.000000" stroke="none" 
	d="
M894.875000,1726.000000 
	C898.109131,1725.309814 902.218262,1724.619751 907.162415,1723.949219 
	C907.985413,1724.307129 907.973328,1724.645752 907.980652,1725.492188 
	C903.916687,1726.000000 899.833313,1726.000000 894.875000,1726.000000 
z"/> -->
<!-- <path fill="#C7C9E8" opacity="1.000000" stroke="none" 
	d="
M865.143066,2.000005 
	C862.509644,2.625672 859.019287,3.251333 854.719849,3.749798 
	C853.910767,3.622600 853.931396,2.809982 853.965698,2.404991 
	C857.428711,2.000000 860.857422,2.000000 865.143066,2.000005 
z"/> -->
<path fill="#21C3BE" opacity="1.000000" stroke="none" 
	d="
M870.314209,1555.835938 
	C856.268250,1553.341797 842.116943,1551.328003 828.193176,1548.276367 
	C732.482971,1527.298950 645.483521,1487.000366 566.757080,1428.915283 
	C522.639221,1396.364624 482.908234,1358.992798 447.890625,1316.717896 
	C447.059906,1315.715210 446.540466,1314.454712 445.949219,1312.606812 
	C454.900146,1317.647217 463.859039,1323.273926 472.642334,1329.162476 
	C535.346436,1371.200317 602.896729,1402.691772 675.782898,1422.555298 
	C710.142090,1431.919067 745.010315,1438.363281 780.433655,1442.481323 
	C818.941284,1446.957764 857.504028,1447.407104 896.021973,1445.346558 
	C933.492004,1443.342163 970.629089,1437.720947 1007.280090,1429.287109 
	C1083.857788,1411.665527 1155.327026,1381.805542 1221.880127,1340.087524 
	C1224.363281,1338.531006 1226.941650,1337.126343 1228.669189,1336.120605 
	C1239.789917,1347.236450 1250.311401,1357.753296 1261.570312,1369.007324 
	C1176.739502,1425.672485 1083.701660,1462.954590 982.979614,1481.064453 
	C882.502380,1499.130493 782.669495,1495.658203 683.627686,1470.273682 
	C785.031555,1507.800903 889.514160,1519.917603 996.615479,1507.444458 
	C1103.722534,1494.971069 1202.733521,1459.174072 1292.096069,1401.214233 
	C1303.217285,1412.295410 1313.921875,1422.961182 1325.046143,1434.045166 
	C1323.616089,1435.090454 1321.100952,1437.137573 1318.389771,1438.879883 
	C1269.203247,1470.489746 1217.190186,1496.307617 1162.044312,1515.886475 
	C1113.615234,1533.080688 1063.861938,1544.570679 1013.031738,1551.527344 
	C998.579468,1553.505127 983.976196,1554.379272 967.668579,1555.864624 
	C939.194458,1555.975586 912.493896,1555.989624 885.793335,1555.980347 
	C880.633606,1555.978638 875.473938,1555.886475 870.314209,1555.835938 
z"/>

<path fill="#21C2BD" opacity="1.000000" stroke="none" 
	d="
M1376.154053,1492.056152 
	C1369.364258,1496.108643 1362.457275,1500.043823 1355.659790,1504.160034 
	C1318.549927,1526.632690 1278.284546,1540.910522 1236.034546,1549.806641 
	C1203.159790,1556.728882 1169.912476,1561.039185 1136.301636,1562.224243 
	C1115.701050,1562.950439 1095.099731,1563.653198 1074.497314,1564.325195 
	C1064.881348,1564.638916 1055.262207,1564.854980 1045.044678,1564.656494 
	C1154.333740,1551.505981 1256.013550,1515.709229 1347.911499,1455.951782 
	C1359.390991,1466.713867 1370.248413,1476.876953 1381.044312,1487.105103 
	C1381.315674,1487.362183 1380.906250,1488.337891 1379.765381,1489.491699 
	C1377.822632,1490.724121 1376.928955,1491.443359 1376.035156,1492.162598 
	C1376.035156,1492.162476 1376.087280,1492.022339 1376.154053,1492.056152 
z"/>
<!-- <path fill="#21C3BE" opacity="1.000000" stroke="none" 
	d="
M1302.136353,464.502258 
	C1303.258179,464.758362 1304.543091,465.588348 1306.039795,467.023376 
	C1304.934204,466.777710 1303.616699,465.926941 1302.136353,464.502258 
z"/> -->
<!-- <path fill="#813FB3" opacity="1.000000" stroke="none" 
	d="
M1376.656006,1492.269897 
	C1376.928955,1491.443359 1377.822632,1490.724121 1379.319946,1489.878174 
	C1379.041382,1490.626587 1378.159058,1491.501953 1376.656006,1492.269897 
z"/> -->
<!-- <path fill="#813FB3" opacity="1.000000" stroke="none" 
	d="
M442.585510,432.649658 
	C443.001953,431.497894 443.971649,430.815735 445.584625,430.225647 
	C445.198181,431.251556 444.168457,432.185394 442.585510,432.649658 
z"/> -->
<!-- <path fill="#21C3BE" opacity="1.000000" stroke="none" 
	d="
M1299.346069,460.625610 
	C1300.693604,460.925781 1301.548096,461.816315 1302.239502,463.361511 
	C1301.002075,463.082764 1299.927490,462.149384 1299.346069,460.625610 
z"/> -->
<!-- <path fill="#21C3BE" opacity="1.000000" stroke="none" 
	d="
M445.958984,1311.367432 
	C445.414093,1311.728882 444.727051,1311.470825 443.744873,1310.700684 
	C444.238739,1310.375122 445.027771,1310.561523 445.958984,1311.367432 
z"/> -->
<path fill="#22C4BE" opacity="1.000000" stroke="none" 
	d="
M122.033958,1053.462646 
	C120.765900,1040.899414 119.555618,1027.362061 118.426331,1012.907837 
	C119.190933,1011.993469 119.874535,1011.995850 121.068947,1011.998413 
	C121.750420,1025.495117 121.921082,1038.991821 122.033958,1053.462646 
z"/>
<!-- <path fill="#C7C9E8" opacity="1.000000" stroke="none" 
	d="
M118.065239,1058.889160 
	C118.902000,1058.045654 119.669594,1057.986694 121.267288,1058.575439 
	C122.744194,1062.017944 123.390991,1064.812622 124.037796,1067.607422 
	C124.818581,1073.985840 125.599358,1080.364380 126.359146,1087.658569 
	C123.557457,1078.940796 120.776756,1069.307373 118.065239,1058.889160 
z"/> -->
<path fill="#22C4BE" opacity="1.000000" stroke="none" 
	d="
M123.995346,1066.845215 
	C123.390991,1064.812622 122.744194,1062.017944 121.839844,1058.494141 
	C121.582283,1057.765259 121.837769,1056.799561 121.978729,1056.318604 
	C122.730751,1059.252686 123.341820,1062.667847 123.995346,1066.845215 
z"/>
<path fill="#21C3BE" opacity="1.000000" stroke="none" 
	d="
M246.204895,1403.694092 
	C244.429352,1402.689575 242.652298,1400.966675 241.357605,1398.643066 
	C243.294434,1399.686890 244.748901,1401.331177 246.204895,1403.694092 
z"/>
<!-- <path fill="#C7C9E8" opacity="1.000000" stroke="none" 
	d="
M176.486572,893.854126 
	C175.970688,893.592957 176.012863,893.042542 176.653290,892.230103 
	C177.143951,892.510193 177.074966,893.042480 176.486572,893.854126 
z"/> -->
<!-- <path fill="#C7C9E8" opacity="1.000000" stroke="none" 
	d="
M54.170616,946.817627 
	C54.883812,945.737915 55.353947,945.334045 55.962463,944.389465 
	C57.466362,953.254395 58.703300,962.495239 59.905907,971.740662 
	C60.114563,973.344727 60.178036,974.967773 59.828224,977.470581 
	C58.890942,978.282837 58.434002,978.206543 57.977055,978.130310 
	C56.673962,967.972412 55.370869,957.814575 54.170616,946.817627 
z"/> -->
<!-- <path fill="#C7C9E8" opacity="1.000000" stroke="none" 
	d="
M1016.470581,270.617432 
	C1017.615479,269.898682 1019.362854,269.617676 1021.581238,268.858887 
	C1028.365723,270.593750 1034.679199,272.806335 1041.488159,275.515259 
	C1041.983765,276.011627 1042.019653,275.956635 1042.019653,275.956635 
	C1033.704102,274.322815 1025.388550,272.688995 1016.470581,270.617432 
z"/> -->
<path fill="#22C4BE" opacity="1.000000" stroke="none" 
	d="
M57.999542,978.915405 
	C58.434002,978.206543 58.890942,978.282837 60.045021,978.387817 
	C61.565975,983.204773 62.389793,987.993042 63.213612,992.781250 
	C62.540073,992.914673 61.866531,993.048096 61.192993,993.181519 
	C60.136005,988.687866 59.079018,984.194214 57.999542,978.915405 
z"/>
<!-- <path fill="#C7C9E8" opacity="1.000000" stroke="none" 
	d="
M1041.958252,276.033569 
	C1043.156616,276.198273 1044.380493,276.340973 1045.604492,276.483704 
	C1045.593384,276.733551 1045.582275,276.983398 1045.571167,277.233276 
	C1044.537720,277.143494 1043.504395,277.053711 1042.245361,276.460266 
	C1042.019653,275.956635 1041.983765,276.011627 1041.958252,276.033569 
z"/> -->
</svg>