<?xml version="1.0" encoding="UTF-8" standalone="no"?>
<!DOCTYPE svg PUBLIC "-//W3C//DTD SVG 1.1//EN" "http://www.w3.org/Graphics/SVG/1.1/DTD/svg11.dtd">
<!-- Created with Vectornator (http://vectornator.io/) -->
<svg height="100%" stroke-miterlimit="10" style="fill-rule:nonzero;clip-rule:evenodd;stroke-linecap:round;stroke-linejoin:round;" version="1.1" viewBox="0 0 283.5 221.782" width="100%" xml:space="preserve" xmlns="http://www.w3.org/2000/svg" xmlns:vectornator="http://vectornator.io" xmlns:xlink="http://www.w3.org/1999/xlink">
<defs/>
<clipPath id="ArtboardFrame">
<rect height="221.782" width="283.5" x="0" y="0"/>
</clipPath>
<g clip-path="url(#ArtboardFrame)" id="Layer-1" vectornator:layerName="Layer 1">
<g opacity="1" vectornator:layerName="g1123">
<g opacity="1" vectornator:layerName="g3288">
<g opacity="1" vectornator:layerName="g3274">
<path d="M52.8928 165.335C52.8928 165.335 65.4241 201.439 120.355 206.38L115.837 203.818L146.993 203.248L144.472 204.795L150.574 203.655C160.202 200.897 169.196 196.656 177.302 191.201L173.176 187.076C159.522 196.007 143.252 201.304 125.715 201.56C118.069 201.672 110.751 200.52 103.645 198.816C108.634 199.551 113.655 200.198 118.858 200.122C137.873 199.843 155.503 193.977 170.216 184.115L166.087 179.986C152.463 188.858 136.248 194.113 118.776 194.369C106.335 194.551 94.4697 192.149 83.6504 187.712C92.3007 190.16 101.264 191.846 110.709 191.708C129.654 191.43 147.227 185.605 161.907 175.806L157.769 171.667C144.179 180.474 128.027 185.691 110.626 185.945C88.6192 186.267 68.6287 178.304 52.8928 165.335Z" fill="#1ec3bd" fill-rule="nonzero" opacity="1" stroke="none" vectornator:layerName="path"/>
<path d="M87.7983 16.3921C87.7799 16.3935 87.7614 16.394 87.743 16.3952L70.0817 19.4195C29.7252 30.3438 0 67.2418 0 111.037C0 112.656 0.0430559 114.263 0.124555 115.86C2.73783 156.173 31.7061 180.836 31.7061 180.836C21.1861 166.202 20.6095 146.289 20.6095 126.872C20.6095 77.5965 60.4923 37.7119 109.766 37.7119C131.775 37.7119 152.241 46.8005 167.785 59.9984C167.785 59.9984 153.404 17.4548 87.7975 16.392L87.7983 16.3921ZM94.9067 21.8805C102.554 21.8805 110.344 22.9872 117.424 24.7944C112.446 23.9868 106.946 23.4181 101.741 23.4181C49.359 23.4181 6.83589 65.943 6.83589 118.328C6.83589 122.552 7.53841 126.582 8.07421 130.661C6.65115 124.332 5.75356 117.799 5.75356 111.038C5.75356 61.7619 45.6332 21.8805 94.9067 21.8805ZM101.741 29.1707C114.183 29.1707 126.012 31.7451 136.765 36.3399C128.151 33.7656 119.213 31.9499 109.767 31.9499C57.3842 31.9499 14.8611 74.4875 14.8611 126.872C14.5082 133.129 15.5726 137.762 16.4847 143.041C14.1983 135.146 12.5882 126.965 12.5882 118.328C12.5882 69.0521 52.4679 29.1707 101.741 29.1707Z" fill="#1ec3bd" fill-rule="nonzero" opacity="1" stroke="none" vectornator:layerName="path"/>
</g>
<g opacity="1" vectornator:layerName="g3286">
<path d="M122.806 108.401C119.057 108.401 115.819 107.585 113.094 105.953C110.386 104.322 108.294 102.039 106.819 99.1049C105.36 96.1711 104.631 92.7599 104.631 88.8713C104.631 84.9827 105.36 81.5715 106.819 78.6377C108.294 75.7039 110.386 73.4211 113.094 71.7893C115.819 70.1574 119.057 69.3415 122.806 69.3415C127.111 69.3415 130.722 70.4091 133.638 72.5444C136.572 74.6797 138.638 77.5701 139.835 81.2156L132.701 83.1947C132.007 80.9205 130.835 79.1585 129.186 77.9086C127.537 76.6413 125.41 76.0077 122.806 76.0077C120.428 76.0077 118.44 76.5372 116.843 77.5961C115.264 78.655 114.075 80.148 113.276 82.0749C112.478 84.0019 112.078 86.2673 112.078 88.8713C112.078 91.4753 112.478 93.7407 113.276 95.6677C114.075 97.5946 115.264 99.0876 116.843 100.147C118.44 101.205 120.428 101.735 122.806 101.735C125.41 101.735 127.537 101.101 129.186 99.834C130.835 98.5668 132.007 96.8047 132.701 94.5479L139.835 96.527C138.638 100.173 136.572 103.063 133.638 105.198C130.722 107.333 127.111 108.401 122.806 108.401Z" fill="#1ec3bd" fill-rule="nonzero" opacity="1" stroke="none" vectornator:layerName="path"/>
<path d="M143.912 107.62L143.912 69.3415L150.995 69.3415L150.995 107.62L143.912 107.62Z" fill="#1ec3bd" fill-rule="nonzero" opacity="1" stroke="none" vectornator:layerName="path"/>
<path d="M167.101 108.453C164.896 108.453 163.1 108.08 161.711 107.333C160.322 106.587 159.237 105.641 158.456 104.495C157.692 103.349 157.146 102.16 156.816 100.928C156.486 99.6778 156.286 98.5407 156.217 97.5165C156.147 96.4923 156.113 95.7458 156.113 95.2771L156.113 79.497L163.299 79.497L163.299 92.7773C163.299 93.4196 163.334 94.2442 163.404 95.251C163.473 96.2405 163.69 97.2387 164.055 98.2456C164.419 99.2525 165.009 100.094 165.825 100.771C166.658 101.448 167.83 101.787 169.34 101.787C169.948 101.787 170.599 101.692 171.293 101.501C171.988 101.31 172.639 100.945 173.246 100.407C173.854 99.8515 174.348 99.0443 174.73 97.9853C175.13 96.909 175.329 95.5029 175.329 93.7669L179.391 95.6938C179.391 97.9159 178.94 99.9991 178.037 101.943C177.135 103.888 175.772 105.459 173.949 106.657C172.144 107.854 169.861 108.453 167.101 108.453L167.101 108.453ZM176.215 107.62L176.215 98.2977L175.329 98.2977L175.329 79.497L182.464 79.497L182.464 107.62L176.215 107.62Z" fill="#1ec3bd" fill-rule="nonzero" opacity="1" stroke="none" vectornator:layerName="path"/>
<path d="M201.382 108.401C198.588 108.401 196.253 107.75 194.378 106.448C192.503 105.146 191.089 103.375 190.134 101.136C189.196 98.8966 188.728 96.3707 188.728 93.5584C188.728 90.7462 189.196 88.2203 190.134 85.9809C191.071 83.7415 192.451 81.9708 194.274 80.6688C196.097 79.3668 198.345 78.7158 201.018 78.7158C203.709 78.7158 206.052 79.3581 208.048 80.6427C210.045 81.9274 211.59 83.6894 212.683 85.9288C213.794 88.1509 214.35 90.6941 214.35 93.5584C214.35 96.3707 213.803 98.8966 212.709 101.136C211.633 103.375 210.123 105.146 208.179 106.448C206.234 107.75 203.969 108.401 201.382 108.401ZM187.53 107.62L187.53 70.1227L194.665 70.1227L194.665 88.3505L193.779 88.3505L193.779 107.62L187.53 107.62ZM200.237 102.099C201.764 102.099 203.014 101.718 203.986 100.954C204.958 100.19 205.679 99.1657 206.148 97.8811C206.616 96.5791 206.851 95.1382 206.851 93.5584C206.851 91.9961 206.608 90.5726 206.121 89.2879C205.635 87.986 204.88 86.953 203.856 86.1892C202.849 85.408 201.556 85.0174 199.976 85.0174C198.501 85.0174 197.303 85.3733 196.383 86.0851C195.48 86.7968 194.821 87.795 194.404 89.0796C193.988 90.3642 193.779 91.8572 193.779 93.5584C193.779 95.2597 193.988 96.7527 194.404 98.0373C194.821 99.3219 195.498 100.32 196.435 101.032C197.39 101.744 198.657 102.099 200.237 102.099Z" fill="#1ec3bd" fill-rule="nonzero" opacity="1" stroke="none" vectornator:layerName="path"/>
<path d="M228.113 108.401C224.571 108.401 221.707 107.603 219.52 106.005C217.35 104.391 216.031 102.117 215.562 99.183L222.801 98.0894C223.096 99.4087 223.747 100.442 224.754 101.188C225.778 101.935 227.071 102.308 228.633 102.308C229.918 102.308 230.908 102.065 231.602 101.579C232.296 101.075 232.643 100.381 232.643 99.4955C232.643 98.94 232.505 98.4973 232.227 98.1675C231.949 97.8203 231.324 97.4818 230.352 97.1519C229.397 96.8221 227.904 96.3881 225.873 95.85C223.582 95.2597 221.751 94.6 220.379 93.8709C219.008 93.1418 218.018 92.2738 217.411 91.2669C216.803 90.2427 216.5 89.0102 216.5 87.5693C216.5 85.7639 216.96 84.2015 217.88 82.8822C218.8 81.5455 220.093 80.5212 221.759 79.8095C223.443 79.0804 225.422 78.7158 227.696 78.7158C229.901 78.7158 231.854 79.0543 233.555 79.7314C235.256 80.4084 236.627 81.3719 237.669 82.6218C238.728 83.8717 239.379 85.3473 239.622 87.0485L232.383 88.3505C232.261 87.3089 231.81 86.4843 231.029 85.8767C230.248 85.2691 229.189 84.9133 227.852 84.8091C226.55 84.7224 225.5 84.896 224.702 85.3299C223.921 85.7639 223.53 86.3888 223.53 87.2047C223.53 87.6908 223.695 88.0988 224.025 88.4286C224.372 88.7585 225.075 89.097 226.134 89.4442C227.21 89.7914 228.842 90.2427 231.029 90.7982C233.164 91.3538 234.874 92.0047 236.159 92.7512C237.461 93.4803 238.407 94.3657 238.997 95.4073C239.587 96.4315 239.882 97.6727 239.882 99.131C239.882 102.013 238.841 104.278 236.758 105.927C234.674 107.577 231.793 108.401 228.113 108.401Z" fill="#1ec3bd" fill-rule="nonzero" opacity="1" stroke="none" vectornator:layerName="path"/>
</g>
</g>
<g opacity="1" vectornator:layerName="g3316">
<path d="M122.806 158.898C119.057 158.898 115.819 158.082 113.094 156.451C110.386 154.819 108.294 152.536 106.819 149.602C105.36 146.668 104.631 143.257 104.631 139.369C104.631 135.48 105.36 132.069 106.819 129.135C108.294 126.201 110.386 123.918 113.094 122.286C115.819 120.655 119.057 119.839 122.806 119.839C127.111 119.839 130.722 120.906 133.638 123.042C136.572 125.177 138.638 128.067 139.835 131.713L132.701 133.692C132.007 131.418 130.835 129.656 129.186 128.406C127.537 127.139 125.41 126.505 122.806 126.505C120.428 126.505 118.44 127.034 116.843 128.093C115.264 129.152 114.075 130.645 113.276 132.572C112.478 134.499 112.078 136.765 112.078 139.369C112.078 141.973 112.478 144.238 113.276 146.165C114.075 148.092 115.264 149.585 116.843 150.644C118.44 151.703 120.428 152.232 122.806 152.232C125.41 152.232 127.537 151.599 129.186 150.331C130.835 149.064 132.007 147.302 132.701 145.045L139.835 147.024C138.638 150.67 136.572 153.56 133.638 155.695C130.722 157.831 127.111 158.898 122.806 158.898Z" fill="#803db2" fill-rule="nonzero" opacity="1" stroke="none" vectornator:layerName="path"/>
<path d="M156.046 158.898C153.217 158.898 150.734 158.265 148.599 156.997C146.464 155.73 144.797 153.986 143.6 151.763C142.419 149.524 141.829 146.955 141.829 144.056C141.829 141.122 142.437 138.544 143.652 136.322C144.867 134.082 146.542 132.338 148.677 131.088C150.812 129.838 153.269 129.213 156.046 129.213C158.876 129.213 161.358 129.847 163.493 131.114C165.646 132.381 167.321 134.135 168.519 136.374C169.716 138.596 170.315 141.157 170.315 144.056C170.315 146.972 169.708 149.55 168.493 151.789C167.295 154.012 165.62 155.756 163.467 157.023C161.332 158.273 158.858 158.898 156.046 158.898ZM156.046 152.284C158.32 152.284 160.013 151.52 161.124 149.993C162.252 148.448 162.816 146.469 162.816 144.056C162.816 141.556 162.243 139.559 161.098 138.067C159.969 136.574 158.285 135.827 156.046 135.827C154.501 135.827 153.234 136.174 152.244 136.869C151.255 137.563 150.517 138.527 150.031 139.759C149.562 140.992 149.328 142.424 149.328 144.056C149.328 146.573 149.892 148.578 151.021 150.071C152.166 151.546 153.841 152.284 156.046 152.284Z" fill="#803db2" fill-rule="nonzero" opacity="1" stroke="none" vectornator:layerName="path"/>
<path d="M184.339 158.95C182.134 158.95 180.337 158.577 178.949 157.831C177.56 157.084 176.475 156.138 175.694 154.992C174.93 153.847 174.383 152.657 174.053 151.425C173.724 150.175 173.524 149.038 173.455 148.014C173.385 146.99 173.35 146.243 173.35 145.774L173.35 129.994L180.537 129.994L180.537 143.274C180.537 143.917 180.572 144.741 180.641 145.748C180.711 146.738 180.928 147.736 181.292 148.743C181.657 149.75 182.247 150.592 183.063 151.269C183.896 151.946 185.068 152.284 186.578 152.284C187.186 152.284 187.837 152.189 188.531 151.998C189.225 151.807 189.876 151.442 190.484 150.904C191.091 150.349 191.586 149.541 191.968 148.483C192.367 147.406 192.567 146 192.567 144.264L196.629 146.191C196.629 148.413 196.178 150.496 195.275 152.441C194.372 154.385 193.01 155.956 191.187 157.154C189.382 158.352 187.099 158.951 184.339 158.95ZM193.452 158.117L193.452 148.795L192.567 148.795L192.567 129.994L199.701 129.994L199.701 158.117L193.452 158.117Z" fill="#803db2" fill-rule="nonzero" opacity="1" stroke="none" vectornator:layerName="path"/>
<path d="M223.984 158.117L223.984 144.837C223.984 144.195 223.949 143.379 223.88 142.389C223.81 141.382 223.593 140.375 223.229 139.369C222.864 138.362 222.265 137.52 221.432 136.843C220.616 136.166 219.453 135.827 217.943 135.827C217.335 135.827 216.684 135.923 215.99 136.113C215.296 136.304 214.645 136.678 214.037 137.233C213.43 137.771 212.926 138.57 212.527 139.629C212.145 140.688 211.954 142.094 211.954 143.847L207.892 141.92C207.892 139.698 208.343 137.615 209.246 135.671C210.149 133.727 211.503 132.155 213.308 130.958C215.131 129.76 217.422 129.161 220.182 129.161C222.387 129.161 224.184 129.534 225.572 130.281C226.961 131.027 228.037 131.973 228.801 133.119C229.582 134.265 230.138 135.462 230.467 136.712C230.797 137.945 230.997 139.073 231.066 140.098C231.136 141.122 231.171 141.868 231.171 142.337L231.171 158.117L223.984 158.117ZM204.768 158.117L204.768 129.994L211.069 129.994L211.069 139.316L211.954 139.316L211.954 158.117L204.768 158.117Z" fill="#803db2" fill-rule="nonzero" opacity="1" stroke="none" vectornator:layerName="path"/>
<g opacity="1" vectornator:layerName="g3310">
<g opacity="1" vectornator:layerName="g3306">
<path d="M57.0566 54.9348C57.0566 54.9348 16.7666 68.1918 15.1572 132.609C15.2064 133.411 15.2731 134.412 15.3672 135.449L18.1495 151.697C29.0733 192.056 65.9697 221.782 109.763 221.782C111.382 221.782 112.989 221.74 114.586 221.658C154.897 219.045 177.302 191.201 177.302 191.201C162.667 201.722 145.014 201.172 125.597 201.172C76.3239 201.172 36.4411 161.287 36.4411 112.012C36.4411 90.0014 43.8592 70.48 57.0566 54.9348ZM35.0691 85.0125C32.4949 93.6264 30.6792 102.565 30.6793 112.012C30.6793 164.397 73.2151 206.921 125.598 206.921C131.136 206.921 136.487 206.21 141.766 205.298C133.87 207.584 125.69 209.194 117.053 209.194C67.7798 209.194 27.9002 169.313 27.9002 120.037C27.9002 107.595 30.4745 95.7662 35.0691 85.0125ZM23.6759 104.843C22.8684 109.82 22.1479 114.833 22.1479 120.037C22.1479 172.422 64.6709 214.947 117.053 214.947C121.277 214.947 125.307 214.245 129.386 213.709C123.057 215.132 116.525 216.029 109.763 216.029C60.4899 216.029 20.6103 176.148 20.6103 126.872C20.6103 119.225 21.8688 111.923 23.6759 104.843Z" fill="#803db2" fill-rule="nonzero" opacity="1" stroke="none" vectornator:layerName="path"/>
<path d="M117.041 0.0161953C58.4195 0.460549 32.9076 39.2051 32.9076 39.2051C48.6435 26.236 73.3486 20.6831 95.3556 21.005C125.553 21.4468 152 36.8205 167.787 59.9997L171.896 55.8866C155.011 31.7094 127.148 15.7068 95.4384 15.2429C85.9932 15.1046 77.0301 16.7901 68.3798 19.2382C79.1991 14.8011 91.0648 12.3995 103.505 12.5815C133.774 13.0243 160.272 28.4685 176.044 51.7385L180.16 47.6254C163.286 23.361 135.368 7.29385 103.588 6.82888C98.384 6.75273 93.3604 7.39946 88.3714 8.13412C95.4775 6.43069 102.799 5.27807 110.445 5.38994C140.778 5.83374 167.326 21.3466 183.086 44.6998L187.202 40.5835C174.885 22.8055 156.646 9.40978 135.3 3.2952L118.419 0.149902L117.041 0.0161953Z" fill="#803db2" fill-rule="nonzero" opacity="1" stroke="none" vectornator:layerName="path"/>
<path d="M134.17 6.3834L138.871 4.54838C138.871 4.54838 131.196 1.28903 117.447 0.117621C103.698-1.05379 79.7441 6.9105 79.7441 6.9105L109.75 4.22254L134.17 6.3834Z" fill="#803db2" fill-rule="nonzero" opacity="1" stroke="none" vectornator:layerName="path"/>
<path d="M18.1496 151.697C18.1496 151.697 15.7462 140.282 15.3673 135.449C14.9404 130.004 17.0521 127.534 17.0521 127.534L20.8124 146.196L18.1496 151.697Z" fill="#803db2" fill-rule="nonzero" opacity="1" stroke="none" vectornator:layerName="path"/>
</g>
<path d="M247.642 158.898C244.725 158.898 242.226 158.247 240.143 156.945C238.059 155.643 236.462 153.873 235.351 151.633C234.24 149.394 233.685 146.868 233.685 144.056C233.685 141.209 234.258 138.665 235.404 136.426C236.567 134.187 238.198 132.425 240.299 131.14C242.399 129.855 244.882 129.213 247.746 129.213C251.061 129.213 253.839 130.055 256.078 131.739C258.335 133.405 259.776 135.688 260.401 138.587L253.318 140.462C252.901 139.004 252.172 137.867 251.131 137.051C250.107 136.235 248.944 135.827 247.642 135.827C246.149 135.827 244.925 136.192 243.97 136.921C243.015 137.633 242.312 138.613 241.861 139.863C241.41 141.096 241.184 142.493 241.184 144.056C241.184 146.503 241.722 148.491 242.798 150.019C243.892 151.529 245.506 152.284 247.642 152.284C249.239 152.284 250.454 151.92 251.287 151.191C252.12 150.461 252.745 149.42 253.162 148.066L260.401 149.576C259.602 152.562 258.092 154.862 255.87 156.477C253.648 158.091 250.905 158.898 247.642 158.898Z" fill="#803db2" fill-rule="nonzero" opacity="1" stroke="none" vectornator:layerName="path"/>
</g>
<path d="M263.175 126.088L263.175 119.839L270.258 119.839L270.258 126.088L263.175 126.088ZM263.175 158.117L263.175 129.994L270.258 129.994L270.258 158.117L263.175 158.117Z" fill="#803db2" fill-rule="nonzero" opacity="1" stroke="none" vectornator:layerName="path"/>
<path d="M276.418 158.117L276.418 119.839L283.5 119.839L283.5 158.117L276.418 158.117Z" fill="#803db2" fill-rule="nonzero" opacity="1" stroke="none" vectornator:layerName="path"/>
</g>
</g>
</g>
</svg>
