<svg version="1.1" id="Layer_1" xmlns="http://www.w3.org/2000/svg" xmlns:xlink="http://www.w3.org/1999/xlink" x="0px" y="0px"
	 width="100%" viewBox="0 0 3000 1730" enable-background="new 0 0 3000 1723" xml:space="preserve">
<path fill="#813FB3" opacity="1.000000" stroke="none" 
	d="
M898.110657,1559.728638 
	C946.099365,1565.946289 994.353882,1563.537231 1044.079468,1564.646729 
	C1055.262207,1564.854980 1064.881348,1564.638916 1074.497314,1564.325195 
	C1095.099731,1563.653198 1115.701050,1562.950439 1136.301636,1562.224243 
	C1169.912476,1561.039185 1203.159790,1556.728882 1236.034546,1549.806641 
	C1278.284546,1540.910522 1318.549927,1526.632690 1355.659790,1504.160034 
	C1362.457275,1500.043823 1369.364258,1496.108643 1376.220703,1492.089844 
	C1373.044189,1500.366089 1366.191162,1505.814575 1360.280396,1511.763550 
	C1323.619873,1548.661987 1283.262451,1581.060547 1239.634521,1609.374878 
	C1186.399170,1643.924316 1129.682129,1671.271729 1069.358887,1690.996460 
	C1021.541931,1706.631592 972.663696,1717.446411 922.499023,1722.098389 
	C918.212952,1722.495605 913.939880,1723.032715 907.994080,1723.717285 
	C902.218262,1724.619751 898.109131,1725.309814 894.000000,1726.000000 
	C869.291565,1726.000000 844.583069,1726.000000 818.487976,1725.320312 
	C812.071716,1724.410889 807.042175,1724.181396 801.163818,1723.726807 
	C789.426453,1722.380005 778.533203,1721.300659 767.649902,1720.129272 
	C720.557068,1715.061279 674.673523,1704.448242 629.608093,1690.051880 
	C576.814941,1673.186890 526.655884,1650.481812 479.117615,1622.031250 
	C437.614838,1597.192749 398.927032,1568.577271 362.897064,1536.227905 
	C329.890442,1506.592773 299.888611,1474.293823 272.820709,1439.211670 
	C263.900146,1427.649902 255.075089,1416.014282 246.204880,1403.694092 
	C244.748901,1401.331177 243.294434,1399.686890 241.911194,1398.084473 
	C241.982437,1398.126465 241.905640,1398.272827 242.000000,1397.546875 
	C241.326553,1395.361328 240.665131,1393.833252 239.775406,1392.452271 
	C211.401917,1348.411377 187.133926,1302.276367 168.392899,1253.286133 
	C154.948059,1218.140625 143.461029,1182.499268 137.541229,1145.168213 
	C134.531525,1126.188599 130.117386,1107.431885 126.359131,1087.658569 
	C125.599358,1080.364380 124.818581,1073.985840 123.995346,1066.845215 
	C123.341820,1062.667847 122.730751,1059.252686 122.038437,1055.491943 
	C121.957191,1055.146484 121.976181,1054.436890 122.033958,1053.462646 
	C121.921082,1038.991821 121.750420,1025.495117 121.743233,1011.098633 
	C122.501297,1002.242554 123.274277,994.295044 123.659752,986.328796 
	C125.380974,950.757996 129.784088,915.507690 135.775101,880.421753 
	C146.398026,818.209534 163.256119,757.846130 188.717041,699.995789 
	C222.568008,623.082336 269.033875,555.269531 332.845306,499.930756 
	C362.946564,473.826233 395.674164,451.754303 431.939697,435.110535 
	C435.146362,433.638885 438.800598,433.142487 442.246948,432.193115 
	C441.520172,434.176819 441.259888,436.541199 439.997681,438.088013 
	C415.344604,468.299957 393.515198,500.422638 374.223206,534.300720 
	C350.610229,575.766785 332.063416,619.401855 317.822479,664.911560 
	C307.393585,698.239258 299.976410,732.270691 294.769501,766.748169 
	C292.297150,783.118896 290.698761,799.686157 289.855255,816.223083 
	C288.602905,840.774048 287.857025,865.376404 287.823425,889.958191 
	C287.768372,930.230042 292.984650,970.023865 300.837189,1009.457214 
	C314.107635,1076.097656 337.153503,1139.286743 369.183075,1199.157959 
	C389.448212,1237.038452 413.065186,1272.758911 440.269501,1306.061157 
	C441.094238,1307.070557 441.727631,1308.236328 443.245117,1310.270996 
	C444.727051,1311.470825 445.414093,1311.728882 446.101135,1311.986938 
	C446.101135,1311.986938 445.993805,1312.004150 445.934845,1312.659180 
	C446.540466,1314.454712 447.059906,1315.715210 447.890625,1316.717896 
	C482.908234,1358.992798 522.639221,1396.364624 566.757080,1428.915283 
	C645.483521,1487.000366 732.482971,1527.298950 828.193176,1548.276367 
	C842.116943,1551.328003 856.268250,1553.341797 871.093811,1555.925415 
	C880.619141,1557.252808 889.364929,1558.490723 898.110657,1559.728638 
M176.760727,893.542908 
	C177.074966,893.042480 177.143951,892.510193 177.551453,890.396057 
	C177.584396,887.632751 177.617340,884.869446 178.244705,880.491882 
	C179.592346,869.554077 180.939987,858.616272 182.287613,847.678528 
	C181.504944,847.579102 180.722275,847.479736 179.939606,847.380310 
	C177.959595,858.914429 175.979584,870.448608 173.697113,883.581970 
	C172.801590,889.147461 171.654068,894.685974 171.054947,900.283203 
	C168.692703,922.351807 165.397095,944.394165 164.501053,966.529297 
	C163.061951,1002.080139 165.158524,1037.556152 169.478500,1072.956665 
	C174.970337,1117.960083 184.829926,1161.915649 198.917770,1204.914062 
	C215.765335,1256.335693 238.499023,1305.113159 267.066986,1351.082031 
	C294.011383,1394.438232 325.166412,1434.553955 360.841309,1471.125366 
	C389.014832,1500.006714 419.621429,1526.048584 452.247040,1549.737671 
	C492.511993,1578.973877 535.603394,1603.307617 581.248047,1623.034180 
	C626.846436,1642.740845 673.991089,1657.539917 722.826843,1667.007935 
	C763.710022,1674.934082 804.930237,1679.203735 846.525635,1680.062012 
	C879.162170,1680.735596 911.605530,1678.203735 945.588440,1673.864136 
	C956.925293,1671.933350 968.262085,1670.002441 979.598938,1668.071655 
	C974.190918,1667.194214 969.024048,1667.682495 963.874451,1668.311523 
	C955.105103,1669.382935 946.346558,1670.542969 935.770813,1671.871338 
	C904.152588,1672.515625 872.574585,1672.122437 841.064697,1668.959106 
	C802.975342,1665.135132 765.297913,1658.876831 728.280884,1649.167480 
	C683.838501,1637.510254 640.703125,1622.176758 599.091980,1602.488525 
	C555.641418,1581.929932 514.539368,1557.547485 475.898254,1529.023926 
	C438.350586,1501.307617 403.148651,1470.892456 372.100311,1435.948608 
	C356.663422,1418.574951 341.339935,1401.039307 327.004089,1382.761963 
	C300.264557,1348.670654 277.360565,1312.030762 257.393127,1273.565796 
	C239.589493,1239.269043 224.424774,1203.812012 212.392105,1167.127686 
	C199.243546,1127.041504 189.212982,1086.158203 183.321640,1044.279175 
	C179.295364,1015.658142 176.049896,986.999634 175.789490,958.091797 
	C175.597580,936.785950 176.048126,915.474304 176.760727,893.542908 
M263.621887,695.439270 
	C250.368683,731.363220 240.464645,768.165405 233.026672,805.751404 
	C224.809555,847.274719 222.022247,889.249207 220.405228,931.367920 
	C220.063263,940.275330 221.208755,949.241028 221.691513,958.178650 
	C222.336060,970.111633 223.030396,982.041992 223.654343,993.976074 
	C225.219864,1023.919189 230.310562,1053.394897 236.628632,1082.593018 
	C252.436386,1155.646240 279.770111,1224.304810 318.023499,1288.483398 
	C360.160645,1359.177979 413.307861,1420.457764 477.240479,1472.365112 
	C529.501953,1514.796509 586.774353,1548.698242 648.972595,1574.433350 
	C686.566162,1589.987793 725.216919,1601.814209 764.906189,1610.799072 
	C810.821350,1621.193359 857.351624,1625.799316 904.200928,1627.103271 
	C924.714294,1627.674194 945.335205,1625.513062 965.867188,1624.035278 
	C1001.781677,1621.450562 1036.941528,1614.301636 1073.331543,1605.619141 
	C1078.332031,1604.131348 1083.332642,1602.643677 1088.333130,1601.155884 
	C1088.228394,1600.671997 1088.123657,1600.188110 1088.018799,1599.704224 
	C1080.662720,1601.134155 1073.306519,1602.563965 1064.268921,1604.050537 
	C1047.767334,1605.805176 1031.304321,1608.219116 1014.756775,1609.184692 
	C973.493164,1611.592407 932.270935,1610.022827 891.260742,1605.049194 
	C850.286255,1600.079834 809.946106,1591.789551 770.306030,1580.094849 
	C729.376038,1568.019653 689.784607,1552.537354 651.589600,1533.614258 
	C620.555908,1518.239014 590.819214,1500.571655 562.208069,1480.980469 
	C517.804321,1450.575562 477.318726,1415.582153 440.532623,1376.435059 
	C409.982208,1343.923828 382.544495,1308.856079 358.473755,1271.187744 
	C333.692963,1232.408081 312.456390,1191.836304 295.159637,1149.193359 
	C278.621796,1108.421387 265.928772,1066.462646 256.837677,1023.441345 
	C249.209549,987.343262 244.345367,950.784119 242.532822,913.972412 
	C241.061676,884.094543 240.835632,854.154968 243.512375,824.212830 
	C245.672012,800.054810 248.563797,776.052917 253.334534,752.301880 
	C257.252014,732.798767 261.756256,713.413452 266.853851,693.028748 
	C267.493347,690.576904 268.132843,688.125061 268.772308,685.673218 
	C268.165009,685.526978 267.557678,685.380737 266.950378,685.234436 
	C266.020172,688.182129 265.089966,691.129761 263.621887,695.439270 
z"/>
<path fill="#21C3BE" opacity="1.000000" stroke="none" 
	d="
M442.196991,432.128662 
	C438.800598,433.142487 435.146362,433.638885 431.939697,435.110535 
	C395.674164,451.754303 362.946564,473.826233 332.845306,499.930756 
	C269.033875,555.269531 222.568008,623.082336 188.717041,699.995789 
	C163.256119,757.846130 146.398026,818.209534 135.775101,880.421753 
	C129.784088,915.507690 125.380974,950.757996 123.659752,986.328796 
	C123.274277,994.295044 122.501297,1002.242554 121.232422,1011.098511 
	C119.874535,1011.995850 119.190933,1011.993469 118.215271,1011.092957 
	C118.515747,992.261658 118.823997,974.313354 119.780098,956.399597 
	C120.752754,938.175781 122.097412,919.961731 123.755470,901.786804 
	C126.446266,872.291443 132.056717,843.255371 139.022034,814.511780 
	C153.899597,753.117126 176.273193,694.584351 206.207626,638.892029 
	C236.318619,582.871216 273.037933,531.600891 316.373535,485.168854 
	C346.153229,453.261322 378.465881,424.032104 413.459015,397.812622 
	C454.100250,367.361115 497.326233,341.193939 543.257507,319.628723 
	C600.109863,292.935883 659.476685,273.766357 721.293823,262.483734 
	C762.857239,254.897751 804.781555,250.483612 847.064026,250.336578 
	C862.675781,250.282272 878.323853,250.705322 893.895813,251.776642 
	C911.433472,252.983200 929.025269,254.393280 946.373840,257.115204 
	C969.648926,260.766937 992.713318,265.761597 1016.470581,270.617432 
	C1025.388550,272.688995 1033.704102,274.322815 1042.245361,276.460266 
	C1043.504395,277.053711 1044.537720,277.143494 1045.571167,277.233276 
	C1045.582275,276.983398 1045.593384,276.733551 1045.604492,276.483704 
	C1044.380493,276.340973 1043.156616,276.198273 1041.462646,275.537231 
	C1034.679199,272.806335 1028.365723,270.593750 1021.347168,268.086426 
	C1011.793030,264.903748 1002.984253,261.885101 994.088562,259.149261 
	C941.452087,242.961380 887.507935,233.627792 832.635132,230.470261 
	C795.446533,228.330322 758.220581,229.436295 721.069702,233.479813 
	C687.970764,237.082291 655.242554,242.591675 623.060181,250.851959 
	C569.708252,264.545837 518.589417,284.190033 469.885498,310.112305 
	C397.774353,348.492828 334.506622,398.064362 279.791809,458.678009 
	C229.413605,514.487549 189.287354,576.827271 159.201187,645.742920 
	C121.443466,732.231140 103.017181,822.745300 101.703018,916.920837 
	C101.345329,942.553406 102.962189,968.121399 106.499680,993.457703 
	C109.524971,1015.125732 114.192970,1036.564331 118.065239,1058.889160 
	C120.776756,1069.307373 123.557457,1078.940796 126.338135,1088.574341 
	C130.117386,1107.431885 134.531525,1126.188599 137.541229,1145.168213 
	C143.461029,1182.499268 154.948059,1218.140625 168.392899,1253.286133 
	C187.133926,1302.276367 211.401917,1348.411377 239.775406,1392.452271 
	C240.665131,1393.833252 241.326553,1395.361328 241.336304,1397.934570 
	C238.091339,1396.864624 235.503479,1394.784912 233.133286,1392.481323 
	C210.225555,1370.217041 189.357040,1346.156860 169.595093,1321.069580 
	C126.380043,1266.209595 90.483734,1206.930664 62.774330,1142.869019 
	C34.562630,1077.646240 14.999655,1009.948181 7.533138,939.026123 
	C6.712312,931.229370 5.215633,923.503723 4.112646,914.952515 
	C3.461914,910.773315 2.730959,907.386658 2.000002,904.000000 
	C2.000000,878.624878 2.000000,853.249756 2.700970,826.517700 
	C3.712570,820.219299 4.023201,815.277771 4.854944,809.671692 
	C8.373429,783.990845 10.164617,758.758850 14.593239,733.998596 
	C28.143145,658.241394 52.969437,586.269897 89.424484,518.349243 
	C127.968651,446.536316 176.569046,382.520508 236.307846,327.013031 
	C244.572815,319.333466 252.751709,311.561340 261.597534,303.787292 
	C274.111938,295.222717 285.720947,286.279388 297.933746,278.255035 
	C356.680634,239.655701 421.094391,214.076218 488.703705,195.961823 
	C550.598267,179.378571 613.692505,169.794205 677.561462,166.654617 
	C721.745300,164.482681 766.054321,164.245544 810.242065,169.506119 
	C846.307007,173.799652 881.866333,180.149673 916.910095,189.676682 
	C1032.839600,221.193298 1133.324341,279.671204 1219.444214,363.074585 
	C1247.002808,389.763733 1271.729004,419.020782 1294.429810,449.952454 
	C1296.695801,453.039917 1298.050659,456.796021 1299.828247,460.241821 
	C1297.326172,459.184631 1294.416016,458.633331 1292.383545,456.993927 
	C1264.366943,434.395813 1234.884033,413.909302 1203.989868,395.469025 
	C1133.401611,353.335907 1058.049927,323.452850 977.230042,307.765808 
	C950.485474,302.574707 923.591125,298.389801 896.295105,297.677734 
	C872.383179,297.053894 848.394348,295.348785 824.561096,296.544922 
	C767.360840,299.415558 711.128784,308.681213 656.187256,325.419250 
	C618.860779,336.790863 582.693115,351.009705 547.813171,368.358582 
	C512.605896,385.870178 479.065552,406.260284 446.197388,429.930420 
	C443.971649,430.815735 443.001953,431.497894 442.032257,432.180054 
	C442.032257,432.180023 442.147034,432.064240 442.196991,432.128662 
M60.308567,976.582031 
	C60.178036,974.967773 60.114563,973.344727 59.905907,971.740662 
	C58.703300,962.495239 57.466362,953.254395 56.301781,942.136719 
	C56.771019,921.533997 56.589035,900.890442 57.880081,880.339355 
	C59.376518,856.518799 61.041264,832.608582 64.618370,809.038696 
	C73.474182,750.686890 89.337387,694.183350 112.007133,639.600952 
	C146.579544,556.360291 194.739319,481.883423 256.417938,416.283264 
	C298.282104,371.757446 344.986572,332.908234 396.613220,299.990906 
	C466.512970,255.422592 541.595276,223.176483 622.250732,204.030563 
	C655.221436,196.203979 688.569092,190.680634 722.357117,187.487015 
	C749.184937,184.951279 776.000305,183.598877 802.913879,184.300354 
	C820.513733,184.759064 838.103027,185.624573 856.963257,187.377960 
	C867.174805,188.368317 877.386292,189.358658 887.597839,190.348999 
	C887.689575,189.641754 887.781311,188.934509 887.873108,188.227280 
	C879.278748,186.905151 870.684387,185.583008 860.490356,183.838821 
	C835.169739,180.638718 809.918396,176.587860 784.505737,174.517395 
	C765.416931,172.962189 746.151794,172.314926 726.914917,173.580444 
	C712.338623,174.539368 697.641724,174.186523 683.149658,175.786652 
	C658.439270,178.515030 633.680298,181.397980 609.237122,185.841171 
	C532.928162,199.712357 461.483215,227.103455 394.404694,265.845734 
	C324.892609,305.993530 264.287018,356.922058 212.406601,418.159821 
	C170.653351,467.443848 136.468262,521.548645 109.886993,580.448669 
	C84.451370,636.810242 66.653366,695.422241 57.456352,756.618408 
	C50.886013,800.336853 46.350033,844.164246 49.697483,888.454590 
	C51.147133,907.635010 52.743649,926.804321 54.067776,947.656677 
	C55.370869,957.814575 56.673962,967.972412 58.022026,979.700562 
	C59.079018,984.194214 60.136005,988.687866 61.192993,993.181519 
	C61.866531,993.048096 62.540073,992.914673 63.213612,992.781250 
	C62.389793,987.993042 61.565975,983.204773 60.308567,976.582031 
z"/>
<path fill="#813FB3" opacity="1.000000" stroke="none" 
	d="
M261.597534,303.787292 
	C272.072571,289.796631 282.504364,275.162170 294.407166,261.842194 
	C325.484711,227.064392 359.993683,195.878891 397.321045,167.934036 
	C461.870392,119.609642 532.183472,81.863525 608.000183,54.375370 
	C661.593689,34.944489 716.627808,21.063900 772.976807,12.751652 
	C799.220581,8.880341 825.731750,6.822055 853.825317,3.909476 
	C859.019287,3.251333 862.509644,2.625672 866.000000,2.000005 
	C884.708435,2.000000 903.416931,2.000000 923.062683,2.000002 
	C931.085327,3.205561 938.132141,4.749238 945.262207,5.562480 
	C996.325806,11.386675 1046.096924,22.786119 1094.625610,39.688541 
	C1138.414551,54.940083 1180.298462,74.321136 1220.486694,97.420723 
	C1262.706055,121.687866 1302.099365,149.938324 1338.645630,182.070938 
	C1383.516724,221.522858 1423.173828,265.706329 1457.206421,314.870972 
	C1457.573242,315.400940 1457.720093,316.083038 1457.570679,315.717194 
	C1446.544800,326.702942 1435.812744,337.395966 1425.001587,348.167786 
	C1418.709839,339.648254 1411.717041,330.051788 1404.592896,320.553833 
	C1359.528442,260.473206 1305.899414,209.383102 1244.172119,166.585800 
	C1191.043823,129.750397 1133.791260,101.199196 1072.711304,80.469940 
	C1028.249634,65.380600 982.609070,54.716373 935.833801,49.789574 
	C915.053833,47.600842 894.127930,46.798363 873.268799,45.359421 
	C828.895264,42.298359 785.162476,47.789257 741.574707,55.219093 
	C740.918457,55.330952 740.264648,55.457195 737.975891,55.706268 
	C728.429260,57.392845 720.516418,58.949883 712.603638,60.506920 
	C712.700989,61.121193 712.798340,61.735466 712.895691,62.349739 
	C721.248108,60.888229 729.600525,59.426720 737.952942,57.965210 
	C748.229126,57.311184 758.506836,56.680504 768.781189,55.998810 
	C801.044006,53.858223 833.211914,54.902279 865.420227,57.724823 
	C923.377686,62.803875 979.803345,74.837044 1034.861328,93.452126 
	C1088.002686,111.419281 1138.418091,135.204773 1186.071533,164.815582 
	C1238.596191,197.453262 1286.374023,235.995667 1329.322144,280.476074 
	C1354.997925,307.068024 1378.341675,335.631592 1400.004639,365.571472 
	C1401.347778,367.427887 1402.380737,369.508759 1403.105103,370.724823 
	C1392.177368,381.590790 1381.628784,392.079590 1370.608765,403.037231 
	C1267.485596,256.837006 1129.325806,159.339493 953.383972,118.168015 
	C825.775146,88.306763 699.515198,95.573334 573.827393,137.474213 
	C567.835632,139.354385 563.253784,140.926712 558.671875,142.499039 
	C558.958313,143.331940 559.244751,144.164841 559.531189,144.997742 
	C564.964111,143.337021 570.396973,141.676300 575.829895,140.015594 
	C597.717285,135.825287 619.483337,130.771866 641.524292,127.674637 
	C666.166138,124.211922 691.008728,121.325729 715.850220,120.321854 
	C761.818726,118.464203 807.612244,121.914314 853.040344,129.302231 
	C912.414124,138.958084 969.762512,155.653824 1025.059204,179.392578 
	C1094.679688,209.280457 1158.057251,249.054230 1215.513184,298.457581 
	C1260.635376,337.255798 1300.458618,380.801117 1335.066406,429.163910 
	C1336.590210,431.293488 1337.891479,433.582306 1339.858154,436.682556 
	C1329.010498,447.136536 1318.291260,457.466919 1306.699951,467.107788 
	C1304.543091,465.588348 1303.258179,464.758362 1301.973389,463.928375 
	C1301.973389,463.928375 1302.048706,463.944489 1302.225586,463.325684 
	C1301.548096,461.816315 1300.693604,460.925781 1299.839233,460.035248 
	C1299.839233,460.035248 1299.932129,460.143951 1299.880127,460.192871 
	C1298.050659,456.796021 1296.695801,453.039917 1294.429810,449.952454 
	C1271.729004,419.020782 1247.002808,389.763733 1219.444214,363.074585 
	C1133.324341,279.671204 1032.839600,221.193298 916.910095,189.676682 
	C881.866333,180.149673 846.307007,173.799652 810.242065,169.506119 
	C766.054321,164.245544 721.745300,164.482681 677.561462,166.654617 
	C613.692505,169.794205 550.598267,179.378571 488.703705,195.961823 
	C421.094391,214.076218 356.680634,239.655701 297.933746,278.255035 
	C285.720947,286.279388 274.111938,295.222717 261.597534,303.787292 
z"/>
<path fill="#813FB3" opacity="1.000000" stroke="none" 
	d="
M3002.000000,1167.062744 
	C2989.062988,1168.000000 2976.126221,1168.000000 2962.891113,1168.000000 
	C2962.183350,1164.381836 2961.692871,1161.873291 2961.086426,1158.773438 
	C2959.636963,1159.300903 2958.079590,1159.622803 2956.774170,1160.378906 
	C2933.460693,1173.881714 2908.856934,1175.477417 2883.661865,1167.355103 
	C2861.928467,1160.348755 2846.331543,1145.346802 2837.088135,1124.960327 
	C2820.489746,1088.352295 2820.299072,1051.251953 2840.330078,1015.872986 
	C2855.548340,988.994446 2879.933838,975.741028 2911.007812,974.898315 
	C2926.156738,974.487427 2940.635010,976.869263 2955.453125,984.759949 
	C2955.453125,962.015015 2955.453125,940.627441 2955.453125,918.050049 
	C2971.046387,918.050049 2985.586182,918.050049 3001.062988,918.025024 
	C3002.000000,1000.708435 3002.000000,1083.416870 3002.000000,1167.062744 
M2876.296875,1076.726074 
	C2876.689697,1088.161133 2878.895508,1099.158936 2884.541504,1109.238525 
	C2892.536377,1123.511597 2904.936279,1130.783569 2924.829590,1129.225586 
	C2941.472656,1127.922363 2953.087158,1118.081909 2957.809570,1101.686523 
	C2963.367676,1082.389404 2963.555908,1062.871582 2957.364014,1043.749756 
	C2953.000732,1030.275146 2943.965576,1020.651733 2929.363037,1018.275024 
	C2914.122559,1015.794495 2900.155029,1018.433838 2889.665527,1031.130127 
	C2879.150146,1043.857910 2876.193604,1058.916382 2876.296875,1076.726074 
z"/>
<!-- <path fill="#C7C9E8" opacity="1.000000" stroke="none" 
	d="
M802.888306,1726.000000 
	C802.015564,1725.658813 802.031189,1725.317505 802.029663,1724.464111 
	C807.042175,1724.181396 812.071716,1724.410889 817.550659,1725.320312 
	C813.258850,1726.000000 808.517761,1726.000000 802.888306,1726.000000 
z"/> -->
<!-- <path fill="#C7C9E8" opacity="1.000000" stroke="none" 
	d="
M894.875000,1726.000000 
	C898.109131,1725.309814 902.218262,1724.619751 907.162415,1723.949219 
	C907.985413,1724.307129 907.973328,1724.645752 907.980652,1725.492188 
	C903.916687,1726.000000 899.833313,1726.000000 894.875000,1726.000000 
z"/> -->
<!-- <path fill="#C7C9E8" opacity="1.000000" stroke="none" 
	d="
M865.143066,2.000005 
	C862.509644,2.625672 859.019287,3.251333 854.719849,3.749798 
	C853.910767,3.622600 853.931396,2.809982 853.965698,2.404991 
	C857.428711,2.000000 860.857422,2.000000 865.143066,2.000005 
z"/> -->
<path fill="#21C3BE" opacity="1.000000" stroke="none" 
	d="
M870.314209,1555.835938 
	C856.268250,1553.341797 842.116943,1551.328003 828.193176,1548.276367 
	C732.482971,1527.298950 645.483521,1487.000366 566.757080,1428.915283 
	C522.639221,1396.364624 482.908234,1358.992798 447.890625,1316.717896 
	C447.059906,1315.715210 446.540466,1314.454712 445.949219,1312.606812 
	C454.900146,1317.647217 463.859039,1323.273926 472.642334,1329.162476 
	C535.346436,1371.200317 602.896729,1402.691772 675.782898,1422.555298 
	C710.142090,1431.919067 745.010315,1438.363281 780.433655,1442.481323 
	C818.941284,1446.957764 857.504028,1447.407104 896.021973,1445.346558 
	C933.492004,1443.342163 970.629089,1437.720947 1007.280090,1429.287109 
	C1083.857788,1411.665527 1155.327026,1381.805542 1221.880127,1340.087524 
	C1224.363281,1338.531006 1226.941650,1337.126343 1228.669189,1336.120605 
	C1239.789917,1347.236450 1250.311401,1357.753296 1261.570312,1369.007324 
	C1176.739502,1425.672485 1083.701660,1462.954590 982.979614,1481.064453 
	C882.502380,1499.130493 782.669495,1495.658203 683.627686,1470.273682 
	C785.031555,1507.800903 889.514160,1519.917603 996.615479,1507.444458 
	C1103.722534,1494.971069 1202.733521,1459.174072 1292.096069,1401.214233 
	C1303.217285,1412.295410 1313.921875,1422.961182 1325.046143,1434.045166 
	C1323.616089,1435.090454 1321.100952,1437.137573 1318.389771,1438.879883 
	C1269.203247,1470.489746 1217.190186,1496.307617 1162.044312,1515.886475 
	C1113.615234,1533.080688 1063.861938,1544.570679 1013.031738,1551.527344 
	C998.579468,1553.505127 983.976196,1554.379272 967.668579,1555.864624 
	C939.194458,1555.975586 912.493896,1555.989624 885.793335,1555.980347 
	C880.633606,1555.978638 875.473938,1555.886475 870.314209,1555.835938 
z"/>
<path fill="#8240B3" opacity="1.000000" stroke="none" 
	d="
M1467.713379,982.000000 
	C1467.685669,1043.309448 1467.659790,1103.618896 1467.608154,1163.928345 
	C1467.607666,1164.564697 1467.269653,1165.200684 1466.868164,1166.615723 
	C1451.986084,1166.615723 1436.867188,1166.615723 1420.578003,1166.615723 
	C1420.578003,1132.786377 1420.578003,1099.017212 1420.578003,1064.673462 
	C1383.576294,1064.673462 1347.725586,1064.673462 1310.543701,1064.673462 
	C1310.076782,1075.711304 1310.379761,1086.918213 1310.326782,1098.104614 
	C1310.273071,1109.433350 1310.314941,1120.762451 1310.314941,1132.091431 
	C1310.314941,1143.389526 1310.314819,1154.687744 1310.314819,1166.683594 
	C1294.164795,1166.683594 1278.739014,1166.683594 1262.797241,1166.683594 
	C1262.797241,1083.999023 1262.797241,1001.825317 1262.797241,918.260681 
	C1278.250122,917.881775 1293.660767,917.994751 1309.962402,918.242004 
	C1309.962402,952.072693 1309.962402,985.239319 1309.962402,1018.138367 
	C1317.721802,1020.444031 1403.626465,1021.118958 1419.889648,1019.143677 
	C1419.889648,986.099792 1419.889648,952.928955 1419.889648,918.387939 
	C1428.191406,918.268250 1435.675415,918.117249 1443.160156,918.064331 
	C1450.809204,918.010254 1458.458862,918.052429 1467.386108,918.052429 
	C1468.033325,928.954224 1467.626465,939.498047 1467.698242,950.011963 
	C1467.768677,960.340881 1467.713623,970.670593 1467.713379,982.000000 
z"/>
<path fill="#20C4BE" opacity="1.000000" stroke="none" 
	d="
M817.976990,624.265747 
	C802.146851,624.592590 788.071350,627.721924 775.875977,636.925232 
	C761.910217,647.464600 753.950256,662.034912 750.558228,678.636780 
	C745.640747,702.705383 745.248230,726.964783 754.129578,750.417114 
	C763.071106,774.028687 779.467712,788.617065 805.209717,792.470886 
	C816.366455,794.141052 827.131653,793.566772 837.767273,790.982605 
	C855.591797,786.652039 868.407227,775.534424 876.960754,759.463135 
	C879.127441,755.392334 880.830139,751.074524 883.200500,745.872864 
	C898.876892,750.197632 914.372070,754.472473 930.415466,758.898560 
	C926.158264,775.505920 918.058167,789.020081 907.393921,801.099854 
	C885.087769,826.366699 856.439331,837.327271 823.316772,838.295837 
	C802.780701,838.896362 782.757385,836.562317 763.919067,827.946045 
	C733.668518,814.109924 713.865479,790.542053 704.416016,759.154053 
	C692.786072,720.523071 693.099792,681.655090 709.965515,644.420349 
	C725.696167,609.691650 752.862915,588.379211 790.795593,581.765442 
	C812.678101,577.950073 834.616150,577.990601 856.028015,584.284546 
	C893.638550,595.340027 917.512451,620.662598 930.979858,658.487244 
	C914.767273,663.051331 899.288208,667.408875 882.932861,672.013184 
	C872.457520,641.198730 851.271362,624.998657 817.976990,624.265747 
z"/>
<path fill="#20C4BE" opacity="1.000000" stroke="none" 
	d="
M1717.999512,666.223145 
	C1725.864624,636.620728 1741.649536,613.536011 1766.592651,596.955261 
	C1780.165405,587.932800 1795.344238,583.111694 1811.317871,580.984497 
	C1834.667603,577.875122 1857.949829,578.413452 1880.213135,586.882629 
	C1913.397461,599.506226 1934.947510,623.478882 1946.667114,658.016724 
	C1931.331665,663.810730 1915.541748,667.070984 1899.417969,671.791016 
	C1898.228516,669.314636 1896.997559,667.086182 1896.056274,664.741455 
	C1883.231934,632.800415 1854.244751,621.347595 1823.390503,625.014709 
	C1811.935059,626.376221 1801.353638,629.830383 1792.027588,636.768433 
	C1778.258545,647.011841 1770.401367,661.295532 1766.873535,677.479065 
	C1761.563843,701.836426 1761.167969,726.412415 1770.073120,750.227295 
	C1778.922607,773.893799 1795.321411,788.483887 1821.022583,792.455994 
	C1832.178833,794.180115 1842.967163,793.597534 1853.593262,791.045105 
	C1871.396973,786.768555 1884.341187,775.778381 1892.869385,759.643311 
	C1895.029785,755.556030 1896.772339,751.248108 1899.233398,745.897217 
	C1914.748413,750.158691 1930.255127,754.417847 1946.528076,758.887451 
	C1942.058350,775.271118 1934.272095,788.912537 1923.549072,800.971680 
	C1900.113281,827.327515 1870.179932,838.146729 1835.512207,838.356201 
	C1813.150391,838.491455 1791.675537,835.000732 1772.075073,823.983459 
	C1741.426270,806.755859 1723.782837,779.627197 1716.712036,745.878357 
	C1711.230591,719.715942 1711.431519,693.226257 1717.999512,666.223145 
z"/>
<path fill="#813FB3" opacity="1.000000" stroke="none" 
	d="
M2438.386963,918.063110 
	C2452.610596,918.060364 2465.868164,918.060364 2480.187744,918.060364 
	C2480.187744,940.357910 2480.187744,961.795410 2480.187744,983.928650 
	C2487.861572,981.360962 2494.217285,978.477722 2500.883545,977.135437 
	C2528.983154,971.477417 2555.206543,975.290405 2577.806152,994.335815 
	C2594.550537,1008.446594 2603.838135,1027.077881 2607.887451,1048.147461 
	C2612.617920,1072.762451 2610.949463,1096.902100 2601.028320,1120.427490 
	C2585.517090,1157.208618 2548.472168,1178.202637 2509.033691,1170.765259 
	C2497.485840,1168.587646 2486.441650,1163.741455 2474.600830,1159.936523 
	C2474.423584,1161.385376 2474.125732,1163.821899 2473.761963,1166.795166 
	C2459.943115,1166.795166 2446.472168,1166.795166 2432.357666,1166.795166 
	C2432.154785,1163.591919 2431.812500,1160.698608 2431.811523,1157.805298 
	C2431.782227,1081.146851 2431.787842,1004.488464 2431.790527,927.830078 
	C2431.790771,925.830505 2431.840576,923.830994 2431.840088,921.831421 
	C2431.839111,917.804810 2434.744873,918.111206 2438.386963,918.063110 
M2474.296143,1078.563965 
	C2475.598145,1086.384644 2476.200195,1094.403442 2478.346191,1101.985229 
	C2482.971436,1118.325562 2494.751465,1127.965332 2511.329346,1129.248169 
	C2528.549561,1130.580688 2543.171631,1125.372925 2551.379639,1109.146606 
	C2563.026611,1086.123047 2563.064941,1062.496094 2551.891357,1039.303223 
	C2544.066406,1023.061768 2528.478516,1015.870789 2508.593018,1018.011719 
	C2492.925781,1019.698425 2481.720459,1029.712891 2477.799072,1047.251953 
	C2475.651367,1056.858643 2475.401123,1066.889648 2474.296143,1078.563965 
z"/>
<path fill="#813FB3" opacity="1.000000" stroke="none" 
	d="
M1860.309937,1114.000000 
	C1860.310059,1131.968994 1860.310059,1148.938110 1860.310059,1166.642334 
	C1846.171387,1166.642334 1832.715698,1166.642334 1818.963867,1166.642334 
	C1818.512451,1163.897583 1818.094116,1161.353760 1817.639404,1158.588867 
	C1816.430176,1158.949463 1815.381714,1159.023926 1814.611572,1159.525879 
	C1778.858521,1182.821167 1711.502075,1178.611206 1689.254639,1114.363892 
	C1676.766602,1078.300659 1678.723145,1042.826538 1700.459351,1010.419434 
	C1715.679565,987.727173 1737.901001,976.203674 1765.343384,974.921021 
	C1781.197632,974.180054 1796.439209,976.402588 1812.001465,984.670471 
	C1812.001465,962.044739 1812.001465,940.674988 1812.001465,918.691284 
	C1828.328613,918.691284 1843.499390,918.691284 1858.808838,918.691284 
	C1858.930786,918.796692 1859.210693,918.990479 1859.427002,919.239624 
	C1859.631104,919.475037 1859.913330,919.768372 1859.913940,920.036804 
	C1860.060181,984.357849 1860.184692,1048.678955 1860.309937,1114.000000 
M1784.134277,1017.988647 
	C1759.732544,1015.544434 1742.677368,1026.858154 1736.110352,1050.229248 
	C1734.597046,1055.614868 1733.937988,1061.274170 1733.253296,1066.852783 
	C1731.335571,1082.476685 1734.021362,1097.455933 1742.135254,1110.851685 
	C1751.173828,1125.773804 1765.503296,1131.185303 1782.383301,1129.027588 
	C1799.262939,1126.869995 1809.922729,1117.043335 1814.597290,1100.577515 
	C1819.530762,1083.199951 1819.477295,1065.699219 1815.239258,1048.373535 
	C1811.446045,1032.866333 1802.929810,1021.123657 1784.134277,1017.988647 
z"/>
<path fill="#21C4BE" opacity="1.000000" stroke="none" 
	d="
M1295.843994,833.663208 
	C1287.240601,833.663025 1279.602051,833.663025 1272.149780,833.663025 
	C1269.811768,826.020813 1268.834473,607.973511 1270.943481,585.062378 
	C1286.263184,585.062378 1301.658813,585.062378 1318.214600,585.062378 
	C1318.214600,606.565308 1318.214600,627.974731 1318.214600,650.489319 
	C1322.316772,649.045837 1325.044189,648.098755 1327.762939,647.127380 
	C1352.061646,638.445618 1376.177002,638.835266 1399.486694,650.019897 
	C1423.947754,661.756958 1437.977295,682.422485 1444.380615,708.044617 
	C1452.510376,740.575317 1450.039795,772.205688 1431.506592,801.094604 
	C1416.493774,824.496155 1394.840088,837.126526 1366.787964,838.280090 
	C1348.769897,839.020935 1331.686157,836.045837 1316.252686,826.096924 
	C1315.467651,825.590881 1314.424072,825.485962 1312.889160,825.001038 
	C1312.468018,827.681763 1312.083252,830.131104 1311.528442,833.663330 
	C1306.592041,833.663330 1301.700317,833.663330 1295.843994,833.663208 
M1397.667480,750.042664 
	C1397.677856,745.044250 1397.834229,740.040955 1397.667969,735.048462 
	C1397.320801,724.616455 1395.017090,714.658691 1389.949829,705.437805 
	C1381.097656,689.328918 1366.085327,681.816467 1346.282959,684.348145 
	C1329.221436,686.529419 1320.219971,697.903625 1315.871460,713.440918 
	C1310.742188,731.768799 1311.083862,750.242065 1316.486694,768.457397 
	C1319.192139,777.578857 1324.170288,785.398132 1332.724609,790.386169 
	C1350.227173,800.592041 1381.929077,798.401306 1392.291504,769.956604 
	C1394.441528,764.054626 1395.784058,757.858521 1397.667480,750.042664 
z"/>
<path fill="#8240B3" opacity="1.000000" stroke="none" 
	d="
M1892.669922,1055.264893 
	C1896.707153,1033.666992 1904.589355,1014.917725 1920.015503,1000.012817 
	C1935.960938,984.606018 1955.226929,976.207825 1977.251709,975.148621 
	C1987.457031,974.657959 1997.989868,975.092590 2007.977783,977.090454 
	C2036.242920,982.744141 2055.325684,999.985962 2066.106445,1026.514282 
	C2073.910645,1045.718384 2074.961670,1065.740356 2073.108643,1087.324341 
	C2030.044556,1087.324341 1987.280640,1087.324341 1944.577637,1087.324341 
	C1944.048584,1104.068359 1954.561646,1119.258057 1969.334229,1124.379272 
	C1991.208862,1131.962524 2008.391724,1125.811646 2025.148926,1103.761719 
	C2040.214355,1108.123901 2055.653320,1112.594360 2071.779785,1117.263794 
	C2064.303223,1136.769165 2051.897217,1150.135010 2035.394531,1159.730469 
	C1997.492676,1181.768677 1942.935547,1173.784180 1914.727905,1141.109253 
	C1901.924927,1126.278809 1894.107666,1109.362671 1892.442627,1090.011230 
	C1891.477905,1078.798828 1892.382324,1067.425659 1892.669922,1055.264893 
M1988.719849,1016.047729 
	C1983.462158,1016.754211 1978.104248,1017.035339 1972.965820,1018.247498 
	C1957.870117,1021.808411 1946.852051,1035.109131 1945.615479,1050.700684 
	C1961.945435,1052.547241 2016.918213,1051.803223 2023.723877,1049.643555 
	C2022.819580,1031.327271 2013.886353,1020.782166 1996.279907,1017.247559 
	C1994.331055,1016.856323 1992.382324,1016.464417 1988.719849,1016.047729 
z"/>
<path fill="#813FB3" opacity="1.000000" stroke="none" 
	d="
M2639.398438,1081.652466 
	C2649.295166,1067.495850 2662.970703,1059.912231 2678.446533,1056.311523 
	C2699.147949,1051.495239 2720.187988,1048.134155 2741.082031,1044.144653 
	C2743.932373,1043.600464 2746.778809,1043.035767 2749.513916,1042.502563 
	C2748.968506,1030.372192 2742.853027,1022.751282 2731.646973,1020.094116 
	C2714.826172,1016.105591 2691.551514,1018.182861 2679.793945,1041.096069 
	C2665.931396,1036.689209 2651.879395,1032.222046 2637.298584,1027.586792 
	C2644.516846,1004.496399 2658.356934,988.509094 2680.022949,980.848267 
	C2707.688721,971.065857 2735.830322,972.157288 2762.968018,983.078308 
	C2784.836182,991.878784 2796.628662,1009.893066 2797.354004,1032.754639 
	C2798.726807,1076.025635 2798.086182,1119.360718 2798.237793,1162.669312 
	C2798.242188,1163.913696 2797.748535,1165.159912 2797.392334,1166.857422 
	C2783.946533,1166.857422 2770.774170,1166.857422 2756.378906,1166.857422 
	C2756.378906,1160.110474 2756.378906,1153.720337 2756.378906,1145.326904 
	C2753.287842,1148.113281 2751.736084,1149.228882 2750.531494,1150.640381 
	C2729.814453,1174.915405 2685.372559,1176.462646 2663.328125,1166.375732 
	C2645.401367,1158.173096 2634.533447,1144.318970 2631.708008,1124.532227 
	C2629.583008,1109.650269 2631.828125,1095.530151 2639.398438,1081.652466 
M2749.079102,1082.515259 
	C2739.968018,1084.019775 2730.711426,1084.943237 2721.783203,1087.177734 
	C2710.917480,1089.897217 2700.086182,1093.114868 2689.697754,1097.263306 
	C2681.773682,1100.427612 2677.316162,1107.223022 2677.806152,1116.181396 
	C2678.252930,1124.353149 2684.180908,1130.415894 2693.777588,1133.012939 
	C2695.994141,1133.612793 2698.333008,1133.822998 2700.631592,1134.049194 
	C2724.207764,1136.369507 2753.416504,1117.629517 2749.079102,1082.515259 
z"/>
<path fill="#813FB3" opacity="1.000000" stroke="none" 
	d="
M2391.457520,1019.170227 
	C2392.592285,1028.839722 2394.124756,1037.730103 2394.193848,1046.631958 
	C2394.476074,1082.929565 2394.310791,1119.230835 2394.310303,1155.530762 
	C2394.310059,1159.105225 2394.310059,1162.679565 2394.310059,1166.816162 
	C2380.084229,1166.816162 2366.914062,1166.816162 2352.794922,1166.816162 
	C2352.794922,1160.773560 2352.794922,1154.935669 2352.794922,1146.955566 
	C2347.735596,1150.909058 2344.030029,1153.382080 2340.818359,1156.383789 
	C2321.986084,1173.985229 2278.799316,1177.139038 2255.790039,1164.625122 
	C2237.675049,1154.773071 2228.191895,1139.191040 2227.767090,1118.487427 
	C2227.637939,1112.203735 2227.788086,1105.781006 2228.927490,1099.628784 
	C2233.016602,1077.546509 2248.163330,1065.499756 2268.083008,1058.406860 
	C2286.656738,1051.793335 2306.096191,1048.942505 2325.502686,1046.041748 
	C2332.320801,1045.022461 2339.110107,1043.811401 2346.351562,1042.615479 
	C2345.800537,1033.003052 2342.344971,1026.711914 2334.368652,1022.646362 
	C2314.236816,1012.385437 2289.517822,1019.850098 2276.425293,1041.104370 
	C2269.468262,1038.926270 2262.260254,1036.686157 2255.063232,1034.411377 
	C2248.151611,1032.226807 2241.251221,1030.006470 2233.586182,1027.559204 
	C2240.398682,1006.230957 2252.912354,990.943848 2272.948975,982.098694 
	C2290.551758,974.328064 2309.139160,974.169189 2327.826416,975.390686 
	C2333.098145,975.735229 2338.333008,976.900757 2343.541016,977.915466 
	C2366.981689,982.482910 2383.198242,995.609741 2391.457520,1019.170227 
M2284.545166,1131.113770 
	C2302.851074,1137.522461 2319.137939,1133.949707 2333.285400,1120.889771 
	C2344.607178,1110.437988 2347.766113,1097.377563 2345.650879,1082.081787 
	C2333.556641,1084.287231 2322.354492,1085.736938 2311.484131,1088.494263 
	C2302.253662,1090.835449 2292.791260,1093.568848 2284.526123,1098.117310 
	C2270.421875,1105.879272 2270.295410,1120.151123 2284.545166,1131.113770 
z"/>
<path fill="#20C4BE" opacity="1.000000" stroke="none" 
	d="
M1984.218262,680.401978 
	C2002.529907,654.772278 2027.017456,642.510681 2057.634033,641.564575 
	C2075.597900,641.009521 2092.848145,643.506470 2108.680176,652.289429 
	C2137.036865,668.020386 2151.884277,692.988647 2155.633789,724.549927 
	C2158.007080,744.524902 2156.598877,764.378723 2148.346191,783.232788 
	C2133.985107,816.041809 2108.764160,834.028259 2073.400635,837.783325 
	C2053.182373,839.930237 2033.472168,837.632935 2015.378540,827.637634 
	C1988.131958,812.585999 1972.604858,788.959412 1968.586304,758.517334 
	C1964.989380,731.268066 1967.821045,704.690308 1984.218262,680.401978 
M2092.392578,781.428223 
	C2109.952393,762.584045 2108.754639,725.316711 2098.757568,707.026184 
	C2092.968018,696.433411 2084.553223,689.521729 2072.730957,687.216980 
	C2068.224365,686.338501 2063.505127,686.259521 2058.886963,686.301331 
	C2042.414795,686.450195 2028.277588,695.911255 2022.732300,711.353882 
	C2016.255615,729.390869 2015.813110,747.834167 2022.115112,766.045471 
	C2025.687744,776.369568 2031.596680,785.433960 2042.221191,789.666321 
	C2059.861084,796.693359 2076.662354,795.617981 2092.392578,781.428223 
z"/>
<path fill="#21C4BE" opacity="1.000000" stroke="none" 
	d="
M2232.626465,836.003235 
	C2202.772705,826.440186 2190.599609,803.980225 2186.087158,776.001282 
	C2184.668701,767.206299 2184.418213,758.157837 2184.359131,749.220520 
	C2184.158203,718.904602 2184.282715,688.586670 2184.282471,658.269470 
	C2184.282471,654.681213 2184.282227,651.092896 2184.282227,646.874390 
	C2200.366699,646.874390 2215.522217,646.874390 2231.819092,646.874390 
	C2231.981689,650.318176 2232.284424,653.821838 2232.290039,657.326050 
	C2232.330811,683.312134 2232.010742,709.303589 2232.469971,735.281616 
	C2232.638672,744.829712 2234.526611,754.356750 2235.811523,763.868835 
	C2236.117920,766.136475 2237.023682,768.356140 2237.870605,770.512634 
	C2245.484375,789.895325 2259.613037,795.915588 2278.334717,793.056030 
	C2297.340088,790.153137 2309.427734,775.719666 2310.119629,754.194763 
	C2311.145508,722.283386 2311.217773,690.341309 2311.680664,658.412048 
	C2311.733154,654.799255 2311.687988,651.185059 2311.687988,646.905151 
	C2327.636963,646.905151 2342.820557,646.905151 2358.066162,646.905151 
	C2360.186035,653.751709 2361.139404,810.142273 2359.066162,832.834717 
	C2345.752197,832.834717 2332.335449,832.834717 2318.115479,832.834717 
	C2317.897217,827.890259 2317.681396,823.000366 2317.425781,817.213379 
	C2308.824707,822.461975 2300.866455,828.090454 2292.239014,832.370422 
	C2283.245605,836.831970 2273.325684,838.743896 2263.179199,838.228210 
	C2253.253662,837.723694 2243.344482,836.885986 2232.626465,836.003235 
z"/>
<path fill="#21C4BE" opacity="1.000000" stroke="none" 
	d="
M1229.710205,754.000000 
	C1229.710083,780.628540 1229.710083,806.257141 1229.710083,833.355408 
	C1215.867554,833.941711 1202.460327,833.652893 1187.944336,833.491577 
	C1187.944336,827.782410 1187.944336,822.687439 1187.944336,815.930908 
	C1184.089844,818.686707 1181.668213,820.233948 1179.451050,822.033325 
	C1165.727295,833.171570 1150.030518,838.406921 1132.388184,838.307007 
	C1119.746460,838.235352 1107.173950,838.622375 1095.139648,833.385010 
	C1077.433350,825.679016 1066.250488,812.052734 1060.622437,794.243958 
	C1057.259399,783.602051 1054.795898,772.227112 1054.564819,761.126770 
	C1053.816284,725.174377 1054.279053,689.196655 1054.306274,653.228699 
	C1054.307739,651.299561 1054.593872,649.370728 1054.793945,646.859680 
	C1070.395752,646.859680 1085.547241,646.859680 1101.823730,646.859680 
	C1101.985596,650.338135 1102.284546,653.843323 1102.290161,657.348999 
	C1102.330811,682.659729 1102.157104,707.971924 1102.400879,733.280396 
	C1102.480469,741.549316 1103.275146,749.851257 1104.367554,758.054810 
	C1104.973022,762.601257 1106.479248,767.137878 1108.249634,771.400574 
	C1117.729126,794.225220 1146.177612,801.561157 1165.501343,785.903625 
	C1175.672119,777.662537 1179.846069,765.936279 1180.167358,753.242981 
	C1180.966553,721.666382 1181.222534,690.075928 1181.681030,658.490845 
	C1181.733643,654.869812 1181.688110,651.247253 1181.688110,646.931580 
	C1197.815674,646.931580 1213.224487,646.931580 1229.710327,646.931580 
	C1229.710327,682.582397 1229.710327,717.791199 1229.710205,754.000000 
z"/>
<path fill="#21C4BE" opacity="1.000000" stroke="none" 
	d="
M2569.769531,686.497620 
	C2573.854492,699.383972 2575.700928,711.820190 2575.709717,724.527344 
	C2575.732422,756.860046 2575.717285,789.192810 2575.717529,821.525513 
	C2575.717529,825.129761 2575.717773,828.734009 2575.717773,832.988647 
	C2559.689941,832.988647 2544.531494,832.988647 2528.206055,832.988647 
	C2528.036133,829.587585 2527.715332,826.088562 2527.709229,822.588989 
	C2527.666016,796.922913 2528.172119,771.243347 2527.465576,745.596619 
	C2527.149170,734.108582 2525.803467,722.283997 2522.558350,711.311890 
	C2513.803955,681.710938 2482.621582,681.617798 2465.894043,692.677856 
	C2458.590088,697.507141 2454.032471,704.612793 2452.165283,712.819580 
	C2450.117676,721.817871 2448.641846,731.133545 2448.480469,740.338257 
	C2448.008057,767.329468 2448.312012,794.334290 2448.312012,821.333740 
	C2448.312012,824.966858 2448.312012,828.600037 2448.312012,832.948059 
	C2432.458008,832.948059 2417.269531,832.948059 2401.994141,832.948059 
	C2399.801514,826.266113 2398.801514,669.980530 2400.885986,647.874756 
	C2407.774170,645.848755 2429.531250,645.467468 2441.875732,647.278320 
	C2442.126953,652.203186 2442.387207,657.305542 2442.631104,662.086853 
	C2451.792480,656.703064 2460.059326,650.292847 2469.406494,646.673096 
	C2489.220215,639.000244 2509.996582,639.107605 2530.196045,644.955139 
	C2550.673340,650.883057 2562.503418,666.277649 2569.769531,686.497620 
z"/>
<path fill="#21C4BE" opacity="1.000000" stroke="none" 
	d="
M1615.562744,811.337646 
	C1601.447266,828.858643 1582.859619,835.781372 1561.929443,837.694336 
	C1543.528198,839.376160 1525.281372,838.583801 1507.795532,831.985474 
	C1482.532837,822.452454 1468.441772,803.908997 1463.999268,776.690063 
	C1480.369629,774.175903 1496.040894,771.769165 1511.508057,769.393738 
	C1512.541504,770.827881 1513.402588,771.530701 1513.618652,772.394775 
	C1518.821533,793.202087 1545.284790,802.104492 1565.167358,794.888550 
	C1572.863892,792.095276 1576.861816,785.658325 1576.273560,777.876648 
	C1575.920166,773.200745 1574.136841,769.456177 1569.600708,767.632996 
	C1564.372192,765.531616 1559.126831,763.430908 1553.768799,761.701294 
	C1536.707153,756.194214 1519.360229,751.482422 1502.555664,745.290527 
	C1484.146729,738.507507 1471.571411,726.131287 1470.297974,705.153687 
	C1468.905396,682.217407 1477.424805,664.529968 1497.326660,652.264038 
	C1521.707397,637.237671 1578.350952,635.972168 1604.937134,660.489502 
	C1615.241943,669.992493 1622.796509,683.561340 1623.018188,697.477356 
	C1607.583008,700.244507 1592.021484,703.034363 1576.364990,705.841187 
	C1574.316284,701.609558 1573.014282,697.781799 1570.812134,694.571655 
	C1562.024414,681.761475 1536.848633,678.082153 1523.608887,687.250610 
	C1515.077515,693.158508 1515.626953,703.967468 1525.315308,707.930725 
	C1537.258545,712.816284 1549.924927,715.924561 1562.252563,719.882385 
	C1572.366943,723.129639 1582.593018,726.102173 1592.508911,729.880432 
	C1628.436035,743.569702 1631.107422,775.858459 1620.706299,801.963684 
	C1619.484619,805.029846 1617.565063,807.817749 1615.562744,811.337646 
z"/>
<path fill="#8240B3" opacity="1.000000" stroke="none" 
	d="
M1635.423096,1101.323975 
	C1615.909180,1150.840820 1596.697388,1199.641968 1577.332886,1248.831177 
	C1562.912231,1248.831177 1548.771362,1248.831177 1532.902588,1248.831177 
	C1543.215820,1220.253418 1553.194214,1192.603149 1563.204224,1164.865234 
	C1538.378784,1103.735352 1513.525513,1042.536743 1488.342285,980.525879 
	C1505.643921,980.525879 1521.750488,980.525879 1538.217651,980.525879 
	C1553.962402,1021.207825 1569.597534,1061.606323 1585.232666,1102.004761 
	C1585.948853,1102.067993 1586.665039,1102.131226 1587.381226,1102.194458 
	C1603.049072,1061.546509 1618.716797,1020.898499 1634.337036,980.373901 
	C1650.503296,980.373901 1665.770264,980.373901 1682.263428,980.373901 
	C1677.045776,993.974182 1672.122803,1006.917908 1667.117676,1019.829834 
	C1656.676636,1046.765015 1646.192017,1073.683228 1635.423096,1101.323975 
z"/>
<path fill="#8341B4" opacity="1.000000" stroke="none" 
	d="
M1059.092773,1167.136108 
	C1057.568481,1163.180420 1056.370361,1159.417236 1056.363037,1155.651611 
	C1056.245483,1095.696655 1056.280151,1035.741211 1056.280151,975.786011 
	C1056.280151,972.167786 1056.280151,968.549622 1056.280151,963.824463 
	C1030.147339,963.824463 1004.701050,963.824463 977.862122,963.824463 
	C977.517578,948.302795 977.705627,933.864929 977.732727,918.732422 
	C1045.777954,918.732422 1113.226196,918.732422 1181.990967,918.732422 
	C1182.109375,925.640320 1182.280518,932.788940 1182.340820,939.938477 
	C1182.402222,947.222900 1182.354492,954.508301 1182.354492,963.272705 
	C1156.119141,963.583313 1130.630859,963.239136 1103.907715,963.482727 
	C1103.907715,1031.473633 1103.907715,1098.856201 1103.907715,1167.327393 
	C1088.431763,1167.327393 1074.202393,1167.327393 1059.092773,1167.136108 
z"/>
<path fill="#20C4BE" opacity="1.000000" stroke="none" 
	d="
M2603.512939,709.819458 
	C2612.523438,677.156006 2631.783447,654.408813 2663.928711,645.417603 
	C2692.070557,637.546143 2720.234131,638.990906 2745.488770,655.768433 
	C2762.382080,666.991272 2773.710205,682.591980 2777.268555,704.180908 
	C2761.700928,708.319824 2746.408203,712.385681 2730.554688,716.600586 
	C2728.689209,712.872620 2727.214111,709.602112 2725.465820,706.484985 
	C2717.556885,692.386597 2705.532471,685.578186 2689.318848,686.261841 
	C2674.222412,686.898499 2663.048584,694.260010 2657.121338,707.737183 
	C2647.408203,729.823914 2647.271240,752.299927 2658.379639,774.150513 
	C2665.912842,788.968933 2679.020020,793.998962 2694.853760,793.632996 
	C2710.143799,793.279602 2720.551270,785.943848 2726.271484,771.813110 
	C2726.895020,770.273010 2727.689697,768.800110 2728.452148,767.320435 
	C2728.584473,767.063782 2728.954102,766.929443 2730.209961,766.007996 
	C2745.209229,769.163513 2761.017090,772.489014 2777.416260,775.939026 
	C2770.101318,805.026733 2753.047119,824.346802 2725.425293,833.556396 
	C2706.087158,840.003967 2685.986572,840.575256 2666.328125,835.378296 
	C2630.068359,825.792603 2610.108154,800.603943 2602.285400,764.958435 
	C2598.311279,746.848999 2598.706787,728.654114 2603.512939,709.819458 
z"/>
<path fill="#8342B4" opacity="1.000000" stroke="none" 
	d="
M953.724243,1022.000000 
	C953.724182,1070.583862 953.724182,1118.167847 953.724182,1167.209106 
	C945.701904,1167.279175 938.197327,1167.370605 930.692444,1167.402954 
	C923.079590,1167.435669 915.466431,1167.410156 908.079102,1167.410156 
	C905.835510,1159.481445 904.950500,940.431152 906.990662,918.322693 
	C914.316162,918.231079 921.810547,918.100098 929.305542,918.054016 
	C936.936035,918.007080 944.567017,918.043701 953.356201,918.043701 
	C954.140381,952.717590 953.528748,986.864868 953.724243,1022.000000 
z"/>
<path fill="#8342B4" opacity="1.000000" stroke="none" 
	d="
M714.275757,1098.000000 
	C714.275818,1037.804932 714.275818,978.609985 714.275818,918.731079 
	C730.159973,918.731079 745.270935,918.731079 761.057861,918.731079 
	C761.057861,1001.194336 761.057861,1083.571045 761.057861,1167.410156 
	C753.466736,1167.410156 745.936218,1167.410034 738.405640,1167.410034 
	C730.811646,1167.410034 723.217651,1167.410156 714.275635,1167.410156 
	C714.275635,1144.001587 714.275635,1121.500732 714.275757,1098.000000 
z"/>
<path fill="#8342B4" opacity="1.000000" stroke="none" 
	d="
M857.729004,1040.000000 
	C857.728943,1082.592285 857.728943,1124.184570 857.728943,1167.211426 
	C849.691284,1167.280762 842.180664,1167.370972 834.669739,1167.402954 
	C827.058044,1167.435303 819.445984,1167.410156 812.061157,1167.410156 
	C809.855469,1159.492554 808.998535,939.515442 811.010376,918.316833 
	C818.336792,918.227173 825.834167,918.098938 833.332092,918.053772 
	C840.960449,918.007812 848.589355,918.043701 855.681274,918.043701 
	C856.437805,918.869812 856.680054,919.101868 856.882507,919.364624 
	C857.077881,919.618103 857.382324,919.902588 857.383240,920.174316 
	C857.513672,959.782837 857.620911,999.391418 857.729004,1040.000000 
z"/>
<path fill="#8240B3" opacity="1.000000" stroke="none" 
	d="
M2105.686035,1032.000000 
	C2105.686035,1014.409302 2105.686035,997.818665 2105.686035,980.648376 
	C2119.724121,980.648376 2132.918945,980.648376 2147.098145,980.648376 
	C2147.098145,988.351929 2147.098145,996.178894 2147.098145,1004.005920 
	C2147.584229,1004.459412 2148.070068,1004.912903 2148.556152,1005.366394 
	C2165.516113,983.048645 2188.413574,977.494019 2215.030029,979.657959 
	C2215.030029,994.618713 2215.030029,1008.722290 2215.030029,1023.390320 
	C2209.958984,1023.390320 2205.082520,1023.503540 2200.213135,1023.371277 
	C2174.056152,1022.661011 2153.290039,1042.203247 2153.632324,1069.617065 
	C2153.989990,1098.266724 2153.709961,1126.924194 2153.708740,1155.578247 
	C2153.708740,1159.150146 2153.708984,1162.721924 2153.708984,1166.820557 
	C2137.423096,1166.820557 2122.259277,1166.820557 2105.686279,1166.820557 
	C2105.686279,1122.001465 2105.686279,1077.500732 2105.686035,1032.000000 
z"/>
<path fill="#1EC3BD" opacity="1.000000" stroke="none" 
	d="
M1012.298706,752.000000 
	C1012.298767,779.551453 1012.298767,806.102844 1012.298767,833.145874 
	C996.557434,833.145874 982.014893,833.145874 967.486877,833.145874 
	C965.289124,826.298828 964.457153,596.964966 966.637634,580.302124 
	C981.338928,580.302124 996.139038,580.302124 1012.298584,580.302124 
	C1012.298584,637.288818 1012.298584,694.144409 1012.298706,752.000000 
z"/>
<path fill="#1EC3BD" opacity="1.000000" stroke="none" 
	d="
M2946.237793,829.400513 
	C2944.799561,831.430481 2943.422607,833.441162 2942.010986,833.466003 
	C2928.424561,833.704895 2914.832031,833.609131 2901.437012,833.609131 
	C2899.346436,825.817261 2898.651855,596.174072 2900.570312,580.335510 
	C2915.253174,580.335510 2930.039795,580.335510 2946.282715,580.335510 
	C2946.282715,663.034058 2946.282715,745.747009 2946.237793,829.400513 
z"/>
<path fill="#21C2BD" opacity="1.000000" stroke="none" 
	d="
M1376.154053,1492.056152 
	C1369.364258,1496.108643 1362.457275,1500.043823 1355.659790,1504.160034 
	C1318.549927,1526.632690 1278.284546,1540.910522 1236.034546,1549.806641 
	C1203.159790,1556.728882 1169.912476,1561.039185 1136.301636,1562.224243 
	C1115.701050,1562.950439 1095.099731,1563.653198 1074.497314,1564.325195 
	C1064.881348,1564.638916 1055.262207,1564.854980 1045.044678,1564.656494 
	C1154.333740,1551.505981 1256.013550,1515.709229 1347.911499,1455.951782 
	C1359.390991,1466.713867 1370.248413,1476.876953 1381.044312,1487.105103 
	C1381.315674,1487.362183 1380.906250,1488.337891 1379.765381,1489.491699 
	C1377.822632,1490.724121 1376.928955,1491.443359 1376.035156,1492.162598 
	C1376.035156,1492.162476 1376.087280,1492.022339 1376.154053,1492.056152 
z"/>
<path fill="#22C4BE" opacity="1.000000" stroke="none" 
	d="
M2851.634766,704.000000 
	C2851.634766,747.515564 2851.634766,790.031128 2851.634766,833.106689 
	C2835.403320,833.106689 2820.262451,833.106689 2804.400879,833.106689 
	C2804.400879,771.105591 2804.400879,709.376160 2804.400879,646.937256 
	C2819.781738,646.937256 2835.183350,646.937256 2851.635010,646.937256 
	C2851.635010,665.889832 2851.635010,684.444885 2851.634766,704.000000 
z"/>
<path fill="#22C4BE" opacity="1.000000" stroke="none" 
	d="
M2803.684082,592.138550 
	C2803.683838,587.861267 2803.683838,584.563171 2803.683838,580.448792 
	C2819.616211,580.448792 2835.003906,580.448792 2851.013672,580.448792 
	C2851.013672,593.694702 2851.013672,606.866394 2851.013672,620.858582 
	C2835.705566,620.858582 2820.327637,620.858582 2803.684082,620.858582 
	C2803.684082,611.524231 2803.684082,602.320984 2803.684082,592.138550 
z"/>
<!-- <path fill="#21C3BE" opacity="1.000000" stroke="none" 
	d="
M1302.136353,464.502258 
	C1303.258179,464.758362 1304.543091,465.588348 1306.039795,467.023376 
	C1304.934204,466.777710 1303.616699,465.926941 1302.136353,464.502258 
z"/> -->
<!-- <path fill="#813FB3" opacity="1.000000" stroke="none" 
	d="
M1376.656006,1492.269897 
	C1376.928955,1491.443359 1377.822632,1490.724121 1379.319946,1489.878174 
	C1379.041382,1490.626587 1378.159058,1491.501953 1376.656006,1492.269897 
z"/> -->
<!-- <path fill="#813FB3" opacity="1.000000" stroke="none" 
	d="
M442.585510,432.649658 
	C443.001953,431.497894 443.971649,430.815735 445.584625,430.225647 
	C445.198181,431.251556 444.168457,432.185394 442.585510,432.649658 
z"/> -->
<!-- <path fill="#21C3BE" opacity="1.000000" stroke="none" 
	d="
M1299.346069,460.625610 
	C1300.693604,460.925781 1301.548096,461.816315 1302.239502,463.361511 
	C1301.002075,463.082764 1299.927490,462.149384 1299.346069,460.625610 
z"/> -->
<!-- <path fill="#21C3BE" opacity="1.000000" stroke="none" 
	d="
M445.958984,1311.367432 
	C445.414093,1311.728882 444.727051,1311.470825 443.744873,1310.700684 
	C444.238739,1310.375122 445.027771,1310.561523 445.958984,1311.367432 
z"/> -->
<path fill="#22C4BE" opacity="1.000000" stroke="none" 
	d="
M122.033958,1053.462646 
	C120.765900,1040.899414 119.555618,1027.362061 118.426331,1012.907837 
	C119.190933,1011.993469 119.874535,1011.995850 121.068947,1011.998413 
	C121.750420,1025.495117 121.921082,1038.991821 122.033958,1053.462646 
z"/>
<!-- <path fill="#C7C9E8" opacity="1.000000" stroke="none" 
	d="
M118.065239,1058.889160 
	C118.902000,1058.045654 119.669594,1057.986694 121.267288,1058.575439 
	C122.744194,1062.017944 123.390991,1064.812622 124.037796,1067.607422 
	C124.818581,1073.985840 125.599358,1080.364380 126.359146,1087.658569 
	C123.557457,1078.940796 120.776756,1069.307373 118.065239,1058.889160 
z"/> -->
<path fill="#22C4BE" opacity="1.000000" stroke="none" 
	d="
M123.995346,1066.845215 
	C123.390991,1064.812622 122.744194,1062.017944 121.839844,1058.494141 
	C121.582283,1057.765259 121.837769,1056.799561 121.978729,1056.318604 
	C122.730751,1059.252686 123.341820,1062.667847 123.995346,1066.845215 
z"/>
<path fill="#21C3BE" opacity="1.000000" stroke="none" 
	d="
M246.204895,1403.694092 
	C244.429352,1402.689575 242.652298,1400.966675 241.357605,1398.643066 
	C243.294434,1399.686890 244.748901,1401.331177 246.204895,1403.694092 
z"/>
<!-- <path fill="#C7C9E8" opacity="1.000000" stroke="none" 
	d="
M176.486572,893.854126 
	C175.970688,893.592957 176.012863,893.042542 176.653290,892.230103 
	C177.143951,892.510193 177.074966,893.042480 176.486572,893.854126 
z"/> -->
<!-- <path fill="#C7C9E8" opacity="1.000000" stroke="none" 
	d="
M54.170616,946.817627 
	C54.883812,945.737915 55.353947,945.334045 55.962463,944.389465 
	C57.466362,953.254395 58.703300,962.495239 59.905907,971.740662 
	C60.114563,973.344727 60.178036,974.967773 59.828224,977.470581 
	C58.890942,978.282837 58.434002,978.206543 57.977055,978.130310 
	C56.673962,967.972412 55.370869,957.814575 54.170616,946.817627 
z"/> -->
<!-- <path fill="#C7C9E8" opacity="1.000000" stroke="none" 
	d="
M1016.470581,270.617432 
	C1017.615479,269.898682 1019.362854,269.617676 1021.581238,268.858887 
	C1028.365723,270.593750 1034.679199,272.806335 1041.488159,275.515259 
	C1041.983765,276.011627 1042.019653,275.956635 1042.019653,275.956635 
	C1033.704102,274.322815 1025.388550,272.688995 1016.470581,270.617432 
z"/> -->
<path fill="#22C4BE" opacity="1.000000" stroke="none" 
	d="
M57.999542,978.915405 
	C58.434002,978.206543 58.890942,978.282837 60.045021,978.387817 
	C61.565975,983.204773 62.389793,987.993042 63.213612,992.781250 
	C62.540073,992.914673 61.866531,993.048096 61.192993,993.181519 
	C60.136005,988.687866 59.079018,984.194214 57.999542,978.915405 
z"/>
<!-- <path fill="#C7C9E8" opacity="1.000000" stroke="none" 
	d="
M1041.958252,276.033569 
	C1043.156616,276.198273 1044.380493,276.340973 1045.604492,276.483704 
	C1045.593384,276.733551 1045.582275,276.983398 1045.571167,277.233276 
	C1044.537720,277.143494 1043.504395,277.053711 1042.245361,276.460266 
	C1042.019653,275.956635 1041.983765,276.011627 1041.958252,276.033569 
z"/> -->
</svg>