<svg width="350" height="350" viewBox="0 0 350 350" fill="none" xmlns="http://www.w3.org/2000/svg">
<path d="M110.002 240.179C110.002 240.179 125.403 284.547 192.909 290.619L187.358 287.47L225.646 286.77L222.548 288.671L230.048 287.27C241.88 283.881 252.932 278.669 262.894 271.966L257.824 266.896C241.044 277.871 221.049 284.381 199.497 284.696C190.101 284.834 181.107 283.417 172.374 281.324C178.505 282.227 184.675 283.021 191.071 282.928C214.438 282.586 236.105 275.377 254.186 263.257L249.112 258.183C232.369 269.086 212.441 275.544 190.969 275.858C175.68 276.082 161.098 273.131 147.802 267.678C158.433 270.687 169.448 272.758 181.055 272.588C204.338 272.247 225.934 265.089 243.975 253.047L238.889 247.961C222.189 258.783 202.338 265.194 180.954 265.507C153.908 265.902 129.341 256.117 110.002 240.179Z" fill="#1EC3BD"/>
<path d="M152.899 57.1442C152.877 57.1458 152.854 57.1464 152.831 57.148L131.127 60.8645C81.5306 74.2892 45 119.633 45 173.453C45 175.442 45.0529 177.417 45.1531 179.38C48.3646 228.92 83.965 259.229 83.965 259.229C71.0366 241.244 70.3279 216.774 70.3279 192.912C70.3279 132.358 119.342 83.3439 179.896 83.3439C206.945 83.3439 232.095 94.5127 251.199 110.732C251.199 110.732 233.526 58.4501 152.898 57.144L152.899 57.1442ZM161.635 63.8888C171.033 63.8888 180.607 65.2488 189.308 67.4697C183.191 66.4773 176.431 65.7784 170.035 65.7784C105.659 65.7784 53.4009 118.037 53.4009 182.412C53.4009 187.603 54.2643 192.556 54.9228 197.568C53.1739 189.79 52.0708 181.762 52.0708 173.453C52.0708 112.899 101.081 63.8888 161.635 63.8888ZM170.035 72.8477C185.325 72.8477 199.861 76.0113 213.077 81.6579C202.491 78.4943 191.506 76.263 179.897 76.263C115.522 76.263 63.2635 128.537 63.2635 192.912C62.8298 200.602 64.1378 206.295 65.2587 212.782C62.4489 203.079 60.4702 193.026 60.4702 182.412C60.4702 121.858 109.48 72.8477 170.035 72.8477Z" fill="#1EC3BD"/>
<path d="M115.12 104.509C115.12 104.509 65.6051 120.8 63.6273 199.962C63.6878 200.948 63.7698 202.178 63.8855 203.452L67.3047 223.42C80.7294 273.015 126.073 309.546 179.893 309.546C181.882 309.546 183.857 309.494 185.82 309.394C235.36 306.182 262.894 271.966 262.894 271.966C244.91 284.894 223.214 284.219 199.352 284.219C138.798 284.219 89.7841 235.205 89.7841 174.65C89.7841 147.602 98.9007 123.612 115.12 104.509ZM88.0981 141.471C84.9345 152.057 82.7031 163.041 82.7032 174.65C82.7032 239.026 134.977 291.284 199.353 291.284C206.159 291.284 212.735 290.41 219.223 289.289C209.52 292.099 199.466 294.077 188.852 294.077C128.298 294.077 79.2878 245.067 79.2878 184.513C79.2878 169.223 82.4515 154.686 88.0981 141.471ZM74.0963 165.84C73.104 171.958 72.2185 178.117 72.2185 184.513C72.2185 248.888 124.477 301.147 188.852 301.147C194.043 301.147 198.996 300.283 204.008 299.625C196.23 301.374 188.203 302.477 179.893 302.477C119.339 302.477 70.3289 253.467 70.3289 192.912C70.3289 183.515 71.8755 174.542 74.0963 165.84Z" fill="#5D2589" fill-opacity="0.992157"/>
<path d="M188.837 37.0199C116.794 37.566 85.4417 85.1788 85.4417 85.1788C104.78 69.2412 135.141 62.4173 162.187 62.8129C199.298 63.3559 231.8 82.2485 251.201 110.733L256.251 105.679C235.5 75.9674 201.258 56.302 162.289 55.7319C150.681 55.562 139.666 57.6332 129.035 60.6416C142.331 55.189 156.914 52.2376 172.202 52.4613C209.401 53.0055 241.965 71.9848 261.349 100.581L266.407 95.5265C245.67 65.7081 211.36 45.9634 172.304 45.392C165.909 45.2984 159.735 46.0932 153.604 46.996C162.337 44.9026 171.334 43.4862 180.731 43.6237C218.009 44.169 250.634 63.2327 270.003 91.9312L275.061 86.8728C259.925 65.0255 237.509 48.5636 211.277 41.0494L190.531 37.1842L188.837 37.0199Z" fill="#5D2589" fill-opacity="0.992157"/>
<path d="M209.888 44.8445L215.665 42.5895C215.665 42.5895 206.233 38.5841 189.336 37.1445C172.439 35.705 143.001 45.4923 143.001 45.4923L179.877 42.189L209.888 44.8445Z" fill="#5D2589" fill-opacity="0.992157"/>
<path d="M67.3047 223.42C67.3047 223.42 64.3511 209.391 63.8855 203.452C63.3608 196.761 65.956 193.726 65.956 193.726L70.5773 216.659L67.3047 223.42Z" fill="#5D2589" fill-opacity="0.992157"/>
</svg>
