<?xml version="1.0" encoding="UTF-8" standalone="no"?>
<!DOCTYPE svg PUBLIC "-//W3C//DTD SVG 1.1//EN" "http://www.w3.org/Graphics/SVG/1.1/DTD/svg11.dtd">
<!-- Created with Vectornator (http://vectornator.io/) -->
<svg height="100%" stroke-miterlimit="10" style="fill-rule:nonzero;clip-rule:evenodd;stroke-linecap:round;stroke-linejoin:round;" version="1.1" viewBox="0 0 187.195 221.782" width="100%" xml:space="preserve" xmlns="http://www.w3.org/2000/svg" xmlns:vectornator="http://vectornator.io" xmlns:xlink="http://www.w3.org/1999/xlink">
<defs/>
<clipPath id="ArtboardFrame">
<rect height="221.782" width="187.195" x="0" y="0"/>
</clipPath>
<g clip-path="url(#ArtboardFrame)" id="Layer-1" vectornator:layerName="Layer 1">
<g opacity="1" vectornator:layerName="g1123">
<g opacity="1" vectornator:layerName="g3288">
<g opacity="1" vectornator:layerName="g3274">
<path d="M52.8928 165.335C52.8928 165.335 65.4241 201.439 120.355 206.38L115.837 203.818L146.993 203.248L144.472 204.795L150.574 203.655C160.202 200.897 169.196 196.656 177.302 191.201L173.176 187.076C159.522 196.007 143.252 201.304 125.715 201.56C118.069 201.672 110.751 200.52 103.645 198.816C108.634 199.551 113.655 200.198 118.858 200.122C137.873 199.843 155.503 193.977 170.216 184.115L166.087 179.986C152.463 188.858 136.248 194.113 118.776 194.369C106.335 194.551 94.4697 192.149 83.6504 187.712C92.3007 190.16 101.264 191.846 110.709 191.708C129.654 191.43 147.227 185.605 161.907 175.806L157.769 171.667C144.179 180.474 128.027 185.691 110.626 185.945C88.6192 186.267 68.6287 178.304 52.8928 165.335Z" fill="#1ec3bd" fill-rule="nonzero" opacity="1" stroke="none" vectornator:layerName="path"/>
<path d="M87.7983 16.3921C87.7799 16.3935 87.7614 16.394 87.743 16.3952L70.0817 19.4195C29.7252 30.3438 0 67.2418 0 111.037C0 112.656 0.0430559 114.263 0.124555 115.86C2.73783 156.173 31.7061 180.836 31.7061 180.836C21.1861 166.202 20.6095 146.289 20.6095 126.872C20.6095 77.5965 60.4923 37.7119 109.766 37.7119C131.775 37.7119 152.241 46.8005 167.785 59.9984C167.785 59.9984 153.404 17.4548 87.7975 16.392L87.7983 16.3921ZM94.9067 21.8805C102.554 21.8805 110.344 22.9872 117.424 24.7944C112.446 23.9868 106.946 23.4181 101.741 23.4181C49.359 23.4181 6.83589 65.943 6.83589 118.328C6.83589 122.552 7.53841 126.582 8.07421 130.661C6.65115 124.332 5.75356 117.799 5.75356 111.038C5.75356 61.7619 45.6332 21.8805 94.9067 21.8805ZM101.741 29.1707C114.183 29.1707 126.012 31.7451 136.765 36.3399C128.151 33.7656 119.213 31.9499 109.767 31.9499C57.3842 31.9499 14.8611 74.4875 14.8611 126.872C14.5082 133.129 15.5726 137.762 16.4847 143.041C14.1983 135.146 12.5882 126.965 12.5882 118.328C12.5882 69.0521 52.4679 29.1707 101.741 29.1707Z" fill="#1ec3bd" fill-rule="nonzero" opacity="1" stroke="none" vectornator:layerName="path"/>
</g>
</g>
<g opacity="1" vectornator:layerName="g3316">
<g opacity="1" vectornator:layerName="g3310">
<g opacity="1" vectornator:layerName="g3306">
<path d="M57.0566 54.9348C57.0566 54.9348 16.7666 68.1918 15.1572 132.609C15.2064 133.411 15.2731 134.412 15.3672 135.449L18.1495 151.697C29.0733 192.056 65.9697 221.782 109.763 221.782C111.382 221.782 112.989 221.74 114.586 221.658C154.897 219.045 177.302 191.201 177.302 191.201C162.667 201.722 145.014 201.172 125.597 201.172C76.3239 201.172 36.4411 161.287 36.4411 112.012C36.4411 90.0014 43.8592 70.48 57.0566 54.9348ZM35.0691 85.0125C32.4949 93.6264 30.6792 102.565 30.6793 112.012C30.6793 164.397 73.2151 206.921 125.598 206.921C131.136 206.921 136.487 206.21 141.766 205.298C133.87 207.584 125.69 209.194 117.053 209.194C67.7798 209.194 27.9002 169.313 27.9002 120.037C27.9002 107.595 30.4745 95.7662 35.0691 85.0125ZM23.6759 104.843C22.8684 109.82 22.1479 114.833 22.1479 120.037C22.1479 172.422 64.6709 214.947 117.053 214.947C121.277 214.947 125.307 214.245 129.386 213.709C123.057 215.132 116.525 216.029 109.763 216.029C60.4899 216.029 20.6103 176.148 20.6103 126.872C20.6103 119.225 21.8688 111.923 23.6759 104.843Z" fill="#5D2589" fill-rule="nonzero" opacity="1" stroke="none" vectornator:layerName="path"/>
<path d="M117.041 0.0161953C58.4195 0.460549 32.9076 39.2051 32.9076 39.2051C48.6435 26.236 73.3486 20.6831 95.3556 21.005C125.553 21.4468 152 36.8205 167.787 59.9997L171.896 55.8866C155.011 31.7094 127.148 15.7068 95.4384 15.2429C85.9932 15.1046 77.0301 16.7901 68.3798 19.2382C79.1991 14.8011 91.0648 12.3995 103.505 12.5815C133.774 13.0243 160.272 28.4685 176.044 51.7385L180.16 47.6254C163.286 23.361 135.368 7.29385 103.588 6.82888C98.384 6.75273 93.3604 7.39946 88.3714 8.13412C95.4775 6.43069 102.799 5.27807 110.445 5.38994C140.778 5.83374 167.326 21.3466 183.086 44.6998L187.202 40.5835C174.885 22.8055 156.646 9.40978 135.3 3.2952L118.419 0.149902L117.041 0.0161953Z" fill="#5D2589" fill-rule="nonzero" opacity="1" stroke="none" vectornator:layerName="path"/>
<path d="M134.17 6.3834L138.871 4.54838C138.871 4.54838 131.196 1.28903 117.447 0.117621C103.698-1.05379 79.7441 6.9105 79.7441 6.9105L109.75 4.22254L134.17 6.3834Z" fill="#5D2589" fill-rule="nonzero" opacity="1" stroke="none" vectornator:layerName="path"/>
<path d="M18.1496 151.697C18.1496 151.697 15.7462 140.282 15.3673 135.449C14.9404 130.004 17.0521 127.534 17.0521 127.534L20.8124 146.196L18.1496 151.697Z" fill="#5D2589" fill-rule="nonzero" opacity="1" stroke="none" vectornator:layerName="path"/>
</g>
</g>
</g>
</g>
</g>
</svg>
